<svg width="21" height="21" viewBox="0 0 21 21" fill="none" xmlns="http://www.w3.org/2000/svg">
<path fill-rule="evenodd" clip-rule="evenodd" d="M14.4538 12.7386H13.5504L13.2302 12.4298C14.3509 11.1262 15.0255 9.43384 15.0255 7.59279C15.0255 3.48759 11.6979 0.159973 7.59273 0.159973C3.48753 0.159973 0.159912 3.48759 0.159912 7.59279C0.159912 11.698 3.48753 15.0256 7.59273 15.0256C9.43378 15.0256 11.1262 14.3509 12.4298 13.2303L12.7385 13.5505V14.4539L18.4561 20.16L20.1599 18.4561L14.4538 12.7386ZM7.59273 12.7386C4.74539 12.7386 2.44693 10.4401 2.44693 7.59279C2.44693 4.74545 4.74539 2.44699 7.59273 2.44699C10.4401 2.44699 12.7385 4.74545 12.7385 7.59279C12.7385 10.4401 10.4401 12.7386 7.59273 12.7386Z" fill="black" fill-opacity="0.4"/>
</svg>
