<svg width="29" height="19" viewBox="0 0 29 19" fill="none" xmlns="http://www.w3.org/2000/svg">
<path fill-rule="evenodd" clip-rule="evenodd" d="M14.0292 4.96849C14.0292 3.93213 13.7568 3.04341 13.2132 2.29931C12.3072 1.08784 10.7712 0.467467 8.6004 0.435791H0V17.9247H8.0196C8.9238 17.9247 9.7602 17.8482 10.5342 17.6904C11.3082 17.5302 11.9766 17.2392 12.5442 16.8118C13.0494 16.4382 13.4772 15.9708 13.8042 15.4354C14.334 14.613 14.598 13.683 14.598 12.6467C14.598 11.6414 14.3664 10.7862 13.9056 10.0839C13.44 9.37985 12.756 8.86586 11.8482 8.53954C12.4458 8.24011 12.8982 7.90721 13.206 7.54442C13.7568 6.89536 14.0292 6.03532 14.0292 4.96849ZM26.0298 3.4277H18.4032V1.25101H26.0298V3.4277ZM19.2918 10.1789C19.4178 9.33622 19.7238 8.66923 20.2098 8.17675C20.6958 7.68428 21.3834 7.43804 22.2636 7.43804C23.0766 7.43804 23.7558 7.66933 24.3078 8.13372C24.8532 8.6011 25.161 9.28004 25.224 10.1789H19.2918ZM25.3578 5.25477C26.277 5.65759 27.0342 6.2965 27.63 7.16849C28.1736 7.93709 28.5222 8.8294 28.6818 9.84245C28.7748 10.4347 28.812 11.2936 28.7964 12.41H19.2072C19.2648 13.707 19.719 14.6166 20.586 15.1378C21.1104 15.4623 21.7422 15.6249 22.4838 15.6249C23.2644 15.6249 23.9028 15.4276 24.3918 15.0332C24.6618 14.818 24.8988 14.5216 25.1016 14.1426H28.6158C28.5222 14.9077 28.0956 15.6882 27.3402 16.4801C26.1618 17.737 24.5106 18.3658 22.389 18.3658C20.637 18.3658 19.0908 17.8368 17.7546 16.7748C16.4118 15.7151 15.7446 13.9879 15.7446 11.5984C15.7446 9.35714 16.3488 7.63766 17.5566 6.44113C18.7674 5.24819 20.3334 4.64754 22.2624 4.64754C23.4084 4.64754 24.4398 4.85074 25.3578 5.25477ZM3.5478 14.8897V10.2255H7.9296C8.6916 10.2321 9.2862 10.3319 9.7098 10.522C10.4664 10.8627 10.842 11.4866 10.842 12.3987C10.842 13.4733 10.4526 14.1994 9.672 14.5819C9.2436 14.7863 8.6412 14.8897 7.869 14.8897H3.5478ZM3.5478 3.47253V7.33165H7.8756C8.646 7.33165 9.2742 7.18702 9.7584 6.89715C10.2396 6.60788 10.4814 6.09508 10.4814 5.36294C10.4814 4.54594 10.1634 4.00863 9.5268 3.74566C8.9748 3.56397 8.2734 3.47253 7.422 3.47253H3.5478Z" fill="#1769FF"/>
</svg>
