<svg width="1220" height="526" viewBox="0 0 1220 526" fill="none" xmlns="http://www.w3.org/2000/svg">
<g opacity="0.3">
<mask id="mask0" mask-type="alpha" maskUnits="userSpaceOnUse" x="0" y="286" width="10" height="11">
<path d="M4.61216 296.425C7.15939 296.425 9.22433 294.091 9.22433 291.212C9.22433 288.334 7.15939 286 4.61216 286C2.06493 286 0 288.334 0 291.212C0 294.091 2.06493 296.425 4.61216 296.425Z" fill="url(#paint0_linear)"/>
</mask>
<g mask="url(#mask0)">
<path d="M4.61216 296.425C7.15939 296.425 9.22433 294.091 9.22433 291.212C9.22433 288.334 7.15939 286 4.61216 286C2.06493 286 0 288.334 0 291.212C0 294.091 2.06493 296.425 4.61216 296.425Z" fill="url(#paint1_linear)"/>
</g>
<mask id="mask1" mask-type="alpha" maskUnits="userSpaceOnUse" x="26" y="286" width="10" height="11">
<path d="M31.3243 296.425C33.8716 296.425 35.9365 294.091 35.9365 291.212C35.9365 288.334 33.8716 286 31.3243 286C28.7771 286 26.7122 288.334 26.7122 291.212C26.7122 294.091 28.7771 296.425 31.3243 296.425Z" fill="url(#paint2_linear)"/>
</mask>
<g mask="url(#mask1)">
<path d="M31.3243 296.425C33.8716 296.425 35.9365 294.091 35.9365 291.212C35.9365 288.334 33.8716 286 31.3243 286C28.7771 286 26.7122 288.334 26.7122 291.212C26.7122 294.091 28.7771 296.425 31.3243 296.425Z" fill="url(#paint3_linear)"/>
</g>
<mask id="mask2" mask-type="alpha" maskUnits="userSpaceOnUse" x="53" y="286" width="10" height="11">
<path d="M58.0364 296.425C60.5837 296.425 62.6486 294.091 62.6486 291.212C62.6486 288.334 60.5837 286 58.0364 286C55.4892 286 53.4243 288.334 53.4243 291.212C53.4243 294.091 55.4892 296.425 58.0364 296.425Z" fill="url(#paint4_linear)"/>
</mask>
<g mask="url(#mask2)">
<path d="M58.0364 296.425C60.5837 296.425 62.6486 294.091 62.6486 291.212C62.6486 288.334 60.5837 286 58.0364 286C55.4892 286 53.4243 288.334 53.4243 291.212C53.4243 294.091 55.4892 296.425 58.0364 296.425Z" fill="url(#paint5_linear)"/>
</g>
<mask id="mask3" mask-type="alpha" maskUnits="userSpaceOnUse" x="80" y="286" width="10" height="11">
<path d="M84.7486 296.425C87.2958 296.425 89.3608 294.091 89.3608 291.212C89.3608 288.334 87.2958 286 84.7486 286C82.2014 286 80.1364 288.334 80.1364 291.212C80.1364 294.091 82.2014 296.425 84.7486 296.425Z" fill="url(#paint6_linear)"/>
</mask>
<g mask="url(#mask3)">
<path d="M84.7486 296.425C87.2958 296.425 89.3608 294.091 89.3608 291.212C89.3608 288.334 87.2958 286 84.7486 286C82.2014 286 80.1364 288.334 80.1364 291.212C80.1364 294.091 82.2014 296.425 84.7486 296.425Z" fill="url(#paint7_linear)"/>
</g>
<mask id="mask4" mask-type="alpha" maskUnits="userSpaceOnUse" x="106" y="286" width="11" height="11">
<path d="M111.461 296.425C114.008 296.425 116.073 294.091 116.073 291.212C116.073 288.334 114.008 286 111.461 286C108.914 286 106.849 288.334 106.849 291.212C106.849 294.091 108.914 296.425 111.461 296.425Z" fill="url(#paint8_linear)"/>
</mask>
<g mask="url(#mask4)">
<path d="M111.461 296.425C114.008 296.425 116.073 294.091 116.073 291.212C116.073 288.334 114.008 286 111.461 286C108.914 286 106.849 288.334 106.849 291.212C106.849 294.091 108.914 296.425 111.461 296.425Z" fill="url(#paint9_linear)"/>
</g>
<mask id="mask5" mask-type="alpha" maskUnits="userSpaceOnUse" x="0" y="312" width="10" height="11">
<path d="M4.61216 322.596C7.15939 322.596 9.22433 320.262 9.22433 317.383C9.22433 314.505 7.15939 312.171 4.61216 312.171C2.06493 312.171 0 314.505 0 317.383C0 320.262 2.06493 322.596 4.61216 322.596Z" fill="url(#paint10_linear)"/>
</mask>
<g mask="url(#mask5)">
<path d="M4.61216 322.596C7.15939 322.596 9.22433 320.262 9.22433 317.383C9.22433 314.505 7.15939 312.171 4.61216 312.171C2.06493 312.171 0 314.505 0 317.383C0 320.262 2.06493 322.596 4.61216 322.596Z" fill="url(#paint11_linear)"/>
</g>
<mask id="mask6" mask-type="alpha" maskUnits="userSpaceOnUse" x="26" y="312" width="10" height="11">
<path d="M31.3243 322.596C33.8716 322.596 35.9365 320.262 35.9365 317.383C35.9365 314.505 33.8716 312.171 31.3243 312.171C28.7771 312.171 26.7122 314.505 26.7122 317.383C26.7122 320.262 28.7771 322.596 31.3243 322.596Z" fill="url(#paint12_linear)"/>
</mask>
<g mask="url(#mask6)">
<path d="M31.3243 322.596C33.8716 322.596 35.9365 320.262 35.9365 317.383C35.9365 314.505 33.8716 312.171 31.3243 312.171C28.7771 312.171 26.7122 314.505 26.7122 317.383C26.7122 320.262 28.7771 322.596 31.3243 322.596Z" fill="url(#paint13_linear)"/>
</g>
<mask id="mask7" mask-type="alpha" maskUnits="userSpaceOnUse" x="53" y="312" width="10" height="11">
<path d="M58.0364 322.596C60.5837 322.596 62.6486 320.262 62.6486 317.383C62.6486 314.505 60.5837 312.171 58.0364 312.171C55.4892 312.171 53.4243 314.505 53.4243 317.383C53.4243 320.262 55.4892 322.596 58.0364 322.596Z" fill="url(#paint14_linear)"/>
</mask>
<g mask="url(#mask7)">
<path d="M58.0364 322.596C60.5837 322.596 62.6486 320.262 62.6486 317.383C62.6486 314.505 60.5837 312.171 58.0364 312.171C55.4892 312.171 53.4243 314.505 53.4243 317.383C53.4243 320.262 55.4892 322.596 58.0364 322.596Z" fill="url(#paint15_linear)"/>
</g>
<mask id="mask8" mask-type="alpha" maskUnits="userSpaceOnUse" x="80" y="312" width="10" height="11">
<path d="M84.7486 322.596C87.2958 322.596 89.3608 320.262 89.3608 317.383C89.3608 314.505 87.2958 312.171 84.7486 312.171C82.2014 312.171 80.1364 314.505 80.1364 317.383C80.1364 320.262 82.2014 322.596 84.7486 322.596Z" fill="url(#paint16_linear)"/>
</mask>
<g mask="url(#mask8)">
<path d="M84.7486 322.596C87.2958 322.596 89.3608 320.262 89.3608 317.383C89.3608 314.505 87.2958 312.171 84.7486 312.171C82.2014 312.171 80.1364 314.505 80.1364 317.383C80.1364 320.262 82.2014 322.596 84.7486 322.596Z" fill="url(#paint17_linear)"/>
</g>
<mask id="mask9" mask-type="alpha" maskUnits="userSpaceOnUse" x="106" y="312" width="11" height="11">
<path d="M111.461 322.596C114.008 322.596 116.073 320.262 116.073 317.383C116.073 314.505 114.008 312.171 111.461 312.171C108.914 312.171 106.849 314.505 106.849 317.383C106.849 320.262 108.914 322.596 111.461 322.596Z" fill="url(#paint18_linear)"/>
</mask>
<g mask="url(#mask9)">
<path d="M111.461 322.596C114.008 322.596 116.073 320.262 116.073 317.383C116.073 314.505 114.008 312.171 111.461 312.171C108.914 312.171 106.849 314.505 106.849 317.383C106.849 320.262 108.914 322.596 111.461 322.596Z" fill="url(#paint19_linear)"/>
</g>
<mask id="mask10" mask-type="alpha" maskUnits="userSpaceOnUse" x="0" y="338" width="10" height="11">
<path d="M4.61216 348.713C7.15939 348.713 9.22433 346.379 9.22433 343.5C9.22433 340.621 7.15939 338.288 4.61216 338.288C2.06493 338.288 0 340.621 0 343.5C0 346.379 2.06493 348.713 4.61216 348.713Z" fill="url(#paint20_linear)"/>
</mask>
<g mask="url(#mask10)">
<path d="M4.61216 348.713C7.15939 348.713 9.22433 346.379 9.22433 343.5C9.22433 340.621 7.15939 338.288 4.61216 338.288C2.06493 338.288 0 340.621 0 343.5C0 346.379 2.06493 348.713 4.61216 348.713Z" fill="url(#paint21_linear)"/>
</g>
<mask id="mask11" mask-type="alpha" maskUnits="userSpaceOnUse" x="26" y="338" width="10" height="11">
<path d="M31.3243 348.713C33.8716 348.713 35.9365 346.379 35.9365 343.5C35.9365 340.621 33.8716 338.288 31.3243 338.288C28.7771 338.288 26.7122 340.621 26.7122 343.5C26.7122 346.379 28.7771 348.713 31.3243 348.713Z" fill="url(#paint22_linear)"/>
</mask>
<g mask="url(#mask11)">
<path d="M31.3243 348.713C33.8716 348.713 35.9365 346.379 35.9365 343.5C35.9365 340.621 33.8716 338.288 31.3243 338.288C28.7771 338.288 26.7122 340.621 26.7122 343.5C26.7122 346.379 28.7771 348.713 31.3243 348.713Z" fill="url(#paint23_linear)"/>
</g>
<mask id="mask12" mask-type="alpha" maskUnits="userSpaceOnUse" x="53" y="338" width="10" height="11">
<path d="M58.0364 348.713C60.5837 348.713 62.6486 346.379 62.6486 343.5C62.6486 340.621 60.5837 338.288 58.0364 338.288C55.4892 338.288 53.4243 340.621 53.4243 343.5C53.4243 346.379 55.4892 348.713 58.0364 348.713Z" fill="url(#paint24_linear)"/>
</mask>
<g mask="url(#mask12)">
<path d="M58.0364 348.713C60.5837 348.713 62.6486 346.379 62.6486 343.5C62.6486 340.621 60.5837 338.288 58.0364 338.288C55.4892 338.288 53.4243 340.621 53.4243 343.5C53.4243 346.379 55.4892 348.713 58.0364 348.713Z" fill="url(#paint25_linear)"/>
</g>
<mask id="mask13" mask-type="alpha" maskUnits="userSpaceOnUse" x="80" y="338" width="10" height="11">
<path d="M84.7486 348.713C87.2958 348.713 89.3608 346.379 89.3608 343.5C89.3608 340.621 87.2958 338.288 84.7486 338.288C82.2014 338.288 80.1364 340.621 80.1364 343.5C80.1364 346.379 82.2014 348.713 84.7486 348.713Z" fill="url(#paint26_linear)"/>
</mask>
<g mask="url(#mask13)">
<path d="M84.7486 348.713C87.2958 348.713 89.3608 346.379 89.3608 343.5C89.3608 340.621 87.2958 338.288 84.7486 338.288C82.2014 338.288 80.1364 340.621 80.1364 343.5C80.1364 346.379 82.2014 348.713 84.7486 348.713Z" fill="url(#paint27_linear)"/>
</g>
<mask id="mask14" mask-type="alpha" maskUnits="userSpaceOnUse" x="106" y="338" width="11" height="11">
<path d="M111.461 348.713C114.008 348.713 116.073 346.379 116.073 343.5C116.073 340.621 114.008 338.288 111.461 338.288C108.914 338.288 106.849 340.621 106.849 343.5C106.849 346.379 108.914 348.713 111.461 348.713Z" fill="url(#paint28_linear)"/>
</mask>
<g mask="url(#mask14)">
<path d="M111.461 348.713C114.008 348.713 116.073 346.379 116.073 343.5C116.073 340.621 114.008 338.288 111.461 338.288C108.914 338.288 106.849 340.621 106.849 343.5C106.849 346.379 108.914 348.713 111.461 348.713Z" fill="url(#paint29_linear)"/>
</g>
<mask id="mask15" mask-type="alpha" maskUnits="userSpaceOnUse" x="0" y="364" width="10" height="11">
<path d="M4.61216 374.883C7.15939 374.883 9.22433 372.55 9.22433 369.671C9.22433 366.792 7.15939 364.458 4.61216 364.458C2.06493 364.458 0 366.792 0 369.671C0 372.55 2.06493 374.883 4.61216 374.883Z" fill="url(#paint30_linear)"/>
</mask>
<g mask="url(#mask15)">
<path d="M4.61216 374.883C7.15939 374.883 9.22433 372.55 9.22433 369.671C9.22433 366.792 7.15939 364.458 4.61216 364.458C2.06493 364.458 0 366.792 0 369.671C0 372.55 2.06493 374.883 4.61216 374.883Z" fill="url(#paint31_linear)"/>
</g>
<mask id="mask16" mask-type="alpha" maskUnits="userSpaceOnUse" x="26" y="364" width="10" height="11">
<path d="M31.3243 374.883C33.8716 374.883 35.9365 372.55 35.9365 369.671C35.9365 366.792 33.8716 364.458 31.3243 364.458C28.7771 364.458 26.7122 366.792 26.7122 369.671C26.7122 372.55 28.7771 374.883 31.3243 374.883Z" fill="url(#paint32_linear)"/>
</mask>
<g mask="url(#mask16)">
<path d="M31.3243 374.883C33.8716 374.883 35.9365 372.55 35.9365 369.671C35.9365 366.792 33.8716 364.458 31.3243 364.458C28.7771 364.458 26.7122 366.792 26.7122 369.671C26.7122 372.55 28.7771 374.883 31.3243 374.883Z" fill="url(#paint33_linear)"/>
</g>
<mask id="mask17" mask-type="alpha" maskUnits="userSpaceOnUse" x="53" y="364" width="10" height="11">
<path d="M58.0364 374.883C60.5837 374.883 62.6486 372.55 62.6486 369.671C62.6486 366.792 60.5837 364.458 58.0364 364.458C55.4892 364.458 53.4243 366.792 53.4243 369.671C53.4243 372.55 55.4892 374.883 58.0364 374.883Z" fill="url(#paint34_linear)"/>
</mask>
<g mask="url(#mask17)">
<path d="M58.0364 374.883C60.5837 374.883 62.6486 372.55 62.6486 369.671C62.6486 366.792 60.5837 364.458 58.0364 364.458C55.4892 364.458 53.4243 366.792 53.4243 369.671C53.4243 372.55 55.4892 374.883 58.0364 374.883Z" fill="url(#paint35_linear)"/>
</g>
<mask id="mask18" mask-type="alpha" maskUnits="userSpaceOnUse" x="80" y="364" width="10" height="11">
<path d="M84.7486 374.883C87.2958 374.883 89.3608 372.55 89.3608 369.671C89.3608 366.792 87.2958 364.458 84.7486 364.458C82.2014 364.458 80.1364 366.792 80.1364 369.671C80.1364 372.55 82.2014 374.883 84.7486 374.883Z" fill="url(#paint36_linear)"/>
</mask>
<g mask="url(#mask18)">
<path d="M84.7486 374.883C87.2958 374.883 89.3608 372.55 89.3608 369.671C89.3608 366.792 87.2958 364.458 84.7486 364.458C82.2014 364.458 80.1364 366.792 80.1364 369.671C80.1364 372.55 82.2014 374.883 84.7486 374.883Z" fill="url(#paint37_linear)"/>
</g>
<mask id="mask19" mask-type="alpha" maskUnits="userSpaceOnUse" x="106" y="364" width="11" height="11">
<path d="M111.461 374.883C114.008 374.883 116.073 372.55 116.073 369.671C116.073 366.792 114.008 364.458 111.461 364.458C108.914 364.458 106.849 366.792 106.849 369.671C106.849 372.55 108.914 374.883 111.461 374.883Z" fill="url(#paint38_linear)"/>
</mask>
<g mask="url(#mask19)">
<path d="M111.461 374.883C114.008 374.883 116.073 372.55 116.073 369.671C116.073 366.792 114.008 364.458 111.461 364.458C108.914 364.458 106.849 366.792 106.849 369.671C106.849 372.55 108.914 374.883 111.461 374.883Z" fill="url(#paint39_linear)"/>
</g>
<mask id="mask20" mask-type="alpha" maskUnits="userSpaceOnUse" x="0" y="390" width="10" height="11">
<path d="M4.61216 401C7.15939 401 9.22433 398.666 9.22433 395.787C9.22433 392.909 7.15939 390.575 4.61216 390.575C2.06493 390.575 0 392.909 0 395.787C0 398.666 2.06493 401 4.61216 401Z" fill="url(#paint40_linear)"/>
</mask>
<g mask="url(#mask20)">
<path d="M4.61216 401C7.15939 401 9.22433 398.666 9.22433 395.787C9.22433 392.909 7.15939 390.575 4.61216 390.575C2.06493 390.575 0 392.909 0 395.787C0 398.666 2.06493 401 4.61216 401Z" fill="url(#paint41_linear)"/>
</g>
<mask id="mask21" mask-type="alpha" maskUnits="userSpaceOnUse" x="26" y="390" width="10" height="11">
<path d="M31.3243 401C33.8716 401 35.9365 398.666 35.9365 395.787C35.9365 392.909 33.8716 390.575 31.3243 390.575C28.7771 390.575 26.7122 392.909 26.7122 395.787C26.7122 398.666 28.7771 401 31.3243 401Z" fill="url(#paint42_linear)"/>
</mask>
<g mask="url(#mask21)">
<path d="M31.3243 401C33.8716 401 35.9365 398.666 35.9365 395.787C35.9365 392.909 33.8716 390.575 31.3243 390.575C28.7771 390.575 26.7122 392.909 26.7122 395.787C26.7122 398.666 28.7771 401 31.3243 401Z" fill="url(#paint43_linear)"/>
</g>
<mask id="mask22" mask-type="alpha" maskUnits="userSpaceOnUse" x="53" y="390" width="10" height="11">
<path d="M58.0364 401C60.5837 401 62.6486 398.666 62.6486 395.787C62.6486 392.909 60.5837 390.575 58.0364 390.575C55.4892 390.575 53.4243 392.909 53.4243 395.787C53.4243 398.666 55.4892 401 58.0364 401Z" fill="url(#paint44_linear)"/>
</mask>
<g mask="url(#mask22)">
<path d="M58.0364 401C60.5837 401 62.6486 398.666 62.6486 395.787C62.6486 392.909 60.5837 390.575 58.0364 390.575C55.4892 390.575 53.4243 392.909 53.4243 395.787C53.4243 398.666 55.4892 401 58.0364 401Z" fill="url(#paint45_linear)"/>
</g>
<mask id="mask23" mask-type="alpha" maskUnits="userSpaceOnUse" x="80" y="390" width="10" height="11">
<path d="M84.7486 401C87.2958 401 89.3608 398.666 89.3608 395.787C89.3608 392.909 87.2958 390.575 84.7486 390.575C82.2014 390.575 80.1364 392.909 80.1364 395.787C80.1364 398.666 82.2014 401 84.7486 401Z" fill="url(#paint46_linear)"/>
</mask>
<g mask="url(#mask23)">
<path d="M84.7486 401C87.2958 401 89.3608 398.666 89.3608 395.787C89.3608 392.909 87.2958 390.575 84.7486 390.575C82.2014 390.575 80.1364 392.909 80.1364 395.787C80.1364 398.666 82.2014 401 84.7486 401Z" fill="url(#paint47_linear)"/>
</g>
<mask id="mask24" mask-type="alpha" maskUnits="userSpaceOnUse" x="106" y="390" width="11" height="11">
<path d="M111.461 401C114.008 401 116.073 398.666 116.073 395.787C116.073 392.909 114.008 390.575 111.461 390.575C108.914 390.575 106.849 392.909 106.849 395.787C106.849 398.666 108.914 401 111.461 401Z" fill="url(#paint48_linear)"/>
</mask>
<g mask="url(#mask24)">
<path d="M111.461 401C114.008 401 116.073 398.666 116.073 395.787C116.073 392.909 114.008 390.575 111.461 390.575C108.914 390.575 106.849 392.909 106.849 395.787C106.849 398.666 108.914 401 111.461 401Z" fill="url(#paint49_linear)"/>
</g>
</g>
<rect x="52" y="15" width="1120" height="425" rx="24" fill="url(#paint50_linear)"/>
<g opacity="0.26">
<mask id="mask25" mask-type="alpha" maskUnits="userSpaceOnUse" x="1088" y="0" width="11" height="11">
<path d="M1093.23 10.425C1096.12 10.425 1098.46 8.09121 1098.46 5.21245C1098.46 2.33368 1096.12 0 1093.23 0C1090.34 0 1088 2.33368 1088 5.21245C1088 8.09121 1090.34 10.425 1093.23 10.425Z" fill="url(#paint51_linear)"/>
</mask>
<g mask="url(#mask25)">
<path d="M1093.23 10.425C1096.12 10.425 1098.46 8.09121 1098.46 5.21245C1098.46 2.33368 1096.12 0 1093.23 0C1090.34 0 1088 2.33368 1088 5.21245C1088 8.09121 1090.34 10.425 1093.23 10.425Z" fill="url(#paint52_linear)"/>
</g>
<mask id="mask26" mask-type="alpha" maskUnits="userSpaceOnUse" x="1118" y="0" width="11" height="11">
<path d="M1123.51 10.425C1126.4 10.425 1128.74 8.09121 1128.74 5.21245C1128.74 2.33368 1126.4 0 1123.51 0C1120.62 0 1118.28 2.33368 1118.28 5.21245C1118.28 8.09121 1120.62 10.425 1123.51 10.425Z" fill="url(#paint53_linear)"/>
</mask>
<g mask="url(#mask26)">
<path d="M1123.51 10.425C1126.4 10.425 1128.74 8.09121 1128.74 5.21245C1128.74 2.33368 1126.4 0 1123.51 0C1120.62 0 1118.28 2.33368 1118.28 5.21245C1118.28 8.09121 1120.62 10.425 1123.51 10.425Z" fill="url(#paint54_linear)"/>
</g>
<mask id="mask27" mask-type="alpha" maskUnits="userSpaceOnUse" x="1148" y="0" width="12" height="11">
<path d="M1153.79 10.425C1156.68 10.425 1159.02 8.09121 1159.02 5.21245C1159.02 2.33368 1156.68 0 1153.79 0C1150.9 0 1148.56 2.33368 1148.56 5.21245C1148.56 8.09121 1150.9 10.425 1153.79 10.425Z" fill="url(#paint55_linear)"/>
</mask>
<g mask="url(#mask27)">
<path d="M1153.79 10.425C1156.68 10.425 1159.02 8.09121 1159.02 5.21245C1159.02 2.33368 1156.68 0 1153.79 0C1150.9 0 1148.56 2.33368 1148.56 5.21245C1148.56 8.09121 1150.9 10.425 1153.79 10.425Z" fill="url(#paint56_linear)"/>
</g>
<mask id="mask28" mask-type="alpha" maskUnits="userSpaceOnUse" x="1178" y="0" width="12" height="11">
<path d="M1184.07 10.425C1186.96 10.425 1189.3 8.09121 1189.3 5.21245C1189.3 2.33368 1186.96 0 1184.07 0C1181.18 0 1178.84 2.33368 1178.84 5.21245C1178.84 8.09121 1181.18 10.425 1184.07 10.425Z" fill="url(#paint57_linear)"/>
</mask>
<g mask="url(#mask28)">
<path d="M1184.07 10.425C1186.96 10.425 1189.3 8.09121 1189.3 5.21245C1189.3 2.33368 1186.96 0 1184.07 0C1181.18 0 1178.84 2.33368 1178.84 5.21245C1178.84 8.09121 1181.18 10.425 1184.07 10.425Z" fill="url(#paint58_linear)"/>
</g>
<mask id="mask29" mask-type="alpha" maskUnits="userSpaceOnUse" x="1209" y="0" width="11" height="11">
<path d="M1214.35 10.425C1217.24 10.425 1219.58 8.09121 1219.58 5.21245C1219.58 2.33368 1217.24 0 1214.35 0C1211.47 0 1209.12 2.33368 1209.12 5.21245C1209.12 8.09121 1211.47 10.425 1214.35 10.425Z" fill="url(#paint59_linear)"/>
</mask>
<g mask="url(#mask29)">
<path d="M1214.35 10.425C1217.24 10.425 1219.58 8.09121 1219.58 5.21245C1219.58 2.33368 1217.24 0 1214.35 0C1211.47 0 1209.12 2.33368 1209.12 5.21245C1209.12 8.09121 1211.47 10.425 1214.35 10.425Z" fill="url(#paint60_linear)"/>
</g>
<mask id="mask30" mask-type="alpha" maskUnits="userSpaceOnUse" x="1088" y="26" width="11" height="11">
<path d="M1093.23 36.5958C1096.12 36.5958 1098.46 34.2621 1098.46 31.3833C1098.46 28.5046 1096.12 26.1709 1093.23 26.1709C1090.34 26.1709 1088 28.5046 1088 31.3833C1088 34.2621 1090.34 36.5958 1093.23 36.5958Z" fill="url(#paint61_linear)"/>
</mask>
<g mask="url(#mask30)">
<path d="M1093.23 36.5958C1096.12 36.5958 1098.46 34.2621 1098.46 31.3833C1098.46 28.5046 1096.12 26.1709 1093.23 26.1709C1090.34 26.1709 1088 28.5046 1088 31.3833C1088 34.2621 1090.34 36.5958 1093.23 36.5958Z" fill="url(#paint62_linear)"/>
</g>
<mask id="mask31" mask-type="alpha" maskUnits="userSpaceOnUse" x="1118" y="26" width="11" height="11">
<path d="M1123.51 36.5958C1126.4 36.5958 1128.74 34.2621 1128.74 31.3833C1128.74 28.5046 1126.4 26.1709 1123.51 26.1709C1120.62 26.1709 1118.28 28.5046 1118.28 31.3833C1118.28 34.2621 1120.62 36.5958 1123.51 36.5958Z" fill="url(#paint63_linear)"/>
</mask>
<g mask="url(#mask31)">
<path d="M1123.51 36.5958C1126.4 36.5958 1128.74 34.2621 1128.74 31.3833C1128.74 28.5046 1126.4 26.1709 1123.51 26.1709C1120.62 26.1709 1118.28 28.5046 1118.28 31.3833C1118.28 34.2621 1120.62 36.5958 1123.51 36.5958Z" fill="url(#paint64_linear)"/>
</g>
<mask id="mask32" mask-type="alpha" maskUnits="userSpaceOnUse" x="1148" y="26" width="12" height="11">
<path d="M1153.79 36.5958C1156.68 36.5958 1159.02 34.2621 1159.02 31.3833C1159.02 28.5046 1156.68 26.1709 1153.79 26.1709C1150.9 26.1709 1148.56 28.5046 1148.56 31.3833C1148.56 34.2621 1150.9 36.5958 1153.79 36.5958Z" fill="url(#paint65_linear)"/>
</mask>
<g mask="url(#mask32)">
<path d="M1153.79 36.5958C1156.68 36.5958 1159.02 34.2621 1159.02 31.3833C1159.02 28.5046 1156.68 26.1709 1153.79 26.1709C1150.9 26.1709 1148.56 28.5046 1148.56 31.3833C1148.56 34.2621 1150.9 36.5958 1153.79 36.5958Z" fill="url(#paint66_linear)"/>
</g>
<mask id="mask33" mask-type="alpha" maskUnits="userSpaceOnUse" x="1178" y="26" width="12" height="11">
<path d="M1184.07 36.5958C1186.96 36.5958 1189.3 34.2621 1189.3 31.3833C1189.3 28.5046 1186.96 26.1709 1184.07 26.1709C1181.18 26.1709 1178.84 28.5046 1178.84 31.3833C1178.84 34.2621 1181.18 36.5958 1184.07 36.5958Z" fill="url(#paint67_linear)"/>
</mask>
<g mask="url(#mask33)">
<path d="M1184.07 36.5958C1186.96 36.5958 1189.3 34.2621 1189.3 31.3833C1189.3 28.5046 1186.96 26.1709 1184.07 26.1709C1181.18 26.1709 1178.84 28.5046 1178.84 31.3833C1178.84 34.2621 1181.18 36.5958 1184.07 36.5958Z" fill="url(#paint68_linear)"/>
</g>
<mask id="mask34" mask-type="alpha" maskUnits="userSpaceOnUse" x="1209" y="26" width="11" height="11">
<path d="M1214.35 36.5958C1217.24 36.5958 1219.58 34.2621 1219.58 31.3833C1219.58 28.5046 1217.24 26.1709 1214.35 26.1709C1211.47 26.1709 1209.12 28.5046 1209.12 31.3833C1209.12 34.2621 1211.47 36.5958 1214.35 36.5958Z" fill="url(#paint69_linear)"/>
</mask>
<g mask="url(#mask34)">
<path d="M1214.35 36.5958C1217.24 36.5958 1219.58 34.2621 1219.58 31.3833C1219.58 28.5046 1217.24 26.1709 1214.35 26.1709C1211.47 26.1709 1209.12 28.5046 1209.12 31.3833C1209.12 34.2621 1211.47 36.5958 1214.35 36.5958Z" fill="url(#paint70_linear)"/>
</g>
<mask id="mask35" mask-type="alpha" maskUnits="userSpaceOnUse" x="1088" y="52" width="11" height="11">
<path d="M1093.23 62.7126C1096.12 62.7126 1098.46 60.3789 1098.46 57.5001C1098.46 54.6213 1096.12 52.2876 1093.23 52.2876C1090.34 52.2876 1088 54.6213 1088 57.5001C1088 60.3789 1090.34 62.7126 1093.23 62.7126Z" fill="url(#paint71_linear)"/>
</mask>
<g mask="url(#mask35)">
<path d="M1093.23 62.7126C1096.12 62.7126 1098.46 60.3789 1098.46 57.5001C1098.46 54.6213 1096.12 52.2876 1093.23 52.2876C1090.34 52.2876 1088 54.6213 1088 57.5001C1088 60.3789 1090.34 62.7126 1093.23 62.7126Z" fill="url(#paint72_linear)"/>
</g>
<mask id="mask36" mask-type="alpha" maskUnits="userSpaceOnUse" x="1118" y="52" width="11" height="11">
<path d="M1123.51 62.7126C1126.4 62.7126 1128.74 60.3789 1128.74 57.5001C1128.74 54.6213 1126.4 52.2876 1123.51 52.2876C1120.62 52.2876 1118.28 54.6213 1118.28 57.5001C1118.28 60.3789 1120.62 62.7126 1123.51 62.7126Z" fill="url(#paint73_linear)"/>
</mask>
<g mask="url(#mask36)">
<path d="M1123.51 62.7126C1126.4 62.7126 1128.74 60.3789 1128.74 57.5001C1128.74 54.6213 1126.4 52.2876 1123.51 52.2876C1120.62 52.2876 1118.28 54.6213 1118.28 57.5001C1118.28 60.3789 1120.62 62.7126 1123.51 62.7126Z" fill="url(#paint74_linear)"/>
</g>
<mask id="mask37" mask-type="alpha" maskUnits="userSpaceOnUse" x="1148" y="52" width="12" height="11">
<path d="M1153.79 62.7126C1156.68 62.7126 1159.02 60.3789 1159.02 57.5001C1159.02 54.6213 1156.68 52.2876 1153.79 52.2876C1150.9 52.2876 1148.56 54.6213 1148.56 57.5001C1148.56 60.3789 1150.9 62.7126 1153.79 62.7126Z" fill="url(#paint75_linear)"/>
</mask>
<g mask="url(#mask37)">
<path d="M1153.79 62.7126C1156.68 62.7126 1159.02 60.3789 1159.02 57.5001C1159.02 54.6213 1156.68 52.2876 1153.79 52.2876C1150.9 52.2876 1148.56 54.6213 1148.56 57.5001C1148.56 60.3789 1150.9 62.7126 1153.79 62.7126Z" fill="url(#paint76_linear)"/>
</g>
<mask id="mask38" mask-type="alpha" maskUnits="userSpaceOnUse" x="1178" y="52" width="12" height="11">
<path d="M1184.07 62.7126C1186.96 62.7126 1189.3 60.3789 1189.3 57.5001C1189.3 54.6213 1186.96 52.2876 1184.07 52.2876C1181.18 52.2876 1178.84 54.6213 1178.84 57.5001C1178.84 60.3789 1181.18 62.7126 1184.07 62.7126Z" fill="url(#paint77_linear)"/>
</mask>
<g mask="url(#mask38)">
<path d="M1184.07 62.7126C1186.96 62.7126 1189.3 60.3789 1189.3 57.5001C1189.3 54.6213 1186.96 52.2876 1184.07 52.2876C1181.18 52.2876 1178.84 54.6213 1178.84 57.5001C1178.84 60.3789 1181.18 62.7126 1184.07 62.7126Z" fill="url(#paint78_linear)"/>
</g>
<mask id="mask39" mask-type="alpha" maskUnits="userSpaceOnUse" x="1209" y="52" width="11" height="11">
<path d="M1214.35 62.7126C1217.24 62.7126 1219.58 60.3789 1219.58 57.5001C1219.58 54.6213 1217.24 52.2876 1214.35 52.2876C1211.47 52.2876 1209.12 54.6213 1209.12 57.5001C1209.12 60.3789 1211.47 62.7126 1214.35 62.7126Z" fill="url(#paint79_linear)"/>
</mask>
<g mask="url(#mask39)">
<path d="M1214.35 62.7126C1217.24 62.7126 1219.58 60.3789 1219.58 57.5001C1219.58 54.6213 1217.24 52.2876 1214.35 52.2876C1211.47 52.2876 1209.12 54.6213 1209.12 57.5001C1209.12 60.3789 1211.47 62.7126 1214.35 62.7126Z" fill="url(#paint80_linear)"/>
</g>
<mask id="mask40" mask-type="alpha" maskUnits="userSpaceOnUse" x="1088" y="78" width="11" height="11">
<path d="M1093.23 88.8835C1096.12 88.8835 1098.46 86.5497 1098.46 83.6709C1098.46 80.7922 1096.12 78.4585 1093.23 78.4585C1090.34 78.4585 1088 80.7922 1088 83.6709C1088 86.5497 1090.34 88.8835 1093.23 88.8835Z" fill="url(#paint81_linear)"/>
</mask>
<g mask="url(#mask40)">
<path d="M1093.23 88.8835C1096.12 88.8835 1098.46 86.5497 1098.46 83.6709C1098.46 80.7922 1096.12 78.4585 1093.23 78.4585C1090.34 78.4585 1088 80.7922 1088 83.6709C1088 86.5497 1090.34 88.8835 1093.23 88.8835Z" fill="url(#paint82_linear)"/>
</g>
<mask id="mask41" mask-type="alpha" maskUnits="userSpaceOnUse" x="1118" y="78" width="11" height="11">
<path d="M1123.51 88.8835C1126.4 88.8835 1128.74 86.5497 1128.74 83.6709C1128.74 80.7922 1126.4 78.4585 1123.51 78.4585C1120.62 78.4585 1118.28 80.7922 1118.28 83.6709C1118.28 86.5497 1120.62 88.8835 1123.51 88.8835Z" fill="url(#paint83_linear)"/>
</mask>
<g mask="url(#mask41)">
<path d="M1123.51 88.8835C1126.4 88.8835 1128.74 86.5497 1128.74 83.6709C1128.74 80.7922 1126.4 78.4585 1123.51 78.4585C1120.62 78.4585 1118.28 80.7922 1118.28 83.6709C1118.28 86.5497 1120.62 88.8835 1123.51 88.8835Z" fill="url(#paint84_linear)"/>
</g>
<mask id="mask42" mask-type="alpha" maskUnits="userSpaceOnUse" x="1148" y="78" width="12" height="11">
<path d="M1153.79 88.8835C1156.68 88.8835 1159.02 86.5497 1159.02 83.6709C1159.02 80.7922 1156.68 78.4585 1153.79 78.4585C1150.9 78.4585 1148.56 80.7922 1148.56 83.6709C1148.56 86.5497 1150.9 88.8835 1153.79 88.8835Z" fill="url(#paint85_linear)"/>
</mask>
<g mask="url(#mask42)">
<path d="M1153.79 88.8835C1156.68 88.8835 1159.02 86.5497 1159.02 83.6709C1159.02 80.7922 1156.68 78.4585 1153.79 78.4585C1150.9 78.4585 1148.56 80.7922 1148.56 83.6709C1148.56 86.5497 1150.9 88.8835 1153.79 88.8835Z" fill="url(#paint86_linear)"/>
</g>
<mask id="mask43" mask-type="alpha" maskUnits="userSpaceOnUse" x="1178" y="78" width="12" height="11">
<path d="M1184.07 88.8835C1186.96 88.8835 1189.3 86.5497 1189.3 83.6709C1189.3 80.7922 1186.96 78.4585 1184.07 78.4585C1181.18 78.4585 1178.84 80.7922 1178.84 83.6709C1178.84 86.5497 1181.18 88.8835 1184.07 88.8835Z" fill="url(#paint87_linear)"/>
</mask>
<g mask="url(#mask43)">
<path d="M1184.07 88.8835C1186.96 88.8835 1189.3 86.5497 1189.3 83.6709C1189.3 80.7922 1186.96 78.4585 1184.07 78.4585C1181.18 78.4585 1178.84 80.7922 1178.84 83.6709C1178.84 86.5497 1181.18 88.8835 1184.07 88.8835Z" fill="url(#paint88_linear)"/>
</g>
<mask id="mask44" mask-type="alpha" maskUnits="userSpaceOnUse" x="1209" y="78" width="11" height="11">
<path d="M1214.35 88.8835C1217.24 88.8835 1219.58 86.5497 1219.58 83.6709C1219.58 80.7922 1217.24 78.4585 1214.35 78.4585C1211.47 78.4585 1209.12 80.7922 1209.12 83.6709C1209.12 86.5497 1211.47 88.8835 1214.35 88.8835Z" fill="url(#paint89_linear)"/>
</mask>
<g mask="url(#mask44)">
<path d="M1214.35 88.8835C1217.24 88.8835 1219.58 86.5497 1219.58 83.6709C1219.58 80.7922 1217.24 78.4585 1214.35 78.4585C1211.47 78.4585 1209.12 80.7922 1209.12 83.6709C1209.12 86.5497 1211.47 88.8835 1214.35 88.8835Z" fill="url(#paint90_linear)"/>
</g>
<mask id="mask45" mask-type="alpha" maskUnits="userSpaceOnUse" x="1088" y="104" width="11" height="11">
<path d="M1093.23 115C1096.12 115 1098.46 112.666 1098.46 109.787C1098.46 106.909 1096.12 104.575 1093.23 104.575C1090.34 104.575 1088 106.909 1088 109.787C1088 112.666 1090.34 115 1093.23 115Z" fill="url(#paint91_linear)"/>
</mask>
<g mask="url(#mask45)">
<path d="M1093.23 115C1096.12 115 1098.46 112.666 1098.46 109.787C1098.46 106.909 1096.12 104.575 1093.23 104.575C1090.34 104.575 1088 106.909 1088 109.787C1088 112.666 1090.34 115 1093.23 115Z" fill="url(#paint92_linear)"/>
</g>
<mask id="mask46" mask-type="alpha" maskUnits="userSpaceOnUse" x="1118" y="104" width="11" height="11">
<path d="M1123.51 115C1126.4 115 1128.74 112.666 1128.74 109.787C1128.74 106.909 1126.4 104.575 1123.51 104.575C1120.62 104.575 1118.28 106.909 1118.28 109.787C1118.28 112.666 1120.62 115 1123.51 115Z" fill="url(#paint93_linear)"/>
</mask>
<g mask="url(#mask46)">
<path d="M1123.51 115C1126.4 115 1128.74 112.666 1128.74 109.787C1128.74 106.909 1126.4 104.575 1123.51 104.575C1120.62 104.575 1118.28 106.909 1118.28 109.787C1118.28 112.666 1120.62 115 1123.51 115Z" fill="url(#paint94_linear)"/>
</g>
<mask id="mask47" mask-type="alpha" maskUnits="userSpaceOnUse" x="1148" y="104" width="12" height="11">
<path d="M1153.79 115C1156.68 115 1159.02 112.666 1159.02 109.787C1159.02 106.909 1156.68 104.575 1153.79 104.575C1150.9 104.575 1148.56 106.909 1148.56 109.787C1148.56 112.666 1150.9 115 1153.79 115Z" fill="url(#paint95_linear)"/>
</mask>
<g mask="url(#mask47)">
<path d="M1153.79 115C1156.68 115 1159.02 112.666 1159.02 109.787C1159.02 106.909 1156.68 104.575 1153.79 104.575C1150.9 104.575 1148.56 106.909 1148.56 109.787C1148.56 112.666 1150.9 115 1153.79 115Z" fill="url(#paint96_linear)"/>
</g>
<mask id="mask48" mask-type="alpha" maskUnits="userSpaceOnUse" x="1178" y="104" width="12" height="11">
<path d="M1184.07 115C1186.96 115 1189.3 112.666 1189.3 109.787C1189.3 106.909 1186.96 104.575 1184.07 104.575C1181.18 104.575 1178.84 106.909 1178.84 109.787C1178.84 112.666 1181.18 115 1184.07 115Z" fill="url(#paint97_linear)"/>
</mask>
<g mask="url(#mask48)">
<path d="M1184.07 115C1186.96 115 1189.3 112.666 1189.3 109.787C1189.3 106.909 1186.96 104.575 1184.07 104.575C1181.18 104.575 1178.84 106.909 1178.84 109.787C1178.84 112.666 1181.18 115 1184.07 115Z" fill="url(#paint98_linear)"/>
</g>
<mask id="mask49" mask-type="alpha" maskUnits="userSpaceOnUse" x="1209" y="104" width="11" height="11">
<path d="M1214.35 115C1217.24 115 1219.58 112.666 1219.58 109.787C1219.58 106.909 1217.24 104.575 1214.35 104.575C1211.47 104.575 1209.12 106.909 1209.12 109.787C1209.12 112.666 1211.47 115 1214.35 115Z" fill="url(#paint99_linear)"/>
</mask>
<g mask="url(#mask49)">
<path d="M1214.35 115C1217.24 115 1219.58 112.666 1219.58 109.787C1219.58 106.909 1217.24 104.575 1214.35 104.575C1211.47 104.575 1209.12 106.909 1209.12 109.787C1209.12 112.666 1211.47 115 1214.35 115Z" fill="url(#paint100_linear)"/>
</g>
</g>
<defs>
<linearGradient id="paint0_linear" x1="48.5142" y1="417.134" x2="-29.457" y2="242.001" gradientUnits="userSpaceOnUse">
<stop/>
<stop offset="1" stop-color="white"/>
</linearGradient>
<linearGradient id="paint1_linear" x1="48.5142" y1="417.134" x2="-29.457" y2="242.001" gradientUnits="userSpaceOnUse">
<stop stop-color="#97C3F9"/>
<stop offset="1" stop-color="#93C1F9"/>
</linearGradient>
<linearGradient id="paint2_linear" x1="71.6302" y1="406.843" x2="-6.34089" y2="231.71" gradientUnits="userSpaceOnUse">
<stop/>
<stop offset="1" stop-color="white"/>
</linearGradient>
<linearGradient id="paint3_linear" x1="71.6302" y1="406.843" x2="-6.34089" y2="231.71" gradientUnits="userSpaceOnUse">
<stop stop-color="#97C3F9"/>
<stop offset="1" stop-color="#93C1F9"/>
</linearGradient>
<linearGradient id="paint4_linear" x1="94.7461" y1="396.551" x2="16.7751" y2="221.419" gradientUnits="userSpaceOnUse">
<stop/>
<stop offset="1" stop-color="white"/>
</linearGradient>
<linearGradient id="paint5_linear" x1="94.7461" y1="396.551" x2="16.7751" y2="221.419" gradientUnits="userSpaceOnUse">
<stop stop-color="#97C3F9"/>
<stop offset="1" stop-color="#93C1F9"/>
</linearGradient>
<linearGradient id="paint6_linear" x1="117.862" y1="386.259" x2="39.8908" y2="211.127" gradientUnits="userSpaceOnUse">
<stop/>
<stop offset="1" stop-color="white"/>
</linearGradient>
<linearGradient id="paint7_linear" x1="117.862" y1="386.259" x2="39.8908" y2="211.127" gradientUnits="userSpaceOnUse">
<stop stop-color="#97C3F9"/>
<stop offset="1" stop-color="#93C1F9"/>
</linearGradient>
<linearGradient id="paint8_linear" x1="140.978" y1="375.968" x2="63.0067" y2="200.836" gradientUnits="userSpaceOnUse">
<stop/>
<stop offset="1" stop-color="white"/>
</linearGradient>
<linearGradient id="paint9_linear" x1="140.978" y1="375.968" x2="63.0067" y2="200.836" gradientUnits="userSpaceOnUse">
<stop stop-color="#97C3F9"/>
<stop offset="1" stop-color="#93C1F9"/>
</linearGradient>
<linearGradient id="paint10_linear" x1="40.6259" y1="420.645" x2="-37.344" y2="245.514" gradientUnits="userSpaceOnUse">
<stop/>
<stop offset="1" stop-color="white"/>
</linearGradient>
<linearGradient id="paint11_linear" x1="40.6259" y1="420.645" x2="-37.344" y2="245.514" gradientUnits="userSpaceOnUse">
<stop stop-color="#97C3F9"/>
<stop offset="1" stop-color="#93C1F9"/>
</linearGradient>
<linearGradient id="paint12_linear" x1="63.7418" y1="410.354" x2="-14.2281" y2="235.222" gradientUnits="userSpaceOnUse">
<stop/>
<stop offset="1" stop-color="white"/>
</linearGradient>
<linearGradient id="paint13_linear" x1="63.7418" y1="410.354" x2="-14.2281" y2="235.222" gradientUnits="userSpaceOnUse">
<stop stop-color="#97C3F9"/>
<stop offset="1" stop-color="#93C1F9"/>
</linearGradient>
<linearGradient id="paint14_linear" x1="86.8576" y1="400.062" x2="8.88781" y2="224.931" gradientUnits="userSpaceOnUse">
<stop/>
<stop offset="1" stop-color="white"/>
</linearGradient>
<linearGradient id="paint15_linear" x1="86.8576" y1="400.062" x2="8.88781" y2="224.931" gradientUnits="userSpaceOnUse">
<stop stop-color="#97C3F9"/>
<stop offset="1" stop-color="#93C1F9"/>
</linearGradient>
<linearGradient id="paint16_linear" x1="109.974" y1="389.771" x2="32.0037" y2="214.639" gradientUnits="userSpaceOnUse">
<stop/>
<stop offset="1" stop-color="white"/>
</linearGradient>
<linearGradient id="paint17_linear" x1="109.974" y1="389.771" x2="32.0037" y2="214.639" gradientUnits="userSpaceOnUse">
<stop stop-color="#97C3F9"/>
<stop offset="1" stop-color="#93C1F9"/>
</linearGradient>
<linearGradient id="paint18_linear" x1="133.089" y1="379.479" x2="55.1196" y2="204.348" gradientUnits="userSpaceOnUse">
<stop/>
<stop offset="1" stop-color="white"/>
</linearGradient>
<linearGradient id="paint19_linear" x1="133.089" y1="379.479" x2="55.1196" y2="204.348" gradientUnits="userSpaceOnUse">
<stop stop-color="#97C3F9"/>
<stop offset="1" stop-color="#93C1F9"/>
</linearGradient>
<linearGradient id="paint20_linear" x1="32.7374" y1="424.158" x2="-45.2338" y2="249.026" gradientUnits="userSpaceOnUse">
<stop/>
<stop offset="1" stop-color="white"/>
</linearGradient>
<linearGradient id="paint21_linear" x1="32.7374" y1="424.158" x2="-45.2338" y2="249.026" gradientUnits="userSpaceOnUse">
<stop stop-color="#97C3F9"/>
<stop offset="1" stop-color="#93C1F9"/>
</linearGradient>
<linearGradient id="paint22_linear" x1="55.8534" y1="413.867" x2="-22.1178" y2="238.734" gradientUnits="userSpaceOnUse">
<stop/>
<stop offset="1" stop-color="white"/>
</linearGradient>
<linearGradient id="paint23_linear" x1="55.8534" y1="413.867" x2="-22.1178" y2="238.734" gradientUnits="userSpaceOnUse">
<stop stop-color="#97C3F9"/>
<stop offset="1" stop-color="#93C1F9"/>
</linearGradient>
<linearGradient id="paint24_linear" x1="78.9692" y1="403.575" x2="0.998125" y2="228.443" gradientUnits="userSpaceOnUse">
<stop/>
<stop offset="1" stop-color="white"/>
</linearGradient>
<linearGradient id="paint25_linear" x1="78.9692" y1="403.575" x2="0.998125" y2="228.443" gradientUnits="userSpaceOnUse">
<stop stop-color="#97C3F9"/>
<stop offset="1" stop-color="#93C1F9"/>
</linearGradient>
<linearGradient id="paint26_linear" x1="102.085" y1="393.283" x2="24.1139" y2="218.151" gradientUnits="userSpaceOnUse">
<stop/>
<stop offset="1" stop-color="white"/>
</linearGradient>
<linearGradient id="paint27_linear" x1="102.085" y1="393.283" x2="24.1139" y2="218.151" gradientUnits="userSpaceOnUse">
<stop stop-color="#97C3F9"/>
<stop offset="1" stop-color="#93C1F9"/>
</linearGradient>
<linearGradient id="paint28_linear" x1="125.201" y1="382.992" x2="47.2298" y2="207.86" gradientUnits="userSpaceOnUse">
<stop/>
<stop offset="1" stop-color="white"/>
</linearGradient>
<linearGradient id="paint29_linear" x1="125.201" y1="382.992" x2="47.2298" y2="207.86" gradientUnits="userSpaceOnUse">
<stop stop-color="#97C3F9"/>
<stop offset="1" stop-color="#93C1F9"/>
</linearGradient>
<linearGradient id="paint30_linear" x1="24.849" y1="427.67" x2="-53.1222" y2="252.538" gradientUnits="userSpaceOnUse">
<stop/>
<stop offset="1" stop-color="white"/>
</linearGradient>
<linearGradient id="paint31_linear" x1="24.849" y1="427.67" x2="-53.1222" y2="252.538" gradientUnits="userSpaceOnUse">
<stop stop-color="#97C3F9"/>
<stop offset="1" stop-color="#93C1F9"/>
</linearGradient>
<linearGradient id="paint32_linear" x1="47.965" y1="417.379" x2="-30.0062" y2="242.246" gradientUnits="userSpaceOnUse">
<stop/>
<stop offset="1" stop-color="white"/>
</linearGradient>
<linearGradient id="paint33_linear" x1="47.965" y1="417.379" x2="-30.0062" y2="242.246" gradientUnits="userSpaceOnUse">
<stop stop-color="#97C3F9"/>
<stop offset="1" stop-color="#93C1F9"/>
</linearGradient>
<linearGradient id="paint34_linear" x1="71.0808" y1="407.087" x2="-6.89032" y2="231.955" gradientUnits="userSpaceOnUse">
<stop/>
<stop offset="1" stop-color="white"/>
</linearGradient>
<linearGradient id="paint35_linear" x1="71.0808" y1="407.087" x2="-6.89032" y2="231.955" gradientUnits="userSpaceOnUse">
<stop stop-color="#97C3F9"/>
<stop offset="1" stop-color="#93C1F9"/>
</linearGradient>
<linearGradient id="paint36_linear" x1="94.1967" y1="396.796" x2="16.2255" y2="221.663" gradientUnits="userSpaceOnUse">
<stop/>
<stop offset="1" stop-color="white"/>
</linearGradient>
<linearGradient id="paint37_linear" x1="94.1967" y1="396.796" x2="16.2255" y2="221.663" gradientUnits="userSpaceOnUse">
<stop stop-color="#97C3F9"/>
<stop offset="1" stop-color="#93C1F9"/>
</linearGradient>
<linearGradient id="paint38_linear" x1="117.313" y1="386.504" x2="39.3414" y2="211.372" gradientUnits="userSpaceOnUse">
<stop/>
<stop offset="1" stop-color="white"/>
</linearGradient>
<linearGradient id="paint39_linear" x1="117.313" y1="386.504" x2="39.3414" y2="211.372" gradientUnits="userSpaceOnUse">
<stop stop-color="#97C3F9"/>
<stop offset="1" stop-color="#93C1F9"/>
</linearGradient>
<linearGradient id="paint40_linear" x1="16.9605" y1="431.182" x2="-61.0106" y2="256.05" gradientUnits="userSpaceOnUse">
<stop/>
<stop offset="1" stop-color="white"/>
</linearGradient>
<linearGradient id="paint41_linear" x1="16.9605" y1="431.182" x2="-61.0106" y2="256.05" gradientUnits="userSpaceOnUse">
<stop stop-color="#97C3F9"/>
<stop offset="1" stop-color="#93C1F9"/>
</linearGradient>
<linearGradient id="paint42_linear" x1="40.0765" y1="420.89" x2="-37.8946" y2="245.758" gradientUnits="userSpaceOnUse">
<stop/>
<stop offset="1" stop-color="white"/>
</linearGradient>
<linearGradient id="paint43_linear" x1="40.0765" y1="420.89" x2="-37.8946" y2="245.758" gradientUnits="userSpaceOnUse">
<stop stop-color="#97C3F9"/>
<stop offset="1" stop-color="#93C1F9"/>
</linearGradient>
<linearGradient id="paint44_linear" x1="63.1924" y1="410.599" x2="-14.7787" y2="235.467" gradientUnits="userSpaceOnUse">
<stop/>
<stop offset="1" stop-color="white"/>
</linearGradient>
<linearGradient id="paint45_linear" x1="63.1924" y1="410.599" x2="-14.7787" y2="235.467" gradientUnits="userSpaceOnUse">
<stop stop-color="#97C3F9"/>
<stop offset="1" stop-color="#93C1F9"/>
</linearGradient>
<linearGradient id="paint46_linear" x1="86.3083" y1="400.307" x2="8.33713" y2="225.175" gradientUnits="userSpaceOnUse">
<stop/>
<stop offset="1" stop-color="white"/>
</linearGradient>
<linearGradient id="paint47_linear" x1="86.3083" y1="400.307" x2="8.33713" y2="225.175" gradientUnits="userSpaceOnUse">
<stop stop-color="#97C3F9"/>
<stop offset="1" stop-color="#93C1F9"/>
</linearGradient>
<linearGradient id="paint48_linear" x1="109.424" y1="390.016" x2="31.453" y2="214.884" gradientUnits="userSpaceOnUse">
<stop/>
<stop offset="1" stop-color="white"/>
</linearGradient>
<linearGradient id="paint49_linear" x1="109.424" y1="390.016" x2="31.453" y2="214.884" gradientUnits="userSpaceOnUse">
<stop stop-color="#97C3F9"/>
<stop offset="1" stop-color="#93C1F9"/>
</linearGradient>
<linearGradient id="paint50_linear" x1="1052.82" y1="49.8468" x2="966.548" y2="474.132" gradientUnits="userSpaceOnUse">
<stop stop-color="#67C3F3"/>
<stop offset="1" stop-color="#5A98F2"/>
</linearGradient>
<linearGradient id="paint51_linear" x1="1143" y1="131.134" x2="1071.59" y2="-50.67" gradientUnits="userSpaceOnUse">
<stop stop-color="white"/>
<stop offset="1" stop-color="white"/>
</linearGradient>
<linearGradient id="paint52_linear" x1="1143" y1="131.134" x2="1071.59" y2="-50.67" gradientUnits="userSpaceOnUse">
<stop stop-color="white"/>
<stop offset="1" stop-color="white"/>
</linearGradient>
<linearGradient id="paint53_linear" x1="1173.28" y1="131.134" x2="1101.88" y2="-50.67" gradientUnits="userSpaceOnUse">
<stop stop-color="white"/>
<stop offset="1" stop-color="white"/>
</linearGradient>
<linearGradient id="paint54_linear" x1="1173.28" y1="131.134" x2="1101.88" y2="-50.67" gradientUnits="userSpaceOnUse">
<stop stop-color="white"/>
<stop offset="1" stop-color="white"/>
</linearGradient>
<linearGradient id="paint55_linear" x1="1203.56" y1="131.134" x2="1132.16" y2="-50.67" gradientUnits="userSpaceOnUse">
<stop stop-color="white"/>
<stop offset="1" stop-color="white"/>
</linearGradient>
<linearGradient id="paint56_linear" x1="1203.56" y1="131.134" x2="1132.16" y2="-50.67" gradientUnits="userSpaceOnUse">
<stop stop-color="white"/>
<stop offset="1" stop-color="white"/>
</linearGradient>
<linearGradient id="paint57_linear" x1="1233.84" y1="131.134" x2="1162.44" y2="-50.67" gradientUnits="userSpaceOnUse">
<stop stop-color="white"/>
<stop offset="1" stop-color="white"/>
</linearGradient>
<linearGradient id="paint58_linear" x1="1233.84" y1="131.134" x2="1162.44" y2="-50.67" gradientUnits="userSpaceOnUse">
<stop stop-color="white"/>
<stop offset="1" stop-color="white"/>
</linearGradient>
<linearGradient id="paint59_linear" x1="1264.12" y1="131.134" x2="1192.72" y2="-50.67" gradientUnits="userSpaceOnUse">
<stop stop-color="white"/>
<stop offset="1" stop-color="white"/>
</linearGradient>
<linearGradient id="paint60_linear" x1="1264.12" y1="131.134" x2="1192.72" y2="-50.67" gradientUnits="userSpaceOnUse">
<stop stop-color="white"/>
<stop offset="1" stop-color="white"/>
</linearGradient>
<linearGradient id="paint61_linear" x1="1143" y1="157.303" x2="1071.6" y2="-24.4991" gradientUnits="userSpaceOnUse">
<stop stop-color="white"/>
<stop offset="1" stop-color="white"/>
</linearGradient>
<linearGradient id="paint62_linear" x1="1143" y1="157.303" x2="1071.6" y2="-24.4991" gradientUnits="userSpaceOnUse">
<stop stop-color="white"/>
<stop offset="1" stop-color="white"/>
</linearGradient>
<linearGradient id="paint63_linear" x1="1173.28" y1="157.303" x2="1101.88" y2="-24.4991" gradientUnits="userSpaceOnUse">
<stop stop-color="white"/>
<stop offset="1" stop-color="white"/>
</linearGradient>
<linearGradient id="paint64_linear" x1="1173.28" y1="157.303" x2="1101.88" y2="-24.4991" gradientUnits="userSpaceOnUse">
<stop stop-color="white"/>
<stop offset="1" stop-color="white"/>
</linearGradient>
<linearGradient id="paint65_linear" x1="1203.56" y1="157.303" x2="1132.16" y2="-24.4991" gradientUnits="userSpaceOnUse">
<stop stop-color="white"/>
<stop offset="1" stop-color="white"/>
</linearGradient>
<linearGradient id="paint66_linear" x1="1203.56" y1="157.303" x2="1132.16" y2="-24.4991" gradientUnits="userSpaceOnUse">
<stop stop-color="white"/>
<stop offset="1" stop-color="white"/>
</linearGradient>
<linearGradient id="paint67_linear" x1="1233.84" y1="157.303" x2="1162.44" y2="-24.4991" gradientUnits="userSpaceOnUse">
<stop stop-color="white"/>
<stop offset="1" stop-color="white"/>
</linearGradient>
<linearGradient id="paint68_linear" x1="1233.84" y1="157.303" x2="1162.44" y2="-24.4991" gradientUnits="userSpaceOnUse">
<stop stop-color="white"/>
<stop offset="1" stop-color="white"/>
</linearGradient>
<linearGradient id="paint69_linear" x1="1264.12" y1="157.303" x2="1192.72" y2="-24.4991" gradientUnits="userSpaceOnUse">
<stop stop-color="white"/>
<stop offset="1" stop-color="white"/>
</linearGradient>
<linearGradient id="paint70_linear" x1="1264.12" y1="157.303" x2="1192.72" y2="-24.4991" gradientUnits="userSpaceOnUse">
<stop stop-color="white"/>
<stop offset="1" stop-color="white"/>
</linearGradient>
<linearGradient id="paint71_linear" x1="1143" y1="183.421" x2="1071.59" y2="1.61761" gradientUnits="userSpaceOnUse">
<stop stop-color="white"/>
<stop offset="1" stop-color="white"/>
</linearGradient>
<linearGradient id="paint72_linear" x1="1143" y1="183.421" x2="1071.59" y2="1.61761" gradientUnits="userSpaceOnUse">
<stop stop-color="white"/>
<stop offset="1" stop-color="white"/>
</linearGradient>
<linearGradient id="paint73_linear" x1="1173.28" y1="183.421" x2="1101.88" y2="1.61756" gradientUnits="userSpaceOnUse">
<stop stop-color="white"/>
<stop offset="1" stop-color="white"/>
</linearGradient>
<linearGradient id="paint74_linear" x1="1173.28" y1="183.421" x2="1101.88" y2="1.61756" gradientUnits="userSpaceOnUse">
<stop stop-color="white"/>
<stop offset="1" stop-color="white"/>
</linearGradient>
<linearGradient id="paint75_linear" x1="1203.56" y1="183.421" x2="1132.16" y2="1.61756" gradientUnits="userSpaceOnUse">
<stop stop-color="white"/>
<stop offset="1" stop-color="white"/>
</linearGradient>
<linearGradient id="paint76_linear" x1="1203.56" y1="183.421" x2="1132.16" y2="1.61756" gradientUnits="userSpaceOnUse">
<stop stop-color="white"/>
<stop offset="1" stop-color="white"/>
</linearGradient>
<linearGradient id="paint77_linear" x1="1233.84" y1="183.421" x2="1162.44" y2="1.61756" gradientUnits="userSpaceOnUse">
<stop stop-color="white"/>
<stop offset="1" stop-color="white"/>
</linearGradient>
<linearGradient id="paint78_linear" x1="1233.84" y1="183.421" x2="1162.44" y2="1.61756" gradientUnits="userSpaceOnUse">
<stop stop-color="white"/>
<stop offset="1" stop-color="white"/>
</linearGradient>
<linearGradient id="paint79_linear" x1="1264.12" y1="183.421" x2="1192.72" y2="1.61756" gradientUnits="userSpaceOnUse">
<stop stop-color="white"/>
<stop offset="1" stop-color="white"/>
</linearGradient>
<linearGradient id="paint80_linear" x1="1264.12" y1="183.421" x2="1192.72" y2="1.61756" gradientUnits="userSpaceOnUse">
<stop stop-color="white"/>
<stop offset="1" stop-color="white"/>
</linearGradient>
<linearGradient id="paint81_linear" x1="1143" y1="209.592" x2="1071.59" y2="27.7885" gradientUnits="userSpaceOnUse">
<stop stop-color="white"/>
<stop offset="1" stop-color="white"/>
</linearGradient>
<linearGradient id="paint82_linear" x1="1143" y1="209.592" x2="1071.59" y2="27.7885" gradientUnits="userSpaceOnUse">
<stop stop-color="white"/>
<stop offset="1" stop-color="white"/>
</linearGradient>
<linearGradient id="paint83_linear" x1="1173.28" y1="209.592" x2="1101.88" y2="27.7885" gradientUnits="userSpaceOnUse">
<stop stop-color="white"/>
<stop offset="1" stop-color="white"/>
</linearGradient>
<linearGradient id="paint84_linear" x1="1173.28" y1="209.592" x2="1101.88" y2="27.7885" gradientUnits="userSpaceOnUse">
<stop stop-color="white"/>
<stop offset="1" stop-color="white"/>
</linearGradient>
<linearGradient id="paint85_linear" x1="1203.56" y1="209.592" x2="1132.16" y2="27.7885" gradientUnits="userSpaceOnUse">
<stop stop-color="white"/>
<stop offset="1" stop-color="white"/>
</linearGradient>
<linearGradient id="paint86_linear" x1="1203.56" y1="209.592" x2="1132.16" y2="27.7885" gradientUnits="userSpaceOnUse">
<stop stop-color="white"/>
<stop offset="1" stop-color="white"/>
</linearGradient>
<linearGradient id="paint87_linear" x1="1233.84" y1="209.592" x2="1162.44" y2="27.7885" gradientUnits="userSpaceOnUse">
<stop stop-color="white"/>
<stop offset="1" stop-color="white"/>
</linearGradient>
<linearGradient id="paint88_linear" x1="1233.84" y1="209.592" x2="1162.44" y2="27.7885" gradientUnits="userSpaceOnUse">
<stop stop-color="white"/>
<stop offset="1" stop-color="white"/>
</linearGradient>
<linearGradient id="paint89_linear" x1="1264.12" y1="209.592" x2="1192.72" y2="27.7885" gradientUnits="userSpaceOnUse">
<stop stop-color="white"/>
<stop offset="1" stop-color="white"/>
</linearGradient>
<linearGradient id="paint90_linear" x1="1264.12" y1="209.592" x2="1192.72" y2="27.7885" gradientUnits="userSpaceOnUse">
<stop stop-color="white"/>
<stop offset="1" stop-color="white"/>
</linearGradient>
<linearGradient id="paint91_linear" x1="1143" y1="235.709" x2="1071.59" y2="53.905" gradientUnits="userSpaceOnUse">
<stop stop-color="white"/>
<stop offset="1" stop-color="white"/>
</linearGradient>
<linearGradient id="paint92_linear" x1="1143" y1="235.709" x2="1071.59" y2="53.905" gradientUnits="userSpaceOnUse">
<stop stop-color="white"/>
<stop offset="1" stop-color="white"/>
</linearGradient>
<linearGradient id="paint93_linear" x1="1173.28" y1="235.709" x2="1101.88" y2="53.9049" gradientUnits="userSpaceOnUse">
<stop stop-color="white"/>
<stop offset="1" stop-color="white"/>
</linearGradient>
<linearGradient id="paint94_linear" x1="1173.28" y1="235.709" x2="1101.88" y2="53.9049" gradientUnits="userSpaceOnUse">
<stop stop-color="white"/>
<stop offset="1" stop-color="white"/>
</linearGradient>
<linearGradient id="paint95_linear" x1="1203.56" y1="235.709" x2="1132.16" y2="53.9049" gradientUnits="userSpaceOnUse">
<stop stop-color="white"/>
<stop offset="1" stop-color="white"/>
</linearGradient>
<linearGradient id="paint96_linear" x1="1203.56" y1="235.709" x2="1132.16" y2="53.9049" gradientUnits="userSpaceOnUse">
<stop stop-color="white"/>
<stop offset="1" stop-color="white"/>
</linearGradient>
<linearGradient id="paint97_linear" x1="1233.84" y1="235.709" x2="1162.44" y2="53.9049" gradientUnits="userSpaceOnUse">
<stop stop-color="white"/>
<stop offset="1" stop-color="white"/>
</linearGradient>
<linearGradient id="paint98_linear" x1="1233.84" y1="235.709" x2="1162.44" y2="53.9049" gradientUnits="userSpaceOnUse">
<stop stop-color="white"/>
<stop offset="1" stop-color="white"/>
</linearGradient>
<linearGradient id="paint99_linear" x1="1264.12" y1="235.709" x2="1192.72" y2="53.9049" gradientUnits="userSpaceOnUse">
<stop stop-color="white"/>
<stop offset="1" stop-color="white"/>
</linearGradient>
<linearGradient id="paint100_linear" x1="1264.12" y1="235.709" x2="1192.72" y2="53.9049" gradientUnits="userSpaceOnUse">
<stop stop-color="white"/>
<stop offset="1" stop-color="white"/>
</linearGradient>
</defs>
</svg>
