<svg width="23" height="23" viewBox="0 0 23 23" fill="none" xmlns="http://www.w3.org/2000/svg">
<path fill-rule="evenodd" clip-rule="evenodd" d="M21.1348 6.97992C21.4163 7.64393 21.6316 8.3339 21.7776 9.03988C22.0745 10.496 22.0745 11.9967 21.7776 13.4528C21.488 14.8551 20.925 16.1872 20.1204 17.3735C19.7257 17.9549 19.2766 18.4975 18.7789 18.9943C18.2796 19.4897 17.7343 19.937 17.1504 20.3301C16.562 20.7262 15.9364 21.0645 15.2823 21.34C14.6175 21.6211 13.9217 21.8355 13.2148 21.9784C12.4907 22.1275 11.7456 22.2023 11.0005 22.2023C10.2544 22.2023 9.50923 22.1275 8.78467 21.9779C8.07828 21.835 7.38241 21.6216 6.71763 21.3405C5.4114 20.7898 4.22416 19.9932 3.22106 18.9943C2.72374 18.497 2.27458 17.9543 1.87954 17.3731C1.48137 16.7866 1.14178 16.1627 0.865625 15.5103C0.290758 14.1613 -0.00371816 12.7102 -2.67555e-05 11.2447C-0.00333116 9.06155 0.651457 6.92775 1.87954 5.11958C3.07286 3.35818 4.75345 1.97935 6.71763 1.15022C8.07328 0.581368 9.52942 0.288197 11.0005 0.287933C12.4712 0.287749 13.9271 0.580773 15.2823 1.14974C15.9364 1.42581 16.5621 1.76453 17.1504 2.16114C18.3221 2.94798 19.3305 3.95246 20.1204 5.11958C20.5187 5.7052 20.8585 6.32829 21.1348 6.97992ZM17.2044 4.22403L17.2045 4.22395C15.5501 2.77188 13.3784 1.88816 11.0005 1.88816C10.2544 1.88825 9.51108 1.97685 8.7861 2.15209C8.92719 2.33741 10.6915 4.67224 12.297 7.61115C15.8413 6.28913 17.1796 4.26161 17.2044 4.22403ZM8.74976 2.15971L8.7497 2.1602C8.74245 2.16283 8.73588 2.16409 8.72904 2.16541L8.71963 2.16733L8.74832 2.16257C8.74832 2.16257 8.74944 2.16145 8.7497 2.1602L8.74976 2.16019V2.15971ZM10.4806 8.17426C8.8545 5.29585 7.11745 2.94958 6.99167 2.78379C4.3708 4.01529 2.41663 6.41825 1.80732 9.31714C2.0541 9.32095 5.9701 9.36859 10.4806 8.17426ZM1.60549 11.2447C1.60549 11.1734 1.60794 11.1032 1.61039 11.033C1.61136 11.0051 1.61233 10.9772 1.61315 10.9493C1.78006 10.9531 6.4211 11.0579 11.2582 9.61584C11.527 10.1399 11.7843 10.6749 12.0201 11.207C11.8958 11.2404 11.7728 11.278 11.6499 11.3195C6.58036 12.9502 4.00876 17.4936 4.00876 17.4936C4.00876 17.4936 4.01258 17.4969 4.01258 17.4984C2.46024 15.783 1.60246 13.5546 1.60549 11.2451V11.2447ZM14.421 12.3227C15.6535 15.6947 16.1542 18.4416 16.2498 19.0057C18.3585 17.5874 19.8578 15.3388 20.2758 12.7315C20.0817 12.6681 17.4541 11.8397 14.421 12.3227ZM5.01502 18.4583C6.6411 19.7984 8.72632 20.6035 11.0005 20.6035C12.3004 20.6035 13.5415 20.3377 14.6678 19.8613C14.5281 19.0433 13.9838 16.1778 12.6615 12.7572L12.6409 12.7631C12.6266 12.7671 12.6122 12.7712 12.5983 12.7763C7.02658 14.7105 5.22593 18.6217 5.22593 18.6217C5.22593 18.6217 5.13936 18.5583 5.01502 18.4583ZM20.3921 11.1518C20.2562 11.1222 17.0768 10.4405 13.8495 10.845C13.8258 10.7889 13.8022 10.7327 13.7786 10.6764L13.7785 10.6761L13.7784 10.6758C13.7348 10.5719 13.6911 10.4676 13.6462 10.3633C13.4499 9.9053 13.2415 9.45256 13.0211 9.00558C16.6913 7.51246 18.2046 5.37402 18.2541 5.30406L18.2552 5.30252C19.6194 6.95073 20.3737 9.0157 20.3921 11.1518Z" fill="#EC4989"/>
</svg>
