<svg width="1593" height="177" viewBox="0 0 1593 177" fill="none" xmlns="http://www.w3.org/2000/svg">
<g opacity="0.3">
<mask id="mask0" mask-type="alpha" maskUnits="userSpaceOnUse" x="1480" y="0" width="14" height="10">
<path d="M1486.97 9.7904C1490.43 9.7904 1493.24 7.5987 1493.24 4.89517C1493.24 2.19163 1490.43 0 1486.97 0C1483.5 0 1480.69 2.19163 1480.69 4.89517C1480.69 7.5987 1483.5 9.7904 1486.97 9.7904Z" fill="url(#paint0_linear)"/>
</mask>
<g mask="url(#mask0)">
<path d="M1486.97 9.7904C1490.43 9.7904 1493.24 7.5987 1493.24 4.89517C1493.24 2.19163 1490.43 0 1486.97 0C1483.5 0 1480.69 2.19163 1480.69 4.89517C1480.69 7.5987 1483.5 9.7904 1486.97 9.7904Z" fill="url(#paint1_linear)"/>
</g>
<mask id="mask1" mask-type="alpha" maskUnits="userSpaceOnUse" x="1517" y="0" width="13" height="10">
<path d="M1523.3 9.7904C1526.77 9.7904 1529.58 7.5987 1529.58 4.89517C1529.58 2.19163 1526.77 0 1523.3 0C1519.84 0 1517.03 2.19163 1517.03 4.89517C1517.03 7.5987 1519.84 9.7904 1523.3 9.7904Z" fill="url(#paint2_linear)"/>
</mask>
<g mask="url(#mask1)">
<path d="M1523.3 9.7904C1526.77 9.7904 1529.58 7.5987 1529.58 4.89517C1529.58 2.19163 1526.77 0 1523.3 0C1519.84 0 1517.03 2.19163 1517.03 4.89517C1517.03 7.5987 1519.84 9.7904 1523.3 9.7904Z" fill="url(#paint3_linear)"/>
</g>
<mask id="mask2" mask-type="alpha" maskUnits="userSpaceOnUse" x="1553" y="0" width="13" height="10">
<path d="M1559.64 9.7904C1563.1 9.7904 1565.91 7.5987 1565.91 4.89517C1565.91 2.19163 1563.1 0 1559.64 0C1556.17 0 1553.36 2.19163 1553.36 4.89517C1553.36 7.5987 1556.17 9.7904 1559.64 9.7904Z" fill="url(#paint4_linear)"/>
</mask>
<g mask="url(#mask2)">
<path d="M1559.64 9.7904C1563.1 9.7904 1565.91 7.5987 1565.91 4.89517C1565.91 2.19163 1563.1 0 1559.64 0C1556.17 0 1553.36 2.19163 1553.36 4.89517C1553.36 7.5987 1556.17 9.7904 1559.64 9.7904Z" fill="url(#paint5_linear)"/>
</g>
<mask id="mask3" mask-type="alpha" maskUnits="userSpaceOnUse" x="1589" y="0" width="14" height="10">
<path d="M1595.97 9.7904C1599.44 9.7904 1602.25 7.5987 1602.25 4.89517C1602.25 2.19163 1599.44 0 1595.97 0C1592.51 0 1589.7 2.19163 1589.7 4.89517C1589.7 7.5987 1592.51 9.7904 1595.97 9.7904Z" fill="url(#paint6_linear)"/>
</mask>
<g mask="url(#mask3)">
<path d="M1595.97 9.7904C1599.44 9.7904 1602.25 7.5987 1602.25 4.89517C1602.25 2.19163 1599.44 0 1595.97 0C1592.51 0 1589.7 2.19163 1589.7 4.89517C1589.7 7.5987 1592.51 9.7904 1595.97 9.7904Z" fill="url(#paint7_linear)"/>
</g>
<mask id="mask4" mask-type="alpha" maskUnits="userSpaceOnUse" x="1480" y="24" width="14" height="11">
<path d="M1486.97 34.3679C1490.43 34.3679 1493.24 32.1763 1493.24 29.4728C1493.24 26.7693 1490.43 24.5776 1486.97 24.5776C1483.5 24.5776 1480.69 26.7693 1480.69 29.4728C1480.69 32.1763 1483.5 34.3679 1486.97 34.3679Z" fill="url(#paint8_linear)"/>
</mask>
<g mask="url(#mask4)">
<path d="M1486.97 34.3679C1490.43 34.3679 1493.24 32.1763 1493.24 29.4728C1493.24 26.7693 1490.43 24.5776 1486.97 24.5776C1483.5 24.5776 1480.69 26.7693 1480.69 29.4728C1480.69 32.1763 1483.5 34.3679 1486.97 34.3679Z" fill="url(#paint9_linear)"/>
</g>
<mask id="mask5" mask-type="alpha" maskUnits="userSpaceOnUse" x="1517" y="24" width="13" height="11">
<path d="M1523.3 34.3679C1526.77 34.3679 1529.58 32.1763 1529.58 29.4728C1529.58 26.7693 1526.77 24.5776 1523.3 24.5776C1519.84 24.5776 1517.03 26.7693 1517.03 29.4728C1517.03 32.1763 1519.84 34.3679 1523.3 34.3679Z" fill="url(#paint10_linear)"/>
</mask>
<g mask="url(#mask5)">
<path d="M1523.3 34.3679C1526.77 34.3679 1529.58 32.1763 1529.58 29.4728C1529.58 26.7693 1526.77 24.5776 1523.3 24.5776C1519.84 24.5776 1517.03 26.7693 1517.03 29.4728C1517.03 32.1763 1519.84 34.3679 1523.3 34.3679Z" fill="url(#paint11_linear)"/>
</g>
<mask id="mask6" mask-type="alpha" maskUnits="userSpaceOnUse" x="1553" y="24" width="13" height="11">
<path d="M1559.64 34.3679C1563.1 34.3679 1565.91 32.1763 1565.91 29.4728C1565.91 26.7693 1563.1 24.5776 1559.64 24.5776C1556.17 24.5776 1553.36 26.7693 1553.36 29.4728C1553.36 32.1763 1556.17 34.3679 1559.64 34.3679Z" fill="url(#paint12_linear)"/>
</mask>
<g mask="url(#mask6)">
<path d="M1559.64 34.3679C1563.1 34.3679 1565.91 32.1763 1565.91 29.4728C1565.91 26.7693 1563.1 24.5776 1559.64 24.5776C1556.17 24.5776 1553.36 26.7693 1553.36 29.4728C1553.36 32.1763 1556.17 34.3679 1559.64 34.3679Z" fill="url(#paint13_linear)"/>
</g>
<mask id="mask7" mask-type="alpha" maskUnits="userSpaceOnUse" x="1589" y="24" width="14" height="11">
<path d="M1595.97 34.3679C1599.44 34.3679 1602.25 32.1763 1602.25 29.4728C1602.25 26.7693 1599.44 24.5776 1595.97 24.5776C1592.51 24.5776 1589.7 26.7693 1589.7 29.4728C1589.7 32.1763 1592.51 34.3679 1595.97 34.3679Z" fill="url(#paint14_linear)"/>
</mask>
<g mask="url(#mask7)">
<path d="M1595.97 34.3679C1599.44 34.3679 1602.25 32.1763 1602.25 29.4728C1602.25 26.7693 1599.44 24.5776 1595.97 24.5776C1592.51 24.5776 1589.7 26.7693 1589.7 29.4728C1589.7 32.1763 1592.51 34.3679 1595.97 34.3679Z" fill="url(#paint15_linear)"/>
</g>
<mask id="mask8" mask-type="alpha" maskUnits="userSpaceOnUse" x="1480" y="49" width="14" height="10">
<path d="M1486.97 58.8951C1490.43 58.8951 1493.24 56.7035 1493.24 53.9999C1493.24 51.2964 1490.43 49.1047 1486.97 49.1047C1483.5 49.1047 1480.69 51.2964 1480.69 53.9999C1480.69 56.7035 1483.5 58.8951 1486.97 58.8951Z" fill="url(#paint16_linear)"/>
</mask>
<g mask="url(#mask8)">
<path d="M1486.97 58.8951C1490.43 58.8951 1493.24 56.7035 1493.24 53.9999C1493.24 51.2964 1490.43 49.1047 1486.97 49.1047C1483.5 49.1047 1480.69 51.2964 1480.69 53.9999C1480.69 56.7035 1483.5 58.8951 1486.97 58.8951Z" fill="url(#paint17_linear)"/>
</g>
<mask id="mask9" mask-type="alpha" maskUnits="userSpaceOnUse" x="1517" y="49" width="13" height="10">
<path d="M1523.3 58.8951C1526.77 58.8951 1529.58 56.7035 1529.58 53.9999C1529.58 51.2964 1526.77 49.1047 1523.3 49.1047C1519.84 49.1047 1517.03 51.2964 1517.03 53.9999C1517.03 56.7035 1519.84 58.8951 1523.3 58.8951Z" fill="url(#paint18_linear)"/>
</mask>
<g mask="url(#mask9)">
<path d="M1523.3 58.8951C1526.77 58.8951 1529.58 56.7035 1529.58 53.9999C1529.58 51.2964 1526.77 49.1047 1523.3 49.1047C1519.84 49.1047 1517.03 51.2964 1517.03 53.9999C1517.03 56.7035 1519.84 58.8951 1523.3 58.8951Z" fill="url(#paint19_linear)"/>
</g>
<mask id="mask10" mask-type="alpha" maskUnits="userSpaceOnUse" x="1553" y="49" width="13" height="10">
<path d="M1559.64 58.8951C1563.1 58.8951 1565.91 56.7035 1565.91 53.9999C1565.91 51.2964 1563.1 49.1047 1559.64 49.1047C1556.17 49.1047 1553.36 51.2964 1553.36 53.9999C1553.36 56.7035 1556.17 58.8951 1559.64 58.8951Z" fill="url(#paint20_linear)"/>
</mask>
<g mask="url(#mask10)">
<path d="M1559.64 58.8951C1563.1 58.8951 1565.91 56.7035 1565.91 53.9999C1565.91 51.2964 1563.1 49.1047 1559.64 49.1047C1556.17 49.1047 1553.36 51.2964 1553.36 53.9999C1553.36 56.7035 1556.17 58.8951 1559.64 58.8951Z" fill="url(#paint21_linear)"/>
</g>
<mask id="mask11" mask-type="alpha" maskUnits="userSpaceOnUse" x="1589" y="49" width="14" height="10">
<path d="M1595.97 58.8951C1599.44 58.8951 1602.25 56.7035 1602.25 53.9999C1602.25 51.2964 1599.44 49.1047 1595.97 49.1047C1592.51 49.1047 1589.7 51.2964 1589.7 53.9999C1589.7 56.7035 1592.51 58.8951 1595.97 58.8951Z" fill="url(#paint22_linear)"/>
</mask>
<g mask="url(#mask11)">
<path d="M1595.97 58.8951C1599.44 58.8951 1602.25 56.7035 1602.25 53.9999C1602.25 51.2964 1599.44 49.1047 1595.97 49.1047C1592.51 49.1047 1589.7 51.2964 1589.7 53.9999C1589.7 56.7035 1592.51 58.8951 1595.97 58.8951Z" fill="url(#paint23_linear)"/>
</g>
<mask id="mask12" mask-type="alpha" maskUnits="userSpaceOnUse" x="1480" y="73" width="14" height="11">
<path d="M1486.97 83.473C1490.43 83.473 1493.24 81.2813 1493.24 78.5778C1493.24 75.8743 1490.43 73.6826 1486.97 73.6826C1483.5 73.6826 1480.69 75.8743 1480.69 78.5778C1480.69 81.2813 1483.5 83.473 1486.97 83.473Z" fill="url(#paint24_linear)"/>
</mask>
<g mask="url(#mask12)">
<path d="M1486.97 83.473C1490.43 83.473 1493.24 81.2813 1493.24 78.5778C1493.24 75.8743 1490.43 73.6826 1486.97 73.6826C1483.5 73.6826 1480.69 75.8743 1480.69 78.5778C1480.69 81.2813 1483.5 83.473 1486.97 83.473Z" fill="url(#paint25_linear)"/>
</g>
<mask id="mask13" mask-type="alpha" maskUnits="userSpaceOnUse" x="1517" y="73" width="13" height="11">
<path d="M1523.3 83.473C1526.77 83.473 1529.58 81.2813 1529.58 78.5778C1529.58 75.8743 1526.77 73.6826 1523.3 73.6826C1519.84 73.6826 1517.03 75.8743 1517.03 78.5778C1517.03 81.2813 1519.84 83.473 1523.3 83.473Z" fill="url(#paint26_linear)"/>
</mask>
<g mask="url(#mask13)">
<path d="M1523.3 83.473C1526.77 83.473 1529.58 81.2813 1529.58 78.5778C1529.58 75.8743 1526.77 73.6826 1523.3 73.6826C1519.84 73.6826 1517.03 75.8743 1517.03 78.5778C1517.03 81.2813 1519.84 83.473 1523.3 83.473Z" fill="url(#paint27_linear)"/>
</g>
<mask id="mask14" mask-type="alpha" maskUnits="userSpaceOnUse" x="1553" y="73" width="13" height="11">
<path d="M1559.64 83.473C1563.1 83.473 1565.91 81.2813 1565.91 78.5778C1565.91 75.8743 1563.1 73.6826 1559.64 73.6826C1556.17 73.6826 1553.36 75.8743 1553.36 78.5778C1553.36 81.2813 1556.17 83.473 1559.64 83.473Z" fill="url(#paint28_linear)"/>
</mask>
<g mask="url(#mask14)">
<path d="M1559.64 83.473C1563.1 83.473 1565.91 81.2813 1565.91 78.5778C1565.91 75.8743 1563.1 73.6826 1559.64 73.6826C1556.17 73.6826 1553.36 75.8743 1553.36 78.5778C1553.36 81.2813 1556.17 83.473 1559.64 83.473Z" fill="url(#paint29_linear)"/>
</g>
<mask id="mask15" mask-type="alpha" maskUnits="userSpaceOnUse" x="1589" y="73" width="14" height="11">
<path d="M1595.97 83.473C1599.44 83.473 1602.25 81.2813 1602.25 78.5778C1602.25 75.8743 1599.44 73.6826 1595.97 73.6826C1592.51 73.6826 1589.7 75.8743 1589.7 78.5778C1589.7 81.2813 1592.51 83.473 1595.97 83.473Z" fill="url(#paint30_linear)"/>
</mask>
<g mask="url(#mask15)">
<path d="M1595.97 83.473C1599.44 83.473 1602.25 81.2813 1602.25 78.5778C1602.25 75.8743 1599.44 73.6826 1595.97 73.6826C1592.51 73.6826 1589.7 75.8743 1589.7 78.5778C1589.7 81.2813 1592.51 83.473 1595.97 83.473Z" fill="url(#paint31_linear)"/>
</g>
<mask id="mask16" mask-type="alpha" maskUnits="userSpaceOnUse" x="1480" y="98" width="14" height="10">
<path d="M1486.97 108C1490.43 108 1493.24 105.808 1493.24 103.105C1493.24 100.401 1490.43 98.2095 1486.97 98.2095C1483.5 98.2095 1480.69 100.401 1480.69 103.105C1480.69 105.808 1483.5 108 1486.97 108Z" fill="url(#paint32_linear)"/>
</mask>
<g mask="url(#mask16)">
<path d="M1486.97 108C1490.43 108 1493.24 105.808 1493.24 103.105C1493.24 100.401 1490.43 98.2095 1486.97 98.2095C1483.5 98.2095 1480.69 100.401 1480.69 103.105C1480.69 105.808 1483.5 108 1486.97 108Z" fill="url(#paint33_linear)"/>
</g>
<mask id="mask17" mask-type="alpha" maskUnits="userSpaceOnUse" x="1517" y="98" width="13" height="10">
<path d="M1523.3 108C1526.77 108 1529.58 105.808 1529.58 103.105C1529.58 100.401 1526.77 98.2095 1523.3 98.2095C1519.84 98.2095 1517.03 100.401 1517.03 103.105C1517.03 105.808 1519.84 108 1523.3 108Z" fill="url(#paint34_linear)"/>
</mask>
<g mask="url(#mask17)">
<path d="M1523.3 108C1526.77 108 1529.58 105.808 1529.58 103.105C1529.58 100.401 1526.77 98.2095 1523.3 98.2095C1519.84 98.2095 1517.03 100.401 1517.03 103.105C1517.03 105.808 1519.84 108 1523.3 108Z" fill="url(#paint35_linear)"/>
</g>
<mask id="mask18" mask-type="alpha" maskUnits="userSpaceOnUse" x="1553" y="98" width="13" height="10">
<path d="M1559.64 108C1563.1 108 1565.91 105.808 1565.91 103.105C1565.91 100.401 1563.1 98.2095 1559.64 98.2095C1556.17 98.2095 1553.36 100.401 1553.36 103.105C1553.36 105.808 1556.17 108 1559.64 108Z" fill="url(#paint36_linear)"/>
</mask>
<g mask="url(#mask18)">
<path d="M1559.64 108C1563.1 108 1565.91 105.808 1565.91 103.105C1565.91 100.401 1563.1 98.2095 1559.64 98.2095C1556.17 98.2095 1553.36 100.401 1553.36 103.105C1553.36 105.808 1556.17 108 1559.64 108Z" fill="url(#paint37_linear)"/>
</g>
<mask id="mask19" mask-type="alpha" maskUnits="userSpaceOnUse" x="1589" y="98" width="14" height="10">
<path d="M1595.97 108C1599.44 108 1602.25 105.808 1602.25 103.105C1602.25 100.401 1599.44 98.2095 1595.97 98.2095C1592.51 98.2095 1589.7 100.401 1589.7 103.105C1589.7 105.808 1592.51 108 1595.97 108Z" fill="url(#paint38_linear)"/>
</mask>
<g mask="url(#mask19)">
<path d="M1595.97 108C1599.44 108 1602.25 105.808 1602.25 103.105C1602.25 100.401 1599.44 98.2095 1595.97 98.2095C1592.51 98.2095 1589.7 100.401 1589.7 103.105C1589.7 105.808 1592.51 108 1595.97 108Z" fill="url(#paint39_linear)"/>
</g>
</g>
<defs>
<linearGradient id="paint0_linear" x1="1546.69" y1="123.152" x2="1491.34" y2="-56.9082" gradientUnits="userSpaceOnUse">
<stop/>
<stop offset="1" stop-color="white"/>
</linearGradient>
<linearGradient id="paint1_linear" x1="1546.69" y1="123.152" x2="1491.34" y2="-56.9082" gradientUnits="userSpaceOnUse">
<stop stop-color="#97C3F9"/>
<stop offset="1" stop-color="#93C1F9"/>
</linearGradient>
<linearGradient id="paint2_linear" x1="1578.13" y1="113.487" x2="1522.78" y2="-66.573" gradientUnits="userSpaceOnUse">
<stop/>
<stop offset="1" stop-color="white"/>
</linearGradient>
<linearGradient id="paint3_linear" x1="1578.13" y1="113.487" x2="1522.78" y2="-66.573" gradientUnits="userSpaceOnUse">
<stop stop-color="#97C3F9"/>
<stop offset="1" stop-color="#93C1F9"/>
</linearGradient>
<linearGradient id="paint4_linear" x1="1609.57" y1="103.822" x2="1554.22" y2="-76.2379" gradientUnits="userSpaceOnUse">
<stop/>
<stop offset="1" stop-color="white"/>
</linearGradient>
<linearGradient id="paint5_linear" x1="1609.57" y1="103.822" x2="1554.22" y2="-76.2379" gradientUnits="userSpaceOnUse">
<stop stop-color="#97C3F9"/>
<stop offset="1" stop-color="#93C1F9"/>
</linearGradient>
<linearGradient id="paint6_linear" x1="1641.01" y1="94.1567" x2="1585.67" y2="-85.9033" gradientUnits="userSpaceOnUse">
<stop/>
<stop offset="1" stop-color="white"/>
</linearGradient>
<linearGradient id="paint7_linear" x1="1641.01" y1="94.1567" x2="1585.67" y2="-85.9033" gradientUnits="userSpaceOnUse">
<stop stop-color="#97C3F9"/>
<stop offset="1" stop-color="#93C1F9"/>
</linearGradient>
<linearGradient id="paint8_linear" x1="1535.96" y1="126.449" x2="1480.61" y2="-53.6092" gradientUnits="userSpaceOnUse">
<stop/>
<stop offset="1" stop-color="white"/>
</linearGradient>
<linearGradient id="paint9_linear" x1="1535.96" y1="126.449" x2="1480.61" y2="-53.6092" gradientUnits="userSpaceOnUse">
<stop stop-color="#97C3F9"/>
<stop offset="1" stop-color="#93C1F9"/>
</linearGradient>
<linearGradient id="paint10_linear" x1="1567.4" y1="116.784" x2="1512.05" y2="-63.2746" gradientUnits="userSpaceOnUse">
<stop/>
<stop offset="1" stop-color="white"/>
</linearGradient>
<linearGradient id="paint11_linear" x1="1567.4" y1="116.784" x2="1512.05" y2="-63.2746" gradientUnits="userSpaceOnUse">
<stop stop-color="#97C3F9"/>
<stop offset="1" stop-color="#93C1F9"/>
</linearGradient>
<linearGradient id="paint12_linear" x1="1598.84" y1="107.119" x2="1543.5" y2="-72.9395" gradientUnits="userSpaceOnUse">
<stop/>
<stop offset="1" stop-color="white"/>
</linearGradient>
<linearGradient id="paint13_linear" x1="1598.84" y1="107.119" x2="1543.5" y2="-72.9395" gradientUnits="userSpaceOnUse">
<stop stop-color="#97C3F9"/>
<stop offset="1" stop-color="#93C1F9"/>
</linearGradient>
<linearGradient id="paint14_linear" x1="1630.28" y1="97.454" x2="1574.94" y2="-82.6046" gradientUnits="userSpaceOnUse">
<stop/>
<stop offset="1" stop-color="white"/>
</linearGradient>
<linearGradient id="paint15_linear" x1="1630.28" y1="97.454" x2="1574.94" y2="-82.6046" gradientUnits="userSpaceOnUse">
<stop stop-color="#97C3F9"/>
<stop offset="1" stop-color="#93C1F9"/>
</linearGradient>
<linearGradient id="paint16_linear" x1="1525.23" y1="129.748" x2="1469.88" y2="-50.3116" gradientUnits="userSpaceOnUse">
<stop/>
<stop offset="1" stop-color="white"/>
</linearGradient>
<linearGradient id="paint17_linear" x1="1525.23" y1="129.748" x2="1469.88" y2="-50.3116" gradientUnits="userSpaceOnUse">
<stop stop-color="#97C3F9"/>
<stop offset="1" stop-color="#93C1F9"/>
</linearGradient>
<linearGradient id="paint18_linear" x1="1556.67" y1="120.083" x2="1501.32" y2="-59.9768" gradientUnits="userSpaceOnUse">
<stop/>
<stop offset="1" stop-color="white"/>
</linearGradient>
<linearGradient id="paint19_linear" x1="1556.67" y1="120.083" x2="1501.32" y2="-59.9768" gradientUnits="userSpaceOnUse">
<stop stop-color="#97C3F9"/>
<stop offset="1" stop-color="#93C1F9"/>
</linearGradient>
<linearGradient id="paint20_linear" x1="1588.11" y1="110.418" x2="1532.76" y2="-69.6417" gradientUnits="userSpaceOnUse">
<stop/>
<stop offset="1" stop-color="white"/>
</linearGradient>
<linearGradient id="paint21_linear" x1="1588.11" y1="110.418" x2="1532.76" y2="-69.6417" gradientUnits="userSpaceOnUse">
<stop stop-color="#97C3F9"/>
<stop offset="1" stop-color="#93C1F9"/>
</linearGradient>
<linearGradient id="paint22_linear" x1="1619.55" y1="100.753" x2="1564.21" y2="-79.3069" gradientUnits="userSpaceOnUse">
<stop/>
<stop offset="1" stop-color="white"/>
</linearGradient>
<linearGradient id="paint23_linear" x1="1619.55" y1="100.753" x2="1564.21" y2="-79.3069" gradientUnits="userSpaceOnUse">
<stop stop-color="#97C3F9"/>
<stop offset="1" stop-color="#93C1F9"/>
</linearGradient>
<linearGradient id="paint24_linear" x1="1514.5" y1="133.046" x2="1459.15" y2="-47.0135" gradientUnits="userSpaceOnUse">
<stop/>
<stop offset="1" stop-color="white"/>
</linearGradient>
<linearGradient id="paint25_linear" x1="1514.5" y1="133.046" x2="1459.15" y2="-47.0135" gradientUnits="userSpaceOnUse">
<stop stop-color="#97C3F9"/>
<stop offset="1" stop-color="#93C1F9"/>
</linearGradient>
<linearGradient id="paint26_linear" x1="1545.94" y1="123.381" x2="1490.59" y2="-56.6785" gradientUnits="userSpaceOnUse">
<stop/>
<stop offset="1" stop-color="white"/>
</linearGradient>
<linearGradient id="paint27_linear" x1="1545.94" y1="123.381" x2="1490.59" y2="-56.6785" gradientUnits="userSpaceOnUse">
<stop stop-color="#97C3F9"/>
<stop offset="1" stop-color="#93C1F9"/>
</linearGradient>
<linearGradient id="paint28_linear" x1="1577.38" y1="113.716" x2="1522.03" y2="-66.3435" gradientUnits="userSpaceOnUse">
<stop/>
<stop offset="1" stop-color="white"/>
</linearGradient>
<linearGradient id="paint29_linear" x1="1577.38" y1="113.716" x2="1522.03" y2="-66.3435" gradientUnits="userSpaceOnUse">
<stop stop-color="#97C3F9"/>
<stop offset="1" stop-color="#93C1F9"/>
</linearGradient>
<linearGradient id="paint30_linear" x1="1608.82" y1="104.051" x2="1553.48" y2="-76.0087" gradientUnits="userSpaceOnUse">
<stop/>
<stop offset="1" stop-color="white"/>
</linearGradient>
<linearGradient id="paint31_linear" x1="1608.82" y1="104.051" x2="1553.48" y2="-76.0087" gradientUnits="userSpaceOnUse">
<stop stop-color="#97C3F9"/>
<stop offset="1" stop-color="#93C1F9"/>
</linearGradient>
<linearGradient id="paint32_linear" x1="1503.77" y1="136.345" x2="1448.42" y2="-43.7153" gradientUnits="userSpaceOnUse">
<stop/>
<stop offset="1" stop-color="white"/>
</linearGradient>
<linearGradient id="paint33_linear" x1="1503.77" y1="136.345" x2="1448.42" y2="-43.7153" gradientUnits="userSpaceOnUse">
<stop stop-color="#97C3F9"/>
<stop offset="1" stop-color="#93C1F9"/>
</linearGradient>
<linearGradient id="paint34_linear" x1="1535.21" y1="126.68" x2="1479.86" y2="-53.3804" gradientUnits="userSpaceOnUse">
<stop/>
<stop offset="1" stop-color="white"/>
</linearGradient>
<linearGradient id="paint35_linear" x1="1535.21" y1="126.68" x2="1479.86" y2="-53.3804" gradientUnits="userSpaceOnUse">
<stop stop-color="#97C3F9"/>
<stop offset="1" stop-color="#93C1F9"/>
</linearGradient>
<linearGradient id="paint36_linear" x1="1566.65" y1="117.015" x2="1511.3" y2="-63.0452" gradientUnits="userSpaceOnUse">
<stop/>
<stop offset="1" stop-color="white"/>
</linearGradient>
<linearGradient id="paint37_linear" x1="1566.65" y1="117.015" x2="1511.3" y2="-63.0452" gradientUnits="userSpaceOnUse">
<stop stop-color="#97C3F9"/>
<stop offset="1" stop-color="#93C1F9"/>
</linearGradient>
<linearGradient id="paint38_linear" x1="1598.09" y1="107.349" x2="1542.75" y2="-72.7105" gradientUnits="userSpaceOnUse">
<stop/>
<stop offset="1" stop-color="white"/>
</linearGradient>
<linearGradient id="paint39_linear" x1="1598.09" y1="107.349" x2="1542.75" y2="-72.7105" gradientUnits="userSpaceOnUse">
<stop stop-color="#97C3F9"/>
<stop offset="1" stop-color="#93C1F9"/>
</linearGradient>
</defs>
</svg>
