<svg width="1437" height="719" viewBox="0 0 1437 719" fill="none" xmlns="http://www.w3.org/2000/svg">
<g opacity="0.3">
<mask id="mask0" mask-type="alpha" maskUnits="userSpaceOnUse" x="10" y="104" width="12" height="11">
<path d="M15.7905 114.425C18.6781 114.425 21.0189 112.091 21.0189 109.212C21.0189 106.334 18.6781 104 15.7905 104C12.903 104 10.5621 106.334 10.5621 109.212C10.5621 112.091 12.903 114.425 15.7905 114.425Z" fill="url(#paint0_linear)"/>
</mask>
<g mask="url(#mask0)">
<path d="M15.7905 114.425C18.6781 114.425 21.0189 112.091 21.0189 109.212C21.0189 106.334 18.6781 104 15.7905 104C12.903 104 10.5621 106.334 10.5621 109.212C10.5621 112.091 12.903 114.425 15.7905 114.425Z" fill="url(#paint1_linear)"/>
</g>
<mask id="mask1" mask-type="alpha" maskUnits="userSpaceOnUse" x="40" y="104" width="12" height="11">
<path d="M46.0716 114.425C48.9592 114.425 51.3 112.091 51.3 109.212C51.3 106.334 48.9592 104 46.0716 104C43.184 104 40.8432 106.334 40.8432 109.212C40.8432 112.091 43.184 114.425 46.0716 114.425Z" fill="url(#paint2_linear)"/>
</mask>
<g mask="url(#mask1)">
<path d="M46.0716 114.425C48.9592 114.425 51.3 112.091 51.3 109.212C51.3 106.334 48.9592 104 46.0716 104C43.184 104 40.8432 106.334 40.8432 109.212C40.8432 112.091 43.184 114.425 46.0716 114.425Z" fill="url(#paint3_linear)"/>
</g>
<mask id="mask2" mask-type="alpha" maskUnits="userSpaceOnUse" x="71" y="104" width="11" height="11">
<path d="M76.3526 114.425C79.2402 114.425 81.581 112.091 81.581 109.212C81.581 106.334 79.2402 104 76.3526 104C73.4651 104 71.1243 106.334 71.1243 109.212C71.1243 112.091 73.4651 114.425 76.3526 114.425Z" fill="url(#paint4_linear)"/>
</mask>
<g mask="url(#mask2)">
<path d="M76.3526 114.425C79.2402 114.425 81.581 112.091 81.581 109.212C81.581 106.334 79.2402 104 76.3526 104C73.4651 104 71.1243 106.334 71.1243 109.212C71.1243 112.091 73.4651 114.425 76.3526 114.425Z" fill="url(#paint5_linear)"/>
</g>
<mask id="mask3" mask-type="alpha" maskUnits="userSpaceOnUse" x="10" y="130" width="12" height="11">
<path d="M15.7905 140.596C18.6781 140.596 21.0189 138.262 21.0189 135.383C21.0189 132.505 18.6781 130.171 15.7905 130.171C12.903 130.171 10.5621 132.505 10.5621 135.383C10.5621 138.262 12.903 140.596 15.7905 140.596Z" fill="url(#paint6_linear)"/>
</mask>
<g mask="url(#mask3)">
<path d="M15.7905 140.596C18.6781 140.596 21.0189 138.262 21.0189 135.383C21.0189 132.505 18.6781 130.171 15.7905 130.171C12.903 130.171 10.5621 132.505 10.5621 135.383C10.5621 138.262 12.903 140.596 15.7905 140.596Z" fill="url(#paint7_linear)"/>
</g>
<mask id="mask4" mask-type="alpha" maskUnits="userSpaceOnUse" x="40" y="130" width="12" height="11">
<path d="M46.0716 140.596C48.9592 140.596 51.3 138.262 51.3 135.383C51.3 132.505 48.9592 130.171 46.0716 130.171C43.184 130.171 40.8432 132.505 40.8432 135.383C40.8432 138.262 43.184 140.596 46.0716 140.596Z" fill="url(#paint8_linear)"/>
</mask>
<g mask="url(#mask4)">
<path d="M46.0716 140.596C48.9592 140.596 51.3 138.262 51.3 135.383C51.3 132.505 48.9592 130.171 46.0716 130.171C43.184 130.171 40.8432 132.505 40.8432 135.383C40.8432 138.262 43.184 140.596 46.0716 140.596Z" fill="url(#paint9_linear)"/>
</g>
<mask id="mask5" mask-type="alpha" maskUnits="userSpaceOnUse" x="71" y="130" width="11" height="11">
<path d="M76.3526 140.596C79.2402 140.596 81.581 138.262 81.581 135.383C81.581 132.505 79.2402 130.171 76.3526 130.171C73.4651 130.171 71.1243 132.505 71.1243 135.383C71.1243 138.262 73.4651 140.596 76.3526 140.596Z" fill="url(#paint10_linear)"/>
</mask>
<g mask="url(#mask5)">
<path d="M76.3526 140.596C79.2402 140.596 81.581 138.262 81.581 135.383C81.581 132.505 79.2402 130.171 76.3526 130.171C73.4651 130.171 71.1243 132.505 71.1243 135.383C71.1243 138.262 73.4651 140.596 76.3526 140.596Z" fill="url(#paint11_linear)"/>
</g>
<mask id="mask6" mask-type="alpha" maskUnits="userSpaceOnUse" x="10" y="156" width="12" height="11">
<path d="M15.7905 166.712C18.6781 166.712 21.0189 164.379 21.0189 161.5C21.0189 158.621 18.6781 156.288 15.7905 156.288C12.903 156.288 10.5621 158.621 10.5621 161.5C10.5621 164.379 12.903 166.712 15.7905 166.712Z" fill="url(#paint12_linear)"/>
</mask>
<g mask="url(#mask6)">
<path d="M15.7905 166.712C18.6781 166.712 21.0189 164.379 21.0189 161.5C21.0189 158.621 18.6781 156.288 15.7905 156.288C12.903 156.288 10.5621 158.621 10.5621 161.5C10.5621 164.379 12.903 166.712 15.7905 166.712Z" fill="url(#paint13_linear)"/>
</g>
<mask id="mask7" mask-type="alpha" maskUnits="userSpaceOnUse" x="40" y="156" width="12" height="11">
<path d="M46.0716 166.712C48.9592 166.712 51.3 164.379 51.3 161.5C51.3 158.621 48.9592 156.288 46.0716 156.288C43.184 156.288 40.8432 158.621 40.8432 161.5C40.8432 164.379 43.184 166.712 46.0716 166.712Z" fill="url(#paint14_linear)"/>
</mask>
<g mask="url(#mask7)">
<path d="M46.0716 166.712C48.9592 166.712 51.3 164.379 51.3 161.5C51.3 158.621 48.9592 156.288 46.0716 156.288C43.184 156.288 40.8432 158.621 40.8432 161.5C40.8432 164.379 43.184 166.712 46.0716 166.712Z" fill="url(#paint15_linear)"/>
</g>
<mask id="mask8" mask-type="alpha" maskUnits="userSpaceOnUse" x="71" y="156" width="11" height="11">
<path d="M76.3526 166.712C79.2402 166.712 81.581 164.379 81.581 161.5C81.581 158.621 79.2402 156.288 76.3526 156.288C73.4651 156.288 71.1243 158.621 71.1243 161.5C71.1243 164.379 73.4651 166.712 76.3526 166.712Z" fill="url(#paint16_linear)"/>
</mask>
<g mask="url(#mask8)">
<path d="M76.3526 166.712C79.2402 166.712 81.581 164.379 81.581 161.5C81.581 158.621 79.2402 156.288 76.3526 156.288C73.4651 156.288 71.1243 158.621 71.1243 161.5C71.1243 164.379 73.4651 166.712 76.3526 166.712Z" fill="url(#paint17_linear)"/>
</g>
<mask id="mask9" mask-type="alpha" maskUnits="userSpaceOnUse" x="10" y="182" width="12" height="11">
<path d="M15.7905 192.883C18.6781 192.883 21.0189 190.55 21.0189 187.671C21.0189 184.792 18.6781 182.458 15.7905 182.458C12.903 182.458 10.5621 184.792 10.5621 187.671C10.5621 190.55 12.903 192.883 15.7905 192.883Z" fill="url(#paint18_linear)"/>
</mask>
<g mask="url(#mask9)">
<path d="M15.7905 192.883C18.6781 192.883 21.0189 190.55 21.0189 187.671C21.0189 184.792 18.6781 182.458 15.7905 182.458C12.903 182.458 10.5621 184.792 10.5621 187.671C10.5621 190.55 12.903 192.883 15.7905 192.883Z" fill="url(#paint19_linear)"/>
</g>
<mask id="mask10" mask-type="alpha" maskUnits="userSpaceOnUse" x="40" y="182" width="12" height="11">
<path d="M46.0716 192.883C48.9592 192.883 51.3 190.55 51.3 187.671C51.3 184.792 48.9592 182.458 46.0716 182.458C43.184 182.458 40.8432 184.792 40.8432 187.671C40.8432 190.55 43.184 192.883 46.0716 192.883Z" fill="url(#paint20_linear)"/>
</mask>
<g mask="url(#mask10)">
<path d="M46.0716 192.883C48.9592 192.883 51.3 190.55 51.3 187.671C51.3 184.792 48.9592 182.458 46.0716 182.458C43.184 182.458 40.8432 184.792 40.8432 187.671C40.8432 190.55 43.184 192.883 46.0716 192.883Z" fill="url(#paint21_linear)"/>
</g>
<mask id="mask11" mask-type="alpha" maskUnits="userSpaceOnUse" x="71" y="182" width="11" height="11">
<path d="M76.3526 192.883C79.2402 192.883 81.581 190.55 81.581 187.671C81.581 184.792 79.2402 182.458 76.3526 182.458C73.4651 182.458 71.1243 184.792 71.1243 187.671C71.1243 190.55 73.4651 192.883 76.3526 192.883Z" fill="url(#paint22_linear)"/>
</mask>
<g mask="url(#mask11)">
<path d="M76.3526 192.883C79.2402 192.883 81.581 190.55 81.581 187.671C81.581 184.792 79.2402 182.458 76.3526 182.458C73.4651 182.458 71.1243 184.792 71.1243 187.671C71.1243 190.55 73.4651 192.883 76.3526 192.883Z" fill="url(#paint23_linear)"/>
</g>
<mask id="mask12" mask-type="alpha" maskUnits="userSpaceOnUse" x="10" y="208" width="12" height="11">
<path d="M15.7905 219C18.6781 219 21.0189 216.666 21.0189 213.788C21.0189 210.909 18.6781 208.575 15.7905 208.575C12.903 208.575 10.5621 210.909 10.5621 213.788C10.5621 216.666 12.903 219 15.7905 219Z" fill="url(#paint24_linear)"/>
</mask>
<g mask="url(#mask12)">
<path d="M15.7905 219C18.6781 219 21.0189 216.666 21.0189 213.788C21.0189 210.909 18.6781 208.575 15.7905 208.575C12.903 208.575 10.5621 210.909 10.5621 213.788C10.5621 216.666 12.903 219 15.7905 219Z" fill="url(#paint25_linear)"/>
</g>
<mask id="mask13" mask-type="alpha" maskUnits="userSpaceOnUse" x="40" y="208" width="12" height="11">
<path d="M46.0716 219C48.9592 219 51.3 216.666 51.3 213.788C51.3 210.909 48.9592 208.575 46.0716 208.575C43.184 208.575 40.8432 210.909 40.8432 213.788C40.8432 216.666 43.184 219 46.0716 219Z" fill="url(#paint26_linear)"/>
</mask>
<g mask="url(#mask13)">
<path d="M46.0716 219C48.9592 219 51.3 216.666 51.3 213.788C51.3 210.909 48.9592 208.575 46.0716 208.575C43.184 208.575 40.8432 210.909 40.8432 213.788C40.8432 216.666 43.184 219 46.0716 219Z" fill="url(#paint27_linear)"/>
</g>
<mask id="mask14" mask-type="alpha" maskUnits="userSpaceOnUse" x="71" y="208" width="11" height="11">
<path d="M76.3526 219C79.2402 219 81.581 216.666 81.581 213.788C81.581 210.909 79.2402 208.575 76.3526 208.575C73.4651 208.575 71.1243 210.909 71.1243 213.788C71.1243 216.666 73.4651 219 76.3526 219Z" fill="url(#paint28_linear)"/>
</mask>
<g mask="url(#mask14)">
<path d="M76.3526 219C79.2402 219 81.581 216.666 81.581 213.788C81.581 210.909 79.2402 208.575 76.3526 208.575C73.4651 208.575 71.1243 210.909 71.1243 213.788C71.1243 216.666 73.4651 219 76.3526 219Z" fill="url(#paint29_linear)"/>
</g>
</g>
<defs>
<linearGradient id="paint0_linear" x1="57.4049" y1="214.551" x2="-13.9967" y2="32.7474" gradientUnits="userSpaceOnUse">
<stop/>
<stop offset="1" stop-color="white"/>
</linearGradient>
<linearGradient id="paint1_linear" x1="57.4049" y1="214.551" x2="-13.9967" y2="32.7474" gradientUnits="userSpaceOnUse">
<stop stop-color="#97C3F9"/>
<stop offset="1" stop-color="#93C1F9"/>
</linearGradient>
<linearGradient id="paint2_linear" x1="83.6091" y1="204.259" x2="12.2075" y2="22.4556" gradientUnits="userSpaceOnUse">
<stop/>
<stop offset="1" stop-color="white"/>
</linearGradient>
<linearGradient id="paint3_linear" x1="83.6091" y1="204.259" x2="12.2075" y2="22.4556" gradientUnits="userSpaceOnUse">
<stop stop-color="#97C3F9"/>
<stop offset="1" stop-color="#93C1F9"/>
</linearGradient>
<linearGradient id="paint4_linear" x1="109.813" y1="193.968" x2="38.4119" y2="12.1641" gradientUnits="userSpaceOnUse">
<stop/>
<stop offset="1" stop-color="white"/>
</linearGradient>
<linearGradient id="paint5_linear" x1="109.813" y1="193.968" x2="38.4119" y2="12.1641" gradientUnits="userSpaceOnUse">
<stop stop-color="#97C3F9"/>
<stop offset="1" stop-color="#93C1F9"/>
</linearGradient>
<linearGradient id="paint6_linear" x1="48.4624" y1="218.062" x2="-22.9379" y2="36.2597" gradientUnits="userSpaceOnUse">
<stop/>
<stop offset="1" stop-color="white"/>
</linearGradient>
<linearGradient id="paint7_linear" x1="48.4624" y1="218.062" x2="-22.9379" y2="36.2597" gradientUnits="userSpaceOnUse">
<stop stop-color="#97C3F9"/>
<stop offset="1" stop-color="#93C1F9"/>
</linearGradient>
<linearGradient id="paint8_linear" x1="74.6667" y1="207.771" x2="3.26634" y2="25.9682" gradientUnits="userSpaceOnUse">
<stop/>
<stop offset="1" stop-color="white"/>
</linearGradient>
<linearGradient id="paint9_linear" x1="74.6667" y1="207.771" x2="3.26634" y2="25.9682" gradientUnits="userSpaceOnUse">
<stop stop-color="#97C3F9"/>
<stop offset="1" stop-color="#93C1F9"/>
</linearGradient>
<linearGradient id="paint10_linear" x1="100.871" y1="197.479" x2="29.4707" y2="15.6769" gradientUnits="userSpaceOnUse">
<stop/>
<stop offset="1" stop-color="white"/>
</linearGradient>
<linearGradient id="paint11_linear" x1="100.871" y1="197.479" x2="29.4707" y2="15.6769" gradientUnits="userSpaceOnUse">
<stop stop-color="#97C3F9"/>
<stop offset="1" stop-color="#93C1F9"/>
</linearGradient>
<linearGradient id="paint12_linear" x1="39.5201" y1="221.575" x2="-31.8815" y2="39.7712" gradientUnits="userSpaceOnUse">
<stop/>
<stop offset="1" stop-color="white"/>
</linearGradient>
<linearGradient id="paint13_linear" x1="39.5201" y1="221.575" x2="-31.8815" y2="39.7712" gradientUnits="userSpaceOnUse">
<stop stop-color="#97C3F9"/>
<stop offset="1" stop-color="#93C1F9"/>
</linearGradient>
<linearGradient id="paint14_linear" x1="65.7243" y1="211.283" x2="-5.67728" y2="29.4795" gradientUnits="userSpaceOnUse">
<stop/>
<stop offset="1" stop-color="white"/>
</linearGradient>
<linearGradient id="paint15_linear" x1="65.7243" y1="211.283" x2="-5.67728" y2="29.4795" gradientUnits="userSpaceOnUse">
<stop stop-color="#97C3F9"/>
<stop offset="1" stop-color="#93C1F9"/>
</linearGradient>
<linearGradient id="paint16_linear" x1="91.9287" y1="200.992" x2="20.5271" y2="19.188" gradientUnits="userSpaceOnUse">
<stop/>
<stop offset="1" stop-color="white"/>
</linearGradient>
<linearGradient id="paint17_linear" x1="91.9287" y1="200.992" x2="20.5271" y2="19.188" gradientUnits="userSpaceOnUse">
<stop stop-color="#97C3F9"/>
<stop offset="1" stop-color="#93C1F9"/>
</linearGradient>
<linearGradient id="paint18_linear" x1="30.5777" y1="225.087" x2="-40.8239" y2="43.2832" gradientUnits="userSpaceOnUse">
<stop/>
<stop offset="1" stop-color="white"/>
</linearGradient>
<linearGradient id="paint19_linear" x1="30.5777" y1="225.087" x2="-40.8239" y2="43.2832" gradientUnits="userSpaceOnUse">
<stop stop-color="#97C3F9"/>
<stop offset="1" stop-color="#93C1F9"/>
</linearGradient>
<linearGradient id="paint20_linear" x1="56.782" y1="214.795" x2="-14.6196" y2="32.9916" gradientUnits="userSpaceOnUse">
<stop/>
<stop offset="1" stop-color="white"/>
</linearGradient>
<linearGradient id="paint21_linear" x1="56.782" y1="214.795" x2="-14.6196" y2="32.9916" gradientUnits="userSpaceOnUse">
<stop stop-color="#97C3F9"/>
<stop offset="1" stop-color="#93C1F9"/>
</linearGradient>
<linearGradient id="paint22_linear" x1="82.9863" y1="204.504" x2="11.5847" y2="22.7" gradientUnits="userSpaceOnUse">
<stop/>
<stop offset="1" stop-color="white"/>
</linearGradient>
<linearGradient id="paint23_linear" x1="82.9863" y1="204.504" x2="11.5847" y2="22.7" gradientUnits="userSpaceOnUse">
<stop stop-color="#97C3F9"/>
<stop offset="1" stop-color="#93C1F9"/>
</linearGradient>
<linearGradient id="paint24_linear" x1="21.6353" y1="228.599" x2="-49.7663" y2="46.7953" gradientUnits="userSpaceOnUse">
<stop/>
<stop offset="1" stop-color="white"/>
</linearGradient>
<linearGradient id="paint25_linear" x1="21.6353" y1="228.599" x2="-49.7663" y2="46.7953" gradientUnits="userSpaceOnUse">
<stop stop-color="#97C3F9"/>
<stop offset="1" stop-color="#93C1F9"/>
</linearGradient>
<linearGradient id="paint26_linear" x1="47.8397" y1="218.307" x2="-23.562" y2="36.5036" gradientUnits="userSpaceOnUse">
<stop/>
<stop offset="1" stop-color="white"/>
</linearGradient>
<linearGradient id="paint27_linear" x1="47.8397" y1="218.307" x2="-23.562" y2="36.5036" gradientUnits="userSpaceOnUse">
<stop stop-color="#97C3F9"/>
<stop offset="1" stop-color="#93C1F9"/>
</linearGradient>
<linearGradient id="paint28_linear" x1="74.044" y1="208.016" x2="2.64237" y2="26.2121" gradientUnits="userSpaceOnUse">
<stop/>
<stop offset="1" stop-color="white"/>
</linearGradient>
<linearGradient id="paint29_linear" x1="74.044" y1="208.016" x2="2.64237" y2="26.2121" gradientUnits="userSpaceOnUse">
<stop stop-color="#97C3F9"/>
<stop offset="1" stop-color="#93C1F9"/>
</linearGradient>
</defs>
</svg>
