<svg width="859" height="773" viewBox="0 0 859 773" fill="none" xmlns="http://www.w3.org/2000/svg">
<ellipse rx="477" ry="447.5" transform="matrix(-1 0 0 1 504.162 280.965)" fill="url(#paint0_linear)"/>
<path fill-rule="evenodd" clip-rule="evenodd" d="M574.418 687.536C574.538 687.467 575.287 688.455 576.394 690.402C577.507 692.343 578.89 695.29 580.176 699.092C582.812 706.672 584.467 717.86 583.486 730.062C582.513 742.263 579.692 752.973 577.516 760.596C575.29 768.222 573.652 772.851 573.369 772.773C573.057 772.687 574.163 767.897 575.99 760.196C577.77 752.497 580.309 741.844 581.261 729.894C582.218 717.946 580.857 707.073 578.669 699.555C576.545 692 574.067 687.718 574.418 687.536Z" fill="white"/>
<path fill-rule="evenodd" clip-rule="evenodd" d="M581.937 626.476C582.076 626.414 582.982 628.072 584.494 631.129C586.004 634.186 588.127 638.642 590.637 644.201C595.618 655.32 602.321 670.885 607.183 688.955C609.573 697.994 611.202 706.781 612.027 714.851C612.858 722.919 612.943 730.25 612.527 736.368C612.124 742.489 611.351 747.401 610.608 750.741C609.872 754.087 609.289 755.89 609.158 755.86C608.745 755.781 610.565 748.414 610.952 736.295C611.433 724.2 609.844 707.397 605.026 689.53C600.22 671.656 593.791 656.083 589.189 644.826C586.872 639.194 584.998 634.635 583.7 631.483C582.433 628.318 581.795 626.539 581.937 626.476Z" fill="white"/>
<path fill-rule="evenodd" clip-rule="evenodd" d="M303.694 578.143C303.952 578.421 301.422 580.833 298.139 585.313C297.324 586.438 296.439 587.669 295.611 589.075C294.704 590.429 293.917 591.983 293.04 593.587C291.41 596.857 289.862 600.574 288.668 604.62C287.527 608.681 286.861 612.651 286.502 616.288C286.393 618.111 286.234 619.847 286.28 621.474C286.234 623.106 286.328 624.621 286.419 626.007C286.817 631.546 287.678 634.934 287.311 635.033C287.088 635.11 285.672 631.836 284.851 626.168C284.654 624.752 284.466 623.197 284.43 621.513C284.304 619.831 284.394 618.032 284.451 616.137C284.708 612.36 285.338 608.218 286.525 604.003C287.762 599.801 289.43 595.96 291.224 592.624C292.183 590.988 293.061 589.416 294.065 588.06C294.989 586.653 295.978 585.435 296.897 584.34C300.607 579.978 303.548 577.961 303.694 578.143Z" fill="white"/>
<path fill-rule="evenodd" clip-rule="evenodd" d="M309.632 597.692C309.819 597.991 308.41 599.069 306.568 601.131C305.636 602.149 304.654 603.469 303.687 604.999C302.762 606.554 301.875 608.338 301.178 610.306C300.513 612.284 300.112 614.236 299.883 616.033C299.699 617.832 299.659 619.475 299.766 620.854C299.944 623.611 300.391 625.33 300.058 625.45C299.819 625.551 298.816 623.978 298.202 621.063C297.882 619.61 297.75 617.831 297.833 615.859C297.963 613.895 298.34 611.74 299.069 609.579C299.827 607.428 300.86 605.5 301.969 603.872C303.117 602.268 304.319 600.949 305.465 600.002C307.745 598.083 309.506 597.463 309.632 597.692Z" fill="white"/>
<path fill-rule="evenodd" clip-rule="evenodd" d="M227.198 395.508C227.314 395.407 228.312 396.39 230.026 398.263C230.896 399.191 231.924 400.358 233.012 401.798C234.111 403.225 235.433 404.81 236.674 406.715C237.314 407.655 237.986 408.639 238.684 409.665C239.376 410.698 240.003 411.828 240.701 412.969C242.13 415.236 243.411 417.795 244.805 420.464C247.435 425.879 249.951 432.025 251.954 438.687C253.893 445.368 255.124 451.895 255.86 457.869C256.141 460.868 256.456 463.713 256.488 466.39C256.522 467.728 256.61 469.017 256.591 470.261C256.563 471.501 256.534 472.691 256.508 473.828C256.501 476.104 256.253 478.15 256.107 479.948C255.975 481.747 255.748 483.284 255.52 484.535C255.102 487.04 254.798 488.407 254.645 488.386C254.252 488.334 254.993 482.783 254.931 473.812C254.91 472.69 254.89 471.518 254.869 470.293C254.843 469.071 254.713 467.801 254.64 466.487C254.53 463.855 254.15 461.064 253.82 458.124C252.984 452.267 251.717 445.878 249.814 439.32C247.846 432.781 245.438 426.728 242.955 421.357C241.635 418.711 240.435 416.161 239.098 413.891C238.444 412.748 237.862 411.613 237.221 410.573C236.573 409.535 235.953 408.538 235.36 407.587C230.536 400.022 226.895 395.766 227.198 395.508Z" fill="white"/>
<path fill-rule="evenodd" clip-rule="evenodd" d="M252.463 405.96C252.653 405.791 255.215 408.187 258.474 412.807C260.115 415.106 261.842 418.004 263.525 421.346C265.158 424.71 266.717 428.531 267.961 432.671C269.168 436.823 269.934 440.879 270.392 444.59C270.795 448.31 270.92 451.681 270.792 454.503C270.566 460.15 269.717 463.555 269.466 463.516C269.108 463.472 269.395 460.025 269.213 454.501C269.14 451.741 268.856 448.463 268.354 444.858C267.797 441.26 266.992 437.337 265.822 433.304C264.613 429.282 263.156 425.551 261.669 422.229C260.131 418.928 258.588 416.023 257.149 413.664C254.299 408.929 252.187 406.192 252.463 405.96Z" fill="white"/>
<path fill-rule="evenodd" clip-rule="evenodd" d="M163.996 588.506L162.054 584.541L107.985 625.847L131.574 664.056L185.395 618.682L163.996 588.506Z" fill="#B57AD2"/>
<path fill-rule="evenodd" clip-rule="evenodd" d="M110.251 626.731L130.973 662.562L132.298 661.971L113.845 628.468L110.251 626.731Z" fill="#D7D4D4"/>
<path fill-rule="evenodd" clip-rule="evenodd" d="M162.928 587.721L110.251 626.73C110.251 626.73 110.472 627.568 111.779 628.084C113.088 628.6 113.845 628.469 113.845 628.469L169.225 590.571C169.225 590.571 166.033 589.829 164.875 588.965C163.715 588.098 162.928 587.721 162.928 587.721Z" fill="#B57AD2"/>
<path fill-rule="evenodd" clip-rule="evenodd" d="M170.579 589.042L112.855 627.593L131.603 663.119L134.623 668.039L192.349 625.321C192.349 625.321 186.269 616.248 182.619 610.77C178.968 605.292 171.802 592.372 171.412 591.544C171.021 590.716 170.579 589.042 170.579 589.042Z" fill="#B57AD2"/>
<path fill-rule="evenodd" clip-rule="evenodd" d="M646.611 322.892L648.242 319.562L693.645 354.248L673.837 386.334L628.642 348.231L646.611 322.892Z" fill="#775298"/>
<path fill-rule="evenodd" clip-rule="evenodd" d="M691.743 354.99L674.343 385.078L673.229 384.583L688.726 356.449L691.743 354.99Z" fill="#D7D4D4"/>
<path fill-rule="evenodd" clip-rule="evenodd" d="M647.509 322.231L691.743 354.989C691.743 354.989 691.557 355.692 690.46 356.126C689.361 356.559 688.724 356.449 688.724 356.449L642.22 324.625C642.22 324.625 644.901 324.003 645.874 323.275C646.846 322.548 647.509 322.231 647.509 322.231Z" fill="#F5F3F3"/>
<path fill-rule="evenodd" clip-rule="evenodd" d="M641.083 323.342L689.556 355.714L673.814 385.547L671.278 389.678L622.802 353.806C622.802 353.806 627.909 346.186 630.973 341.586C634.041 336.986 640.057 326.137 640.383 325.442C640.711 324.748 641.083 323.342 641.083 323.342Z" fill="#B57AD2"/>
<path fill-rule="evenodd" clip-rule="evenodd" d="M99.4446 260.461C99.4446 260.461 96.0166 262.833 97.7298 266.788C99.4446 270.744 106.96 282.476 117.112 282.08C117.528 282.066 104.323 260.461 104.323 260.461H99.4446Z" fill="#FF7B5B"/>
<path fill-rule="evenodd" clip-rule="evenodd" d="M83.9139 476.757C83.9139 476.757 71.2184 465.417 67.1539 467.449C62.188 469.931 33.7654 497.776 34.8761 510.894C35.3324 516.266 41.5876 511.663 52.7339 500.103C63.8834 488.543 77.9218 493.497 77.9218 493.497L83.9139 476.757Z" fill="#B57AD2"/>
<path fill-rule="evenodd" clip-rule="evenodd" d="M114.759 495.881L99.4326 486.688C99.4326 486.688 59.7061 523.927 65.9126 528.893C70.6202 532.658 73.3873 529.281 84.5352 517.72C95.6814 506.163 109.804 512.808 109.804 512.808L114.759 495.881Z" fill="#B57AD2"/>
<path fill-rule="evenodd" clip-rule="evenodd" d="M208.38 373.366L211.254 414.173L147.455 397.554L208.38 373.366Z" fill="#F3A683"/>
<path fill-rule="evenodd" clip-rule="evenodd" d="M147.455 398.958C147.455 398.958 203.261 402.475 210.692 399.996C210.692 399.996 221.598 507.122 202.193 518.679C182.786 530.24 139.237 513.313 139.237 513.313L150.995 490.195L176.347 488.543V447.261L174.528 447.674L147.455 398.958Z" fill="#112129"/>
<path fill-rule="evenodd" clip-rule="evenodd" d="M77.5008 472.031C77.5008 472.031 63.4641 477.811 68.006 491.848C68.006 491.848 115.922 529.415 139.237 520.744C152.3 515.888 166.332 478.832 176.148 447.174L210.693 399.996C210.693 399.996 194.4 400.811 188.965 400.79C178.577 400.751 147.456 398.958 147.456 398.958C147.456 398.958 131.199 484.004 125.407 486.067C119.614 488.129 77.5008 472.031 77.5008 472.031Z" fill="#22343D"/>
<path fill-rule="evenodd" clip-rule="evenodd" d="M160.459 292.293C160.459 292.293 193.905 260.917 199.684 252.659C205.464 244.403 217.854 216.743 233.126 205.184L225.695 189.496C225.695 189.496 230.239 187.02 233.126 193.624C233.126 193.624 243.86 172.158 246.338 172.569C248.818 172.982 241.385 189.084 241.385 189.084C241.385 189.084 251.71 174.22 254.599 174.635C257.486 175.047 247.166 191.342 247.166 191.342C247.166 191.342 258.725 177.937 260.378 179.588C262.03 181.24 251.294 191.342 251.294 191.342C251.294 191.342 262.854 184.706 264.093 186.893C265.332 189.084 252.533 194.862 252.533 194.862C252.533 194.862 251.294 204.358 243.451 208.485C243.451 208.485 227.918 250.444 213.88 264.067L168.783 310.93L160.459 292.293Z" fill="#FFC6B2"/>
<path fill-rule="evenodd" clip-rule="evenodd" d="M120.536 308.554C120.536 308.554 88.8459 341.7 80.5349 347.401C72.2223 353.1 44.4459 365.231 32.7443 380.396L17.1243 372.818C17.1243 372.818 14.6056 377.335 21.1839 380.286C21.1839 380.286 -0.38597 390.818 0.00538377 393.301C0.39349 395.782 16.5656 388.501 16.5656 388.501C16.5656 388.501 1.6049 398.685 1.99138 401.577C2.37786 404.469 18.7692 394.301 18.7692 394.301C18.7692 394.301 5.25537 405.734 6.89223 407.399C8.52585 409.067 18.7319 398.43 18.7319 398.43C18.7319 398.43 11.9863 409.926 14.1656 411.184C16.3416 412.443 22.2411 399.7 22.2411 399.7C22.2411 399.7 31.7472 398.554 35.9515 390.747C35.9515 390.747 75.699 374.934 89.4565 361.025L138.92 325.981L120.536 308.554Z" fill="#FFC6B2"/>
<path fill-rule="evenodd" clip-rule="evenodd" d="M132.416 295.344L116.388 311.032L120.453 328.717C120.453 328.717 136.244 366.622 138.631 375.869C142.341 390.248 136.339 412.173 136.339 412.173C136.339 412.173 163.109 409.95 187.467 409.125C211.823 408.299 219.792 400.453 219.792 400.453C219.792 400.453 198.673 330.125 184.093 310.465C169.51 290.809 164.207 284.655 164.207 284.655L142.737 289.348L132.416 295.344Z" fill="white"/>
<path fill-rule="evenodd" clip-rule="evenodd" d="M179.454 308.147L196.154 297.478C196.154 297.478 198.705 286.047 178.566 272.564L154.95 287.361L179.454 308.147Z" fill="white"/>
<path fill-rule="evenodd" clip-rule="evenodd" d="M119.766 309.791C110.611 311.076 93.8797 334.277 92.0139 334.233C92.0139 334.233 103.789 353.446 113.116 354.069C113.116 354.069 154.163 304.967 119.766 309.791Z" fill="white"/>
<path fill-rule="evenodd" clip-rule="evenodd" d="M152.084 294.695C152.084 294.695 138.776 284.754 139.238 280.79C139.355 279.792 141.199 278.171 141.678 276.733C144.259 268.992 131.818 249.049 124.175 244.845C118.161 241.539 120.797 241.247 108.142 248.766C95.4872 256.285 102.697 269.288 108.348 276.013C113.691 282.37 119.81 285.093 125.315 285.552L133.142 302.936L152.084 294.695Z" fill="#FFC6B2"/>
<path fill-rule="evenodd" clip-rule="evenodd" d="M128.072 308.496C125.555 302.323 130.321 294.547 138.718 291.122C147.118 287.696 155.963 289.924 158.485 296.094C161.001 302.266 152.55 311.544 147.833 313.468C143.115 315.392 130.587 314.666 128.072 308.496Z" fill="#FFC6B2"/>
<path fill-rule="evenodd" clip-rule="evenodd" d="M108.349 276.013C108.349 276.013 104.033 275.775 103.554 278.65C103.073 281.527 111.465 281.527 114.583 279.37L108.349 276.013Z" fill="#FFC6B2"/>
<path fill-rule="evenodd" clip-rule="evenodd" d="M110.507 278.65C109.687 273.453 104.148 269.589 104.424 264.524C107.079 264.545 108.784 261.258 107.576 258.447C107.1 257.343 106.295 256.398 105.78 255.308C105.267 254.22 105.131 252.795 105.918 252.18C106.292 251.889 106.797 251.839 107.281 251.79C111.217 251.386 117.961 252.566 121.584 251.223C125.033 249.945 128.729 247.459 128.37 243.235C128.056 239.555 124.807 236.573 121.822 234.319C120.112 233.027 115.226 229.648 113.383 229.955C110.569 230.422 109.887 234.176 109.684 237.318C107.716 235.444 104.812 235.745 103.101 237.269C101.389 238.794 100.579 241.216 99.8335 243.555C99.0865 245.894 98.2957 248.323 96.6069 249.877C95.0333 251.325 92.5439 252.421 92.8703 254.885C93.2584 257.82 97.094 258.864 98.8673 261.368C98.4305 260.754 98.0602 264.674 98.3119 265.338C99.0687 267.34 100.957 268.665 102.323 270.196C105.231 273.46 106.654 276.746 110.507 278.65Z" fill="#FF7B5B"/>
<path fill-rule="evenodd" clip-rule="evenodd" d="M134.619 266.766L124.785 271.851C124.785 271.851 136.597 280.424 134.619 266.766Z" fill="white"/>
<path fill-rule="evenodd" clip-rule="evenodd" d="M121.09 268.782C121.628 269.802 120.832 271.276 119.314 272.075C117.795 272.874 116.129 272.695 115.592 271.676C115.056 270.656 115.85 269.183 117.368 268.383C118.888 267.584 120.553 267.763 121.09 268.782Z" fill="#FFB2A0"/>
<path fill-rule="evenodd" clip-rule="evenodd" d="M135.45 258.974C135.987 259.994 135.191 261.468 133.673 262.267C132.155 263.066 130.489 262.887 129.951 261.868C129.415 260.848 130.209 259.374 131.728 258.575C133.248 257.776 134.912 257.955 135.45 258.974Z" fill="#FFB2A0"/>
<path fill-rule="evenodd" clip-rule="evenodd" d="M127.755 266.405C127.709 266.349 127.893 266.107 128.318 265.8C128.724 265.486 129.43 265.149 129.955 264.584C130.475 264.036 130.661 262.895 129.866 262.734C129.039 262.453 128.1 263.402 127.024 264.303C126.758 264.524 126.494 264.743 126.233 264.959C125.989 265.183 125.476 265.511 124.944 265.444C123.929 265.28 123.497 264.603 123.107 264.15C122.328 263.15 121.847 262.103 121.581 261.197C121.053 259.365 121.29 258.183 121.417 258.193C121.594 258.185 121.652 259.321 122.323 260.932C122.66 261.732 123.166 262.642 123.901 263.501C124.26 263.936 124.711 264.342 125.033 264.355C125.168 264.361 125.273 264.316 125.527 264.103C125.785 263.887 126.045 263.668 126.308 263.447C126.85 263.009 127.319 262.565 127.94 262.153C128.542 261.747 129.401 261.491 130.171 261.752C130.993 261.968 131.475 262.926 131.332 263.592C131.239 264.27 130.902 264.77 130.518 265.136C129.708 265.813 128.984 265.977 128.528 266.181C128.06 266.358 127.803 266.469 127.755 266.405Z" fill="#FF7B5B"/>
<path fill-rule="evenodd" clip-rule="evenodd" d="M125.315 285.553C125.315 285.553 131.588 285.588 134.991 283.492C134.991 283.492 132.112 287.028 126.351 287.944L125.315 285.553Z" fill="#FFA192"/>
<path fill-rule="evenodd" clip-rule="evenodd" d="M128.035 257.424C127.978 257.734 127.101 257.83 126.174 258.239C125.234 258.619 124.555 259.183 124.294 259.007C124.026 258.866 124.469 257.746 125.739 257.212C127.007 256.674 128.118 257.132 128.035 257.424Z" fill="#22343D"/>
<path fill-rule="evenodd" clip-rule="evenodd" d="M115.742 265.487C115.505 265.312 115.877 264.302 116.78 263.29C117.694 262.258 118.861 261.914 118.985 262.203C119.115 262.483 118.403 263.138 117.603 264.045C116.789 264.95 115.999 265.679 115.742 265.487Z" fill="#22343D"/>
<path fill-rule="evenodd" clip-rule="evenodd" d="M110.976 263.929C110.468 263.552 110.072 261.94 112.017 259.767C113.981 257.546 116.175 257.937 116.438 258.554C116.72 259.16 115.989 260.022 114.266 261.975C112.518 263.922 111.527 264.341 110.976 263.929Z" fill="#FF7B5B"/>
<path fill-rule="evenodd" clip-rule="evenodd" d="M121.303 255.371C121.022 254.845 121.333 253.314 123.863 252.247C126.428 251.145 128.138 252.361 128.114 252.992C128.109 253.621 127.143 254.061 124.889 255.032C122.619 255.985 121.607 255.944 121.303 255.371Z" fill="#FF7B5B"/>
<path fill-rule="evenodd" clip-rule="evenodd" d="M660.936 270.602C661.102 270.766 658.377 273.831 652.723 277.169C647.138 280.505 638.351 283.81 628.244 283.885C618.137 283.96 609.302 280.784 603.669 277.532C597.967 274.278 595.197 271.251 595.359 271.084C595.595 270.787 598.693 273.339 604.403 276.134C610.057 278.939 618.579 281.724 628.226 281.654C637.877 281.581 646.355 278.671 651.969 275.783C657.635 272.904 660.697 270.306 660.936 270.602Z" fill="#775298"/>
<path fill-rule="evenodd" clip-rule="evenodd" d="M599.277 265.971C599.122 266.31 596.105 265.058 591.022 263.925C588.489 263.328 585.415 262.866 581.992 262.441C578.556 262.061 574.758 261.759 570.747 261.473C566.734 261.192 562.894 260.869 559.406 260.437C555.917 259.975 552.783 259.424 550.201 258.726C545.018 257.374 542.082 255.773 542.184 255.547C542.319 255.206 545.406 256.26 550.539 257.184C553.1 257.672 556.19 258.051 559.631 258.393C563.08 258.708 566.89 258.966 570.907 259.249C574.928 259.535 578.775 259.903 582.26 260.403C585.743 260.951 588.867 261.587 591.423 262.399C596.557 263.966 599.392 265.758 599.277 265.971Z" fill="#775298"/>
<mask id="mask0" mask-type="alpha" maskUnits="userSpaceOnUse" x="517" y="179" width="204" height="101">
<path fill-rule="evenodd" clip-rule="evenodd" d="M517.771 179.951H720.23V279.131H517.771V179.951Z" fill="white"/>
</mask>
<g mask="url(#mask0)">
<path fill-rule="evenodd" clip-rule="evenodd" d="M538.135 200.04C547.771 197.995 557.755 199.755 567.471 201.374C577.188 202.993 587.275 204.453 596.775 201.845C613.926 197.138 626.947 179.812 644.733 179.951C652.057 180.008 658.96 183.135 666.095 184.79C674.955 186.846 684.185 186.625 693.16 188.091C702.137 189.557 711.409 193.167 716.482 200.715C722.5 209.673 720.85 222.308 714.535 231.06C708.22 239.813 698.106 245.142 687.744 248.162C680.517 250.268 672.816 251.486 666.561 255.677C660.234 259.916 656.103 266.739 650.209 271.56C635.417 283.654 612.397 280.188 597.118 268.715C593.279 265.833 589.721 262.488 585.408 260.379C567.865 251.793 542.635 263.159 527.527 247.537C512.184 231.672 514.37 205.08 538.135 200.04Z" fill="#B57AD2"/>
</g>
<path fill-rule="evenodd" clip-rule="evenodd" d="M533.321 507.288C533.321 507.288 549.394 541.735 551.274 535.357C553.15 528.976 552.53 513.656 551.523 511.469C550.511 509.282 543.941 499.62 543.941 499.62L533.321 507.288Z" fill="#FFB2A0"/>
<path fill-rule="evenodd" clip-rule="evenodd" d="M649.544 228.74C651.031 230.645 650.037 228.599 651.721 231.346C658.72 231.103 663.418 225.181 663.418 225.181C663.418 225.181 674.527 225.475 674.399 223.491C674.272 221.504 663.749 222.246 663.749 222.246C663.749 222.246 674.881 218.75 674.27 217.004C673.663 215.261 660.812 220.823 660.812 220.823C660.812 220.823 673.78 212.775 671.864 211.484C669.949 210.196 657.471 217.222 657.471 217.222C657.471 217.222 668.316 208.316 666.69 207.168C665.068 206.02 650.026 217.612 650.026 217.612C650.245 211.909 646.155 212.109 646.155 212.109L646.324 226.032C646.324 226.032 648.858 227.864 649.544 228.74Z" fill="#FFC6B2"/>
<path fill-rule="evenodd" clip-rule="evenodd" d="M484.877 165.725C482.5 166.163 484.343 165.337 481.258 166.279C476.19 161.447 476.862 153.853 476.862 153.853C476.862 153.853 468.363 146.699 469.772 145.301C471.19 143.899 478.564 151.44 478.564 151.44C478.564 151.44 472.564 141.435 474.178 140.535C475.79 139.636 481.709 152.326 481.709 152.326C481.709 152.326 477.354 137.699 479.644 138.006C481.93 138.312 486.597 151.847 486.597 151.847C486.597 151.847 484.402 137.991 486.375 138.21C488.351 138.428 491.906 157.082 491.906 157.082C495.527 152.672 498.451 155.538 498.451 155.538L489.272 165.632C489.272 165.632 485.97 165.525 484.877 165.725Z" fill="#FFC6B2"/>
<path fill-rule="evenodd" clip-rule="evenodd" d="M542.537 223.884C539.463 223.379 532.03 228.318 528.312 236.368C526.23 240.874 524.798 245.451 527.186 252.779C528.312 256.226 530.666 256.658 531.193 258.202C531.857 260.157 529.656 266.319 529.656 266.319L538.43 269.861C539 265.629 539.646 261.37 543.961 259.532C545.575 258.843 547.303 258.408 548.826 257.534C552.936 255.178 555.132 250.025 556.821 245.805C558.081 242.653 550.244 225.147 542.537 223.884Z" fill="#FFC6B2"/>
<path fill-rule="evenodd" clip-rule="evenodd" d="M532.093 343.522L517.393 337.624C517.393 337.624 473.77 418.511 473.951 440.954C474.132 463.395 533.866 508.327 533.866 508.327L543.94 499.621C543.94 499.621 525.498 467.467 515.64 456.131C505.779 444.791 532.093 343.522 532.093 343.522Z" fill="#FFB2A0"/>
<path fill-rule="evenodd" clip-rule="evenodd" d="M605.077 435.664C605.077 435.664 637.475 420.294 630.964 418.937C624.454 417.586 609.229 419.448 607.133 420.63C605.033 421.814 595.936 429.145 595.936 429.145L605.077 435.664Z" fill="#FFC6B2"/>
<path fill-rule="evenodd" clip-rule="evenodd" d="M546.531 342.82L524.232 350.932C524.232 350.932 501.927 449.028 510.442 464.429C518.955 479.836 542.87 469.641 576.929 451.055L605.457 435.484L595.935 429.146C595.935 429.146 562.738 435.651 553.415 442.136C553.415 442.136 558.28 428.352 564.768 408.896C571.253 389.438 575.727 369.575 546.531 342.82Z" fill="#FFC6B2"/>
<path fill-rule="evenodd" clip-rule="evenodd" d="M519.084 275.99C519.084 269.472 521.182 264.759 527.701 264.759C534.219 264.759 543.23 267.043 543.23 273.562C543.23 280.083 538.093 290.668 531.572 290.668C525.054 290.668 519.084 282.51 519.084 275.99Z" fill="#FFC6B2"/>
<path fill-rule="evenodd" clip-rule="evenodd" d="M524.232 263.825C524.232 263.825 503.963 241.892 499.908 220.406C495.851 198.923 488.963 164.061 488.963 164.061L481.259 166.279C481.259 166.279 477.609 213.922 481.259 221.218C484.906 228.514 502.735 277.092 508.163 289.849L524.232 263.825Z" fill="#FFC6B2"/>
<path fill-rule="evenodd" clip-rule="evenodd" d="M546.008 280.919C546.008 280.919 547.567 274.096 573.198 264.823C598.83 255.552 647.185 225.499 647.185 225.499L652.01 231.018C652.01 231.018 625.736 261.363 610.45 266.685C595.165 272.009 562.698 292.996 559.358 294.674C554.306 297.215 554.368 300.412 546.008 280.919Z" fill="#FFC6B2"/>
<path fill-rule="evenodd" clip-rule="evenodd" d="M524.232 263.825C524.232 263.825 503.638 270.498 503.638 301.83C503.638 301.83 503.651 344.743 508.505 352.549C508.505 352.549 516.395 354.571 526.232 352.549C536.547 350.429 546.531 342.82 546.531 342.82L562.731 294.192L560.793 271.409L538.767 267.157C538.767 267.157 545.086 296.68 522.225 283.988C517.782 281.521 528.761 264.771 528.761 264.771L524.232 263.825Z" fill="#22343D"/>
<path fill-rule="evenodd" clip-rule="evenodd" d="M506.807 289.307L496.659 268.169C496.659 268.169 498.114 255.345 516.743 250.75C516.743 250.75 518.627 257.214 520.693 259.683C522.756 262.151 528.768 264.778 528.768 264.778L506.807 289.307Z" fill="#22343D"/>
<path fill-rule="evenodd" clip-rule="evenodd" d="M545.171 297.804L577.439 291.191C577.439 291.191 583.049 279.568 569.747 265.743C569.747 265.743 544.577 267.263 541.319 267.534C538.112 267.8 540.314 270.27 540.314 270.27L545.171 297.804Z" fill="#22343D"/>
<path fill-rule="evenodd" clip-rule="evenodd" d="M508.453 342.097C508.453 342.097 477.932 398.518 472.89 408.6C472.89 408.6 562.932 449.957 599.484 400.176C599.484 400.176 578.692 356.174 546.549 339.423L532.683 335.271L508.995 341.826" fill="#22343D"/>
<path fill-rule="evenodd" clip-rule="evenodd" d="M555.639 245.271C555.639 245.271 559.116 241.795 561.254 244.201C563.393 246.608 553.5 250.084 553.5 250.084L555.639 245.271Z" fill="#FFC6B2"/>
<path fill-rule="evenodd" clip-rule="evenodd" d="M619.233 197.86C619.267 197.98 617.924 198.562 615.36 199.17C612.802 199.786 609.007 200.344 604.293 200.44C599.582 200.534 593.98 200.115 587.848 199.284C581.711 198.471 575.045 197.276 568.032 196.511C561.03 195.762 554.297 195.626 548.334 196.589C542.37 197.535 537.207 199.489 533.261 201.77C529.315 204.069 526.569 206.62 524.884 208.551C523.188 210.483 522.425 211.717 522.253 211.613C522.159 211.564 522.669 210.174 524.205 208.008C525.731 205.849 528.425 202.999 532.443 200.422C536.457 197.862 541.793 195.662 547.993 194.561C554.201 193.444 561.145 193.53 568.269 194.293C575.399 195.071 582.073 196.334 588.139 197.25C594.202 198.183 599.683 198.755 604.298 198.862C613.549 199.12 619.148 197.479 619.233 197.86Z" fill="#775298"/>
<path fill-rule="evenodd" clip-rule="evenodd" d="M537.934 243.298C537.924 243.434 536.934 243.53 535.422 243.028C535.048 242.897 534.607 242.725 534.196 242.348C533.993 242.16 533.804 241.91 533.689 241.609C533.524 241.189 533.537 240.711 533.701 240.348C533.749 240.275 533.746 240.101 533.842 240.098L534.136 240.088C534.324 240.062 534.547 240.124 534.764 240.164C535.164 240.241 535.292 240.229 535.576 240.249C536.075 240.26 536.591 240.208 537.107 240.094C539.218 239.65 540.631 238.114 541.265 236.85C541.929 235.579 541.987 234.623 542.164 234.634C542.289 234.618 542.536 235.634 541.987 237.169C541.708 237.92 541.222 238.783 540.438 239.539C539.659 240.294 538.579 240.914 537.353 241.182C536.74 241.319 536.125 241.371 535.532 241.34C535.274 241.327 534.868 241.275 534.75 241.249C534.641 241.231 534.654 241.207 534.633 241.22C534.62 241.233 534.613 241.254 534.615 241.285C534.659 241.431 534.738 241.57 534.85 241.695C535.076 241.95 535.404 242.14 535.724 242.299C537.031 242.941 537.958 243.131 537.934 243.298Z" fill="#FF7B5B"/>
<path fill-rule="evenodd" clip-rule="evenodd" d="M530.696 243.674L542.582 248.357C542.582 248.357 532.136 255.559 530.696 243.674Z" fill="white"/>
<path fill-rule="evenodd" clip-rule="evenodd" d="M547.658 245.927C547.236 246.729 545.927 246.869 544.734 246.24C543.54 245.614 542.915 244.454 543.336 243.654C543.758 242.852 545.068 242.711 546.262 243.339C547.455 243.967 548.08 245.125 547.658 245.927Z" fill="#FFB2A0"/>
<path fill-rule="evenodd" clip-rule="evenodd" d="M534.392 238.894C534.032 239.725 532.737 239.966 531.5 239.43C530.263 238.894 529.55 237.787 529.91 236.955C530.269 236.124 531.565 235.884 532.802 236.419C534.04 236.955 534.753 238.063 534.392 238.894Z" fill="#FFB2A0"/>
<path fill-rule="evenodd" clip-rule="evenodd" d="M529.989 256.708C529.989 256.708 534.156 260.198 538.503 259.074C538.503 259.074 537.004 261.321 531.235 260.497C531.235 260.497 531.714 258.02 529.989 256.708Z" fill="#FFA192"/>
<path fill-rule="evenodd" clip-rule="evenodd" d="M546.518 238.463C546.518 238.982 546.096 239.404 545.576 239.404C545.056 239.404 544.634 238.982 544.634 238.463C544.634 237.943 545.056 237.521 545.576 237.521C546.096 237.521 546.518 237.943 546.518 238.463Z" fill="#22343D"/>
<path fill-rule="evenodd" clip-rule="evenodd" d="M538.811 235.687C538.811 236.207 538.389 236.629 537.869 236.629C537.349 236.629 536.929 236.207 536.929 235.687C536.929 235.167 537.349 234.745 537.869 234.745C538.389 234.745 538.811 235.167 538.811 235.687Z" fill="#22343D"/>
<path fill-rule="evenodd" clip-rule="evenodd" d="M549.544 235.954C549.253 236.078 548.691 235.397 547.84 234.847C547.007 234.272 546.163 234.014 546.165 233.699C546.137 233.397 547.316 233.152 548.461 233.92C549.607 234.683 549.834 235.863 549.544 235.954Z" fill="#775298"/>
<path fill-rule="evenodd" clip-rule="evenodd" d="M535.961 231.385C535.942 231.091 536.954 230.721 538.308 230.757C539.687 230.786 540.705 231.455 540.563 231.734C540.433 232.017 539.474 231.895 538.264 231.872C537.048 231.837 535.981 231.705 535.961 231.385Z" fill="#775298"/>
<path fill-rule="evenodd" clip-rule="evenodd" d="M540.206 521.285C540.206 521.285 545.15 538.834 550.256 537.397C555.361 535.961 551.522 511.47 551.522 511.47L546.428 503.42C546.428 503.42 551.214 544.416 540.206 521.285Z" fill="#22343D"/>
<path fill-rule="evenodd" clip-rule="evenodd" d="M602.557 423.995C602.557 423.995 606.152 420.073 610.51 419.42C614.871 418.766 630.452 416.913 632.74 418.983C635.029 421.053 620.111 427.995 620.111 427.995C620.111 427.995 625.309 424.682 623.151 423.451C619.336 421.271 602.557 423.995 602.557 423.995Z" fill="#22343D"/>
<path fill-rule="evenodd" clip-rule="evenodd" d="M596.375 428.694L601.253 438.597L603.914 437.119L597.409 427.364L596.375 428.694Z" fill="#22343D"/>
<path fill-rule="evenodd" clip-rule="evenodd" d="M541.826 495.65L529.852 506.441L533.4 509.398L543.452 498.459L541.826 495.65Z" fill="#22343D"/>
<path fill-rule="evenodd" clip-rule="evenodd" d="M291.483 388.223C288.077 379.773 286.768 370.366 281.687 362.804C274.375 351.924 260.33 346.525 254.397 334.835C251.876 329.869 251.085 324.19 251.059 318.622C251.011 307.607 254.309 295.897 262.818 288.897C272.595 280.854 287.265 280.966 298.717 286.369C310.165 291.773 318.913 301.582 326.35 311.827C333.789 322.071 340.301 333.065 348.963 342.297C355.385 349.142 363.003 355.046 367.84 363.088C381.103 385.136 367.457 413.033 344.044 420.99C323.471 427.98 298.6 405.889 291.483 388.223Z" fill="#22343D"/>
<path fill-rule="evenodd" clip-rule="evenodd" d="M262.174 543.723C264.211 545.397 261.989 544.238 264.951 546.167C264.29 553.566 257.446 558.227 257.446 558.227C257.446 558.227 257.157 570.007 254.958 569.765C252.754 569.527 254.166 558.422 254.166 558.422C254.166 558.422 249.659 570.025 247.753 569.286C245.848 568.551 252.746 555.237 252.746 555.237C252.746 555.237 243.078 568.543 241.749 566.445C240.423 564.349 248.93 551.509 248.93 551.509C248.93 551.509 238.425 562.52 237.238 560.738C236.053 558.96 249.775 543.645 249.775 543.645C243.424 543.575 243.873 539.253 243.873 539.253L259.342 540.17C259.342 540.17 261.237 542.95 262.174 543.723Z" fill="#FFC6B2"/>
<path fill-rule="evenodd" clip-rule="evenodd" d="M409.954 321.557C412.601 322.021 410.547 321.144 413.981 322.143C419.623 317.019 418.874 308.967 418.874 308.967C418.874 308.967 428.335 301.381 426.766 299.898C425.188 298.413 416.981 306.406 416.981 306.406C416.981 306.406 423.658 295.799 421.862 294.844C420.069 293.891 413.481 307.348 413.481 307.348C413.481 307.348 418.328 291.837 415.779 292.162C413.236 292.488 408.041 306.84 408.041 306.84C408.041 306.84 410.483 292.147 408.286 292.379C406.088 292.61 402.531 311.858 402.531 311.858C397.351 307.643 393.725 310.342 393.725 310.342L405.063 321.458C405.063 321.458 408.738 321.346 409.954 321.557Z" fill="#FFC6B2"/>
<path fill-rule="evenodd" clip-rule="evenodd" d="M345.194 385.89C349.98 385.143 364.573 394.6 360.86 413.803C360.55 415.415 358.443 418.965 357.919 420.433C357.256 422.292 362.419 429.097 362.419 429.097L349.091 433.354C348.523 429.329 349.48 423.446 345.173 421.697C343.562 421.043 341.838 420.629 340.318 419.799C336.214 417.559 334.024 412.657 332.338 408.645C331.079 405.646 330.121 402.421 330.157 399.167C330.245 390.974 337.502 387.092 345.194 385.89Z" fill="#FFC6B2"/>
<path fill-rule="evenodd" clip-rule="evenodd" d="M371.882 438.483C371.882 431.571 369.69 428.933 362.434 428.933C355.179 428.933 345.601 431.571 345.601 438.483C345.601 445.397 350.724 454.048 357.983 454.048C365.237 454.048 371.882 445.397 371.882 438.483Z" fill="#FFC6B2"/>
<path fill-rule="evenodd" clip-rule="evenodd" d="M366.152 425.583C366.152 425.583 388.713 402.325 393.225 379.541C397.74 356.76 405.408 319.792 405.408 319.792L413.982 322.143C413.982 322.143 418.045 372.665 413.982 380.402C409.922 388.14 386.907 441.873 387.358 455.627L366.152 425.583Z" fill="#FFC6B2"/>
<path fill-rule="evenodd" clip-rule="evenodd" d="M325.937 436.844C325.937 436.844 318.266 438.133 306.533 464.786C294.801 491.437 258.702 541.053 258.702 541.053L264.569 546.455C264.569 546.455 299.765 520.236 306.533 504.332C313.3 488.428 321.874 468.655 325.937 469.512C329.996 470.374 347.145 446.729 325.937 436.844Z" fill="#FFC6B2"/>
<path fill-rule="evenodd" clip-rule="evenodd" d="M386.336 459.181L396.841 430.19C396.841 430.19 395.221 416.593 374.487 411.719L362.742 428.639L386.336 459.181Z" fill="#B57AD2"/>
<path fill-rule="evenodd" clip-rule="evenodd" d="M329.439 434.619C329.439 434.619 317.046 435.663 307 457.724C307 457.724 318.048 472.974 326.13 473.489C326.13 473.489 356.147 447.834 329.439 434.619Z" fill="#B57AD2"/>
<path fill-rule="evenodd" clip-rule="evenodd" d="M363.491 696.238C363.491 696.238 345.601 732.766 343.51 726.004C341.421 719.238 342.111 702.991 343.232 700.673C344.357 698.352 351.671 688.107 351.671 688.107L363.491 696.238Z" fill="#FFC6B2"/>
<path fill-rule="evenodd" clip-rule="evenodd" d="M364.858 522.577L381.219 516.323C381.219 516.323 429.773 602.099 429.571 625.897C429.37 649.692 362.885 697.341 362.885 697.341L351.671 688.107C351.671 688.107 383.184 641.78 394.156 629.758C399.643 623.746 360.362 594.282 354.412 565.933C348.462 537.583 364.858 522.577 364.858 522.577Z" fill="#22343D"/>
<path fill-rule="evenodd" clip-rule="evenodd" d="M266.49 677.103C266.49 677.103 233.025 701.767 234.417 694.845C235.814 687.917 244.238 673.778 246.351 672.204C248.467 670.634 259.892 664.718 259.892 664.718L266.49 677.103Z" fill="#FFC6B2"/>
<path fill-rule="evenodd" clip-rule="evenodd" d="M320.346 552.951L368.75 524.902C368.75 524.902 370.671 622.336 359.051 643.404C347.432 664.471 265.422 677.818 265.422 677.818L259.892 664.718C259.892 664.718 310.489 634.576 326.023 628.677C341.559 622.775 320.346 552.951 320.346 552.951Z" fill="#22343D"/>
<path fill-rule="evenodd" clip-rule="evenodd" d="M349.174 505.716C349.174 505.716 313.533 518.333 320.347 552.952C327.159 587.569 338.515 594.059 338.515 594.059L358.954 560.525L379.475 516.609L358.954 514.006L349.174 505.716Z" fill="#22343D"/>
<path fill-rule="evenodd" clip-rule="evenodd" d="M366.152 425.583C366.152 425.583 392.392 440.287 392.392 473.512C392.392 473.512 389.059 511.391 383.656 519.667C383.656 519.667 374.874 521.812 363.924 519.667C352.444 517.42 341.333 509.352 341.333 509.352L332.366 462.976L325.39 435.898L329.172 434.651L348.907 432.483C348.907 432.483 346.071 461.96 368.107 447.322C372.748 444.239 362.33 428.869 362.33 428.869L366.152 425.583Z" fill="#B57AD2"/>
<path fill-rule="evenodd" clip-rule="evenodd" d="M382.214 300.029L437.23 332.119L468.178 273.67L416.599 245.018L382.214 300.029Z" fill="white"/>
<path fill-rule="evenodd" clip-rule="evenodd" d="M458.751 579.82L498.099 555.465L465.591 498.728L429.622 522.049L458.751 579.82Z" fill="white"/>
<path fill-rule="evenodd" clip-rule="evenodd" d="M265.013 338.054C265.117 337.962 266.332 339.064 268.253 341.313C270.166 343.565 272.775 346.989 275.394 351.61C278.024 356.212 280.625 362.051 282.483 368.828C284.405 375.555 285.695 383.116 288.65 390.4C290.185 393.998 292.044 397.348 294.257 400.31C296.49 403.252 298.967 405.833 301.516 408.085C306.725 412.469 312.183 415.485 317.047 417.227C321.905 418.993 326.067 419.786 328.961 420.07C331.852 420.39 333.485 420.437 333.487 420.627C333.495 420.745 331.866 420.994 328.898 420.937C325.931 420.914 321.613 420.348 316.527 418.717C311.438 417.11 305.688 414.135 300.189 409.656C297.492 407.353 294.871 404.687 292.51 401.623C290.168 398.541 288.191 395.018 286.585 391.246C283.506 383.633 282.289 376.005 280.498 369.367C278.788 362.707 276.411 356.975 274.008 352.364C271.619 347.74 269.248 344.234 267.567 341.844C265.877 339.459 264.886 338.166 265.013 338.054Z" fill="#22343D"/>
<path fill-rule="evenodd" clip-rule="evenodd" d="M332.607 300.511C333.011 300.449 333.404 305.864 336.434 313.874C337.948 317.863 340.198 322.453 343.431 327.055C345.047 329.359 346.907 331.628 349.011 333.89C351.101 336.162 353.378 338.469 355.529 341.057C359.844 346.281 362.812 351.926 365.607 356.909C368.382 361.941 370.592 366.728 371.716 371.009C372.889 375.278 372.957 378.952 372.585 381.39C372.197 383.838 371.588 385.079 371.487 385.044C371.294 384.994 371.609 383.684 371.719 381.312C371.815 378.943 371.513 375.491 370.203 371.456C368.936 367.405 366.658 362.839 363.814 357.914C360.927 352.991 357.933 347.459 353.811 342.481C351.742 339.99 349.498 337.691 347.395 335.363C345.281 333.046 343.358 330.633 341.736 328.219C338.482 323.385 336.309 318.568 334.948 314.403C333.557 310.24 332.964 306.726 332.683 304.305C332.405 301.879 332.48 300.522 332.607 300.511Z" fill="#22343D"/>
<path fill-rule="evenodd" clip-rule="evenodd" d="M349.473 406.764C349.452 406.608 350.349 406.465 351.195 405.471C351.39 405.242 351.586 404.908 351.583 404.713C351.578 404.503 351.432 404.14 351.18 403.93C350.919 403.696 350.628 403.583 350.245 403.622C349.849 403.651 349.366 403.847 348.736 403.942C347.356 404.125 346.279 403.346 345.571 402.714C344.844 402.05 344.288 401.376 343.874 400.772C343.049 399.556 342.793 398.678 342.92 398.613C343.066 398.535 343.563 399.262 344.493 400.282C344.957 400.788 345.544 401.37 346.235 401.93C346.918 402.474 347.752 402.969 348.585 402.838C349.027 402.781 349.542 402.574 350.168 402.532C350.807 402.469 351.516 402.763 351.906 403.201C352.32 403.649 352.552 404.177 352.504 404.802C352.38 405.442 352.041 405.741 351.76 406.02C350.547 407.082 349.435 406.908 349.473 406.764Z" fill="#FF7B5B"/>
<path fill-rule="evenodd" clip-rule="evenodd" d="M355.975 407.679L345.409 411.52C345.409 411.52 354.374 419.363 355.975 407.679Z" fill="white"/>
<path fill-rule="evenodd" clip-rule="evenodd" d="M344.354 407.025C344.777 407.827 344.151 408.986 342.958 409.613C341.764 410.241 340.456 410.101 340.033 409.299C339.611 408.499 340.236 407.339 341.43 406.711C342.623 406.083 343.932 406.222 344.354 407.025Z" fill="#FFB2A0"/>
<path fill-rule="evenodd" clip-rule="evenodd" d="M356.881 400.602C357.227 401.44 356.496 402.534 355.25 403.049C354.003 403.565 352.712 403.304 352.366 402.466C352.021 401.628 352.751 400.534 353.998 400.019C355.244 399.504 356.535 399.764 356.881 400.602Z" fill="#FFB2A0"/>
<path fill-rule="evenodd" clip-rule="evenodd" d="M345.721 421.978C345.721 421.978 349.257 422.698 353.763 421.573C353.763 421.573 351.541 423.73 347.912 424.232C347.912 424.232 347.098 422.729 345.721 421.978Z" fill="#FFA192"/>
<path fill-rule="evenodd" clip-rule="evenodd" d="M349.333 398.23C349.729 398.566 349.778 399.16 349.442 399.556C349.106 399.953 348.513 400.001 348.115 399.665C347.719 399.331 347.67 398.736 348.006 398.339C348.343 397.942 348.937 397.894 349.333 398.23Z" fill="#22343D"/>
<path fill-rule="evenodd" clip-rule="evenodd" d="M342.233 402.314C342.629 402.65 342.678 403.245 342.342 403.641C342.007 404.037 341.413 404.086 341.015 403.75C340.619 403.414 340.57 402.821 340.906 402.423C341.242 402.027 341.837 401.978 342.233 402.314Z" fill="#22343D"/>
<path fill-rule="evenodd" clip-rule="evenodd" d="M349.375 394.3C349.281 394.602 348.399 394.59 347.43 394.884C346.452 395.147 345.71 395.625 345.47 395.418C345.221 395.246 345.796 394.188 347.123 393.811C348.446 393.429 349.494 394.02 349.375 394.3Z" fill="#22343D"/>
<path fill-rule="evenodd" clip-rule="evenodd" d="M337.109 401.707C336.872 401.532 337.244 400.522 338.147 399.512C339.059 398.479 340.228 398.135 340.35 398.422C340.482 398.703 339.769 399.358 338.968 400.265C338.156 401.17 337.365 401.9 337.109 401.707Z" fill="#22343D"/>
<path fill-rule="evenodd" clip-rule="evenodd" d="M333.124 409.552C333.124 409.552 329.735 406.706 328.108 409.281C326.482 411.856 335.428 413.212 335.428 413.212L333.124 409.552Z" fill="#FFC6B2"/>
<path fill-rule="evenodd" clip-rule="evenodd" d="M251.635 669.088C251.635 669.088 246.776 671.2 245.51 672.468C244.242 673.735 232.623 693.8 234.102 696.335C235.581 698.869 247.233 690.265 247.233 690.265C247.233 690.265 237.483 692.112 251.635 669.088Z" fill="#B57AD2"/>
<path fill-rule="evenodd" clip-rule="evenodd" d="M346.445 695.621C346.445 695.621 342.994 699.351 342.461 701.064C341.929 702.774 340.975 725.941 343.465 727.496C345.952 729.053 352.753 716.27 352.753 716.27C352.753 716.27 344.623 722.638 346.445 695.675" fill="#B57AD2"/>
<defs>
<linearGradient id="paint0_linear" x1="-182.843" y1="0" x2="-182.843" y2="1226.01" gradientUnits="userSpaceOnUse">
<stop stop-color="#B57AD2" stop-opacity="0.776388"/>
<stop offset="1" stop-color="#FFF4E5" stop-opacity="0.01"/>
</linearGradient>
</defs>
</svg>
