<svg width="1600" height="870" viewBox="0 0 1600 870" fill="none" xmlns="http://www.w3.org/2000/svg">
<g opacity="0.6" clip-path="url(#clip0)">
<path d="M1697 493.364C1647.38 553.026 1545.06 479.618 1400.04 516.048C1274.44 547.615 1268.9 624.023 1167.94 622.53C1094.18 621.453 1012.91 580.72 967.095 507.585C916.569 426.949 932.376 343.33 936.884 323.024C957.003 231.945 1021.73 182.674 1044.57 165.828C1138.7 96.4669 1246.3 105.808 1297.93 110.263C1491.83 127.062 1702.04 260.461 1714.67 410.389C1716.34 430.017 1719.39 466.423 1697 493.364Z" fill="url(#paint0_linear)"/>
</g>
<g opacity="0.3">
<mask id="mask0" mask-type="alpha" maskUnits="userSpaceOnUse" x="-1" y="127" width="11" height="11">
<path d="M4.22838 137.425C7.11594 137.425 9.45677 135.091 9.45677 132.213C9.45677 129.334 7.11594 127 4.22838 127C1.34082 127 -1 129.334 -1 132.213C-1 135.091 1.34082 137.425 4.22838 137.425Z" fill="url(#paint1_linear)"/>
</mask>
<g mask="url(#mask0)">
<path d="M4.22838 137.425C7.11594 137.425 9.45677 135.091 9.45677 132.213C9.45677 129.334 7.11594 127 4.22838 127C1.34082 127 -1 129.334 -1 132.213C-1 135.091 1.34082 137.425 4.22838 137.425Z" fill="url(#paint2_linear)"/>
</g>
<mask id="mask1" mask-type="alpha" maskUnits="userSpaceOnUse" x="29" y="127" width="11" height="11">
<path d="M34.5095 137.425C37.397 137.425 39.7378 135.091 39.7378 132.213C39.7378 129.334 37.397 127 34.5095 127C31.6219 127 29.2811 129.334 29.2811 132.213C29.2811 135.091 31.6219 137.425 34.5095 137.425Z" fill="url(#paint3_linear)"/>
</mask>
<g mask="url(#mask1)">
<path d="M34.5095 137.425C37.397 137.425 39.7378 135.091 39.7378 132.213C39.7378 129.334 37.397 127 34.5095 127C31.6219 127 29.2811 129.334 29.2811 132.213C29.2811 135.091 31.6219 137.425 34.5095 137.425Z" fill="url(#paint4_linear)"/>
</g>
<mask id="mask2" mask-type="alpha" maskUnits="userSpaceOnUse" x="59" y="127" width="12" height="11">
<path d="M64.7905 137.425C67.6781 137.425 70.0189 135.091 70.0189 132.213C70.0189 129.334 67.6781 127 64.7905 127C61.903 127 59.5621 129.334 59.5621 132.213C59.5621 135.091 61.903 137.425 64.7905 137.425Z" fill="url(#paint5_linear)"/>
</mask>
<g mask="url(#mask2)">
<path d="M64.7905 137.425C67.6781 137.425 70.0189 135.091 70.0189 132.213C70.0189 129.334 67.6781 127 64.7905 127C61.903 127 59.5621 129.334 59.5621 132.213C59.5621 135.091 61.903 137.425 64.7905 137.425Z" fill="url(#paint6_linear)"/>
</g>
<mask id="mask3" mask-type="alpha" maskUnits="userSpaceOnUse" x="89" y="127" width="12" height="11">
<path d="M95.0716 137.425C97.9592 137.425 100.3 135.091 100.3 132.213C100.3 129.334 97.9592 127 95.0716 127C92.184 127 89.8432 129.334 89.8432 132.213C89.8432 135.091 92.184 137.425 95.0716 137.425Z" fill="url(#paint7_linear)"/>
</mask>
<g mask="url(#mask3)">
<path d="M95.0716 137.425C97.9592 137.425 100.3 135.091 100.3 132.213C100.3 129.334 97.9592 127 95.0716 127C92.184 127 89.8432 129.334 89.8432 132.213C89.8432 135.091 92.184 137.425 95.0716 137.425Z" fill="url(#paint8_linear)"/>
</g>
<mask id="mask4" mask-type="alpha" maskUnits="userSpaceOnUse" x="120" y="127" width="11" height="11">
<path d="M125.353 137.425C128.24 137.425 130.581 135.091 130.581 132.213C130.581 129.334 128.24 127 125.353 127C122.465 127 120.124 129.334 120.124 132.213C120.124 135.091 122.465 137.425 125.353 137.425Z" fill="url(#paint9_linear)"/>
</mask>
<g mask="url(#mask4)">
<path d="M125.353 137.425C128.24 137.425 130.581 135.091 130.581 132.213C130.581 129.334 128.24 127 125.353 127C122.465 127 120.124 129.334 120.124 132.213C120.124 135.091 122.465 137.425 125.353 137.425Z" fill="url(#paint10_linear)"/>
</g>
<mask id="mask5" mask-type="alpha" maskUnits="userSpaceOnUse" x="-1" y="153" width="11" height="11">
<path d="M4.22838 163.596C7.11594 163.596 9.45677 161.262 9.45677 158.384C9.45677 155.505 7.11594 153.171 4.22838 153.171C1.34082 153.171 -1 155.505 -1 158.384C-1 161.262 1.34082 163.596 4.22838 163.596Z" fill="url(#paint11_linear)"/>
</mask>
<g mask="url(#mask5)">
<path d="M4.22838 163.596C7.11594 163.596 9.45677 161.262 9.45677 158.384C9.45677 155.505 7.11594 153.171 4.22838 153.171C1.34082 153.171 -1 155.505 -1 158.384C-1 161.262 1.34082 163.596 4.22838 163.596Z" fill="url(#paint12_linear)"/>
</g>
<mask id="mask6" mask-type="alpha" maskUnits="userSpaceOnUse" x="29" y="153" width="11" height="11">
<path d="M34.5095 163.596C37.397 163.596 39.7378 161.262 39.7378 158.384C39.7378 155.505 37.397 153.171 34.5095 153.171C31.6219 153.171 29.2811 155.505 29.2811 158.384C29.2811 161.262 31.6219 163.596 34.5095 163.596Z" fill="url(#paint13_linear)"/>
</mask>
<g mask="url(#mask6)">
<path d="M34.5095 163.596C37.397 163.596 39.7378 161.262 39.7378 158.384C39.7378 155.505 37.397 153.171 34.5095 153.171C31.6219 153.171 29.2811 155.505 29.2811 158.384C29.2811 161.262 31.6219 163.596 34.5095 163.596Z" fill="url(#paint14_linear)"/>
</g>
<mask id="mask7" mask-type="alpha" maskUnits="userSpaceOnUse" x="59" y="153" width="12" height="11">
<path d="M64.7905 163.596C67.6781 163.596 70.0189 161.262 70.0189 158.384C70.0189 155.505 67.6781 153.171 64.7905 153.171C61.903 153.171 59.5621 155.505 59.5621 158.384C59.5621 161.262 61.903 163.596 64.7905 163.596Z" fill="url(#paint15_linear)"/>
</mask>
<g mask="url(#mask7)">
<path d="M64.7905 163.596C67.6781 163.596 70.0189 161.262 70.0189 158.384C70.0189 155.505 67.6781 153.171 64.7905 153.171C61.903 153.171 59.5621 155.505 59.5621 158.384C59.5621 161.262 61.903 163.596 64.7905 163.596Z" fill="url(#paint16_linear)"/>
</g>
<mask id="mask8" mask-type="alpha" maskUnits="userSpaceOnUse" x="89" y="153" width="12" height="11">
<path d="M95.0716 163.596C97.9592 163.596 100.3 161.262 100.3 158.384C100.3 155.505 97.9592 153.171 95.0716 153.171C92.184 153.171 89.8432 155.505 89.8432 158.384C89.8432 161.262 92.184 163.596 95.0716 163.596Z" fill="url(#paint17_linear)"/>
</mask>
<g mask="url(#mask8)">
<path d="M95.0716 163.596C97.9592 163.596 100.3 161.262 100.3 158.384C100.3 155.505 97.9592 153.171 95.0716 153.171C92.184 153.171 89.8432 155.505 89.8432 158.384C89.8432 161.262 92.184 163.596 95.0716 163.596Z" fill="url(#paint18_linear)"/>
</g>
<mask id="mask9" mask-type="alpha" maskUnits="userSpaceOnUse" x="120" y="153" width="11" height="11">
<path d="M125.353 163.596C128.24 163.596 130.581 161.262 130.581 158.384C130.581 155.505 128.24 153.171 125.353 153.171C122.465 153.171 120.124 155.505 120.124 158.384C120.124 161.262 122.465 163.596 125.353 163.596Z" fill="url(#paint19_linear)"/>
</mask>
<g mask="url(#mask9)">
<path d="M125.353 163.596C128.24 163.596 130.581 161.262 130.581 158.384C130.581 155.505 128.24 153.171 125.353 153.171C122.465 153.171 120.124 155.505 120.124 158.384C120.124 161.262 122.465 163.596 125.353 163.596Z" fill="url(#paint20_linear)"/>
</g>
<mask id="mask10" mask-type="alpha" maskUnits="userSpaceOnUse" x="-1" y="179" width="11" height="11">
<path d="M4.22838 189.713C7.11594 189.713 9.45677 187.379 9.45677 184.5C9.45677 181.621 7.11594 179.288 4.22838 179.288C1.34082 179.288 -1 181.621 -1 184.5C-1 187.379 1.34082 189.713 4.22838 189.713Z" fill="url(#paint21_linear)"/>
</mask>
<g mask="url(#mask10)">
<path d="M4.22838 189.713C7.11594 189.713 9.45677 187.379 9.45677 184.5C9.45677 181.621 7.11594 179.288 4.22838 179.288C1.34082 179.288 -1 181.621 -1 184.5C-1 187.379 1.34082 189.713 4.22838 189.713Z" fill="url(#paint22_linear)"/>
</g>
<mask id="mask11" mask-type="alpha" maskUnits="userSpaceOnUse" x="29" y="179" width="11" height="11">
<path d="M34.5095 189.713C37.397 189.713 39.7378 187.379 39.7378 184.5C39.7378 181.621 37.397 179.288 34.5095 179.288C31.6219 179.288 29.2811 181.621 29.2811 184.5C29.2811 187.379 31.6219 189.713 34.5095 189.713Z" fill="url(#paint23_linear)"/>
</mask>
<g mask="url(#mask11)">
<path d="M34.5095 189.713C37.397 189.713 39.7378 187.379 39.7378 184.5C39.7378 181.621 37.397 179.288 34.5095 179.288C31.6219 179.288 29.2811 181.621 29.2811 184.5C29.2811 187.379 31.6219 189.713 34.5095 189.713Z" fill="url(#paint24_linear)"/>
</g>
<mask id="mask12" mask-type="alpha" maskUnits="userSpaceOnUse" x="59" y="179" width="12" height="11">
<path d="M64.7905 189.713C67.6781 189.713 70.0189 187.379 70.0189 184.5C70.0189 181.621 67.6781 179.288 64.7905 179.288C61.903 179.288 59.5621 181.621 59.5621 184.5C59.5621 187.379 61.903 189.713 64.7905 189.713Z" fill="url(#paint25_linear)"/>
</mask>
<g mask="url(#mask12)">
<path d="M64.7905 189.713C67.6781 189.713 70.0189 187.379 70.0189 184.5C70.0189 181.621 67.6781 179.288 64.7905 179.288C61.903 179.288 59.5621 181.621 59.5621 184.5C59.5621 187.379 61.903 189.713 64.7905 189.713Z" fill="url(#paint26_linear)"/>
</g>
<mask id="mask13" mask-type="alpha" maskUnits="userSpaceOnUse" x="89" y="179" width="12" height="11">
<path d="M95.0716 189.713C97.9592 189.713 100.3 187.379 100.3 184.5C100.3 181.621 97.9592 179.288 95.0716 179.288C92.184 179.288 89.8432 181.621 89.8432 184.5C89.8432 187.379 92.184 189.713 95.0716 189.713Z" fill="url(#paint27_linear)"/>
</mask>
<g mask="url(#mask13)">
<path d="M95.0716 189.713C97.9592 189.713 100.3 187.379 100.3 184.5C100.3 181.621 97.9592 179.288 95.0716 179.288C92.184 179.288 89.8432 181.621 89.8432 184.5C89.8432 187.379 92.184 189.713 95.0716 189.713Z" fill="url(#paint28_linear)"/>
</g>
<mask id="mask14" mask-type="alpha" maskUnits="userSpaceOnUse" x="120" y="179" width="11" height="11">
<path d="M125.353 189.713C128.24 189.713 130.581 187.379 130.581 184.5C130.581 181.621 128.24 179.288 125.353 179.288C122.465 179.288 120.124 181.621 120.124 184.5C120.124 187.379 122.465 189.713 125.353 189.713Z" fill="url(#paint29_linear)"/>
</mask>
<g mask="url(#mask14)">
<path d="M125.353 189.713C128.24 189.713 130.581 187.379 130.581 184.5C130.581 181.621 128.24 179.288 125.353 179.288C122.465 179.288 120.124 181.621 120.124 184.5C120.124 187.379 122.465 189.713 125.353 189.713Z" fill="url(#paint30_linear)"/>
</g>
<mask id="mask15" mask-type="alpha" maskUnits="userSpaceOnUse" x="-1" y="205" width="11" height="11">
<path d="M4.22838 215.883C7.11594 215.883 9.45677 213.55 9.45677 210.671C9.45677 207.792 7.11594 205.458 4.22838 205.458C1.34082 205.458 -1 207.792 -1 210.671C-1 213.55 1.34082 215.883 4.22838 215.883Z" fill="url(#paint31_linear)"/>
</mask>
<g mask="url(#mask15)">
<path d="M4.22838 215.883C7.11594 215.883 9.45677 213.55 9.45677 210.671C9.45677 207.792 7.11594 205.458 4.22838 205.458C1.34082 205.458 -1 207.792 -1 210.671C-1 213.55 1.34082 215.883 4.22838 215.883Z" fill="url(#paint32_linear)"/>
</g>
<mask id="mask16" mask-type="alpha" maskUnits="userSpaceOnUse" x="29" y="205" width="11" height="11">
<path d="M34.5095 215.883C37.397 215.883 39.7378 213.55 39.7378 210.671C39.7378 207.792 37.397 205.458 34.5095 205.458C31.6219 205.458 29.2811 207.792 29.2811 210.671C29.2811 213.55 31.6219 215.883 34.5095 215.883Z" fill="url(#paint33_linear)"/>
</mask>
<g mask="url(#mask16)">
<path d="M34.5095 215.883C37.397 215.883 39.7378 213.55 39.7378 210.671C39.7378 207.792 37.397 205.458 34.5095 205.458C31.6219 205.458 29.2811 207.792 29.2811 210.671C29.2811 213.55 31.6219 215.883 34.5095 215.883Z" fill="url(#paint34_linear)"/>
</g>
<mask id="mask17" mask-type="alpha" maskUnits="userSpaceOnUse" x="59" y="205" width="12" height="11">
<path d="M64.7905 215.883C67.6781 215.883 70.0189 213.55 70.0189 210.671C70.0189 207.792 67.6781 205.458 64.7905 205.458C61.903 205.458 59.5621 207.792 59.5621 210.671C59.5621 213.55 61.903 215.883 64.7905 215.883Z" fill="url(#paint35_linear)"/>
</mask>
<g mask="url(#mask17)">
<path d="M64.7905 215.883C67.6781 215.883 70.0189 213.55 70.0189 210.671C70.0189 207.792 67.6781 205.458 64.7905 205.458C61.903 205.458 59.5621 207.792 59.5621 210.671C59.5621 213.55 61.903 215.883 64.7905 215.883Z" fill="url(#paint36_linear)"/>
</g>
<mask id="mask18" mask-type="alpha" maskUnits="userSpaceOnUse" x="89" y="205" width="12" height="11">
<path d="M95.0716 215.883C97.9592 215.883 100.3 213.55 100.3 210.671C100.3 207.792 97.9592 205.458 95.0716 205.458C92.184 205.458 89.8432 207.792 89.8432 210.671C89.8432 213.55 92.184 215.883 95.0716 215.883Z" fill="url(#paint37_linear)"/>
</mask>
<g mask="url(#mask18)">
<path d="M95.0716 215.883C97.9592 215.883 100.3 213.55 100.3 210.671C100.3 207.792 97.9592 205.458 95.0716 205.458C92.184 205.458 89.8432 207.792 89.8432 210.671C89.8432 213.55 92.184 215.883 95.0716 215.883Z" fill="url(#paint38_linear)"/>
</g>
<mask id="mask19" mask-type="alpha" maskUnits="userSpaceOnUse" x="120" y="205" width="11" height="11">
<path d="M125.353 215.883C128.24 215.883 130.581 213.55 130.581 210.671C130.581 207.792 128.24 205.458 125.353 205.458C122.465 205.458 120.124 207.792 120.124 210.671C120.124 213.55 122.465 215.883 125.353 215.883Z" fill="url(#paint39_linear)"/>
</mask>
<g mask="url(#mask19)">
<path d="M125.353 215.883C128.24 215.883 130.581 213.55 130.581 210.671C130.581 207.792 128.24 205.458 125.353 205.458C122.465 205.458 120.124 207.792 120.124 210.671C120.124 213.55 122.465 215.883 125.353 215.883Z" fill="url(#paint40_linear)"/>
</g>
<mask id="mask20" mask-type="alpha" maskUnits="userSpaceOnUse" x="-1" y="231" width="11" height="12">
<path d="M4.22838 242C7.11594 242 9.45677 239.666 9.45677 236.788C9.45677 233.909 7.11594 231.575 4.22838 231.575C1.34082 231.575 -1 233.909 -1 236.788C-1 239.666 1.34082 242 4.22838 242Z" fill="url(#paint41_linear)"/>
</mask>
<g mask="url(#mask20)">
<path d="M4.22838 242C7.11594 242 9.45677 239.666 9.45677 236.788C9.45677 233.909 7.11594 231.575 4.22838 231.575C1.34082 231.575 -1 233.909 -1 236.788C-1 239.666 1.34082 242 4.22838 242Z" fill="url(#paint42_linear)"/>
</g>
<mask id="mask21" mask-type="alpha" maskUnits="userSpaceOnUse" x="29" y="231" width="11" height="12">
<path d="M34.5095 242C37.397 242 39.7378 239.666 39.7378 236.788C39.7378 233.909 37.397 231.575 34.5095 231.575C31.6219 231.575 29.2811 233.909 29.2811 236.788C29.2811 239.666 31.6219 242 34.5095 242Z" fill="url(#paint43_linear)"/>
</mask>
<g mask="url(#mask21)">
<path d="M34.5095 242C37.397 242 39.7378 239.666 39.7378 236.788C39.7378 233.909 37.397 231.575 34.5095 231.575C31.6219 231.575 29.2811 233.909 29.2811 236.788C29.2811 239.666 31.6219 242 34.5095 242Z" fill="url(#paint44_linear)"/>
</g>
<mask id="mask22" mask-type="alpha" maskUnits="userSpaceOnUse" x="59" y="231" width="12" height="12">
<path d="M64.7905 242C67.6781 242 70.0189 239.666 70.0189 236.788C70.0189 233.909 67.6781 231.575 64.7905 231.575C61.903 231.575 59.5621 233.909 59.5621 236.788C59.5621 239.666 61.903 242 64.7905 242Z" fill="url(#paint45_linear)"/>
</mask>
<g mask="url(#mask22)">
<path d="M64.7905 242C67.6781 242 70.0189 239.666 70.0189 236.788C70.0189 233.909 67.6781 231.575 64.7905 231.575C61.903 231.575 59.5621 233.909 59.5621 236.788C59.5621 239.666 61.903 242 64.7905 242Z" fill="url(#paint46_linear)"/>
</g>
<mask id="mask23" mask-type="alpha" maskUnits="userSpaceOnUse" x="89" y="231" width="12" height="12">
<path d="M95.0716 242C97.9592 242 100.3 239.666 100.3 236.788C100.3 233.909 97.9592 231.575 95.0716 231.575C92.184 231.575 89.8432 233.909 89.8432 236.788C89.8432 239.666 92.184 242 95.0716 242Z" fill="url(#paint47_linear)"/>
</mask>
<g mask="url(#mask23)">
<path d="M95.0716 242C97.9592 242 100.3 239.666 100.3 236.788C100.3 233.909 97.9592 231.575 95.0716 231.575C92.184 231.575 89.8432 233.909 89.8432 236.788C89.8432 239.666 92.184 242 95.0716 242Z" fill="url(#paint48_linear)"/>
</g>
<mask id="mask24" mask-type="alpha" maskUnits="userSpaceOnUse" x="120" y="231" width="11" height="12">
<path d="M125.353 242C128.24 242 130.581 239.666 130.581 236.788C130.581 233.909 128.24 231.575 125.353 231.575C122.465 231.575 120.124 233.909 120.124 236.788C120.124 239.666 122.465 242 125.353 242Z" fill="url(#paint49_linear)"/>
</mask>
<g mask="url(#mask24)">
<path d="M125.353 242C128.24 242 130.581 239.666 130.581 236.788C130.581 233.909 128.24 231.575 125.353 231.575C122.465 231.575 120.124 233.909 120.124 236.788C120.124 239.666 122.465 242 125.353 242Z" fill="url(#paint50_linear)"/>
</g>
</g>
<defs>
<linearGradient id="paint0_linear" x1="1217.01" y1="742.124" x2="1398.15" y2="151.875" gradientUnits="userSpaceOnUse">
<stop stop-color="#F3F7FF"/>
<stop offset="1" stop-color="#DEEEFE"/>
</linearGradient>
<linearGradient id="paint1_linear" x1="53.996" y1="258.134" x2="-17.4057" y2="76.3303" gradientUnits="userSpaceOnUse">
<stop/>
<stop offset="1" stop-color="white"/>
</linearGradient>
<linearGradient id="paint2_linear" x1="53.996" y1="258.134" x2="-17.4057" y2="76.3303" gradientUnits="userSpaceOnUse">
<stop stop-color="#97C3F9"/>
<stop offset="1" stop-color="#93C1F9"/>
</linearGradient>
<linearGradient id="paint3_linear" x1="80.2005" y1="247.843" x2="8.79889" y2="66.039" gradientUnits="userSpaceOnUse">
<stop/>
<stop offset="1" stop-color="white"/>
</linearGradient>
<linearGradient id="paint4_linear" x1="80.2005" y1="247.843" x2="8.79889" y2="66.039" gradientUnits="userSpaceOnUse">
<stop stop-color="#97C3F9"/>
<stop offset="1" stop-color="#93C1F9"/>
</linearGradient>
<linearGradient id="paint5_linear" x1="106.405" y1="237.551" x2="35.0033" y2="55.7477" gradientUnits="userSpaceOnUse">
<stop/>
<stop offset="1" stop-color="white"/>
</linearGradient>
<linearGradient id="paint6_linear" x1="106.405" y1="237.551" x2="35.0033" y2="55.7477" gradientUnits="userSpaceOnUse">
<stop stop-color="#97C3F9"/>
<stop offset="1" stop-color="#93C1F9"/>
</linearGradient>
<linearGradient id="paint7_linear" x1="132.609" y1="227.26" x2="61.2075" y2="45.4558" gradientUnits="userSpaceOnUse">
<stop/>
<stop offset="1" stop-color="white"/>
</linearGradient>
<linearGradient id="paint8_linear" x1="132.609" y1="227.26" x2="61.2075" y2="45.4558" gradientUnits="userSpaceOnUse">
<stop stop-color="#97C3F9"/>
<stop offset="1" stop-color="#93C1F9"/>
</linearGradient>
<linearGradient id="paint9_linear" x1="158.813" y1="216.968" x2="87.4119" y2="35.1643" gradientUnits="userSpaceOnUse">
<stop/>
<stop offset="1" stop-color="white"/>
</linearGradient>
<linearGradient id="paint10_linear" x1="158.813" y1="216.968" x2="87.4119" y2="35.1643" gradientUnits="userSpaceOnUse">
<stop stop-color="#97C3F9"/>
<stop offset="1" stop-color="#93C1F9"/>
</linearGradient>
<linearGradient id="paint11_linear" x1="45.0538" y1="261.646" x2="-26.3466" y2="79.8431" gradientUnits="userSpaceOnUse">
<stop/>
<stop offset="1" stop-color="white"/>
</linearGradient>
<linearGradient id="paint12_linear" x1="45.0538" y1="261.646" x2="-26.3466" y2="79.8431" gradientUnits="userSpaceOnUse">
<stop stop-color="#97C3F9"/>
<stop offset="1" stop-color="#93C1F9"/>
</linearGradient>
<linearGradient id="paint13_linear" x1="71.2581" y1="251.354" x2="-0.142282" y2="69.5512" gradientUnits="userSpaceOnUse">
<stop/>
<stop offset="1" stop-color="white"/>
</linearGradient>
<linearGradient id="paint14_linear" x1="71.2581" y1="251.354" x2="-0.142282" y2="69.5512" gradientUnits="userSpaceOnUse">
<stop stop-color="#97C3F9"/>
<stop offset="1" stop-color="#93C1F9"/>
</linearGradient>
<linearGradient id="paint15_linear" x1="97.4624" y1="241.062" x2="26.0621" y2="59.2599" gradientUnits="userSpaceOnUse">
<stop/>
<stop offset="1" stop-color="white"/>
</linearGradient>
<linearGradient id="paint16_linear" x1="97.4624" y1="241.062" x2="26.0621" y2="59.2599" gradientUnits="userSpaceOnUse">
<stop stop-color="#97C3F9"/>
<stop offset="1" stop-color="#93C1F9"/>
</linearGradient>
<linearGradient id="paint17_linear" x1="123.667" y1="230.771" x2="52.2663" y2="48.9684" gradientUnits="userSpaceOnUse">
<stop/>
<stop offset="1" stop-color="white"/>
</linearGradient>
<linearGradient id="paint18_linear" x1="123.667" y1="230.771" x2="52.2663" y2="48.9684" gradientUnits="userSpaceOnUse">
<stop stop-color="#97C3F9"/>
<stop offset="1" stop-color="#93C1F9"/>
</linearGradient>
<linearGradient id="paint19_linear" x1="149.871" y1="220.48" x2="78.4707" y2="38.6771" gradientUnits="userSpaceOnUse">
<stop/>
<stop offset="1" stop-color="white"/>
</linearGradient>
<linearGradient id="paint20_linear" x1="149.871" y1="220.48" x2="78.4707" y2="38.6771" gradientUnits="userSpaceOnUse">
<stop stop-color="#97C3F9"/>
<stop offset="1" stop-color="#93C1F9"/>
</linearGradient>
<linearGradient id="paint21_linear" x1="36.1113" y1="265.158" x2="-35.2903" y2="83.3543" gradientUnits="userSpaceOnUse">
<stop/>
<stop offset="1" stop-color="white"/>
</linearGradient>
<linearGradient id="paint22_linear" x1="36.1113" y1="265.158" x2="-35.2903" y2="83.3543" gradientUnits="userSpaceOnUse">
<stop stop-color="#97C3F9"/>
<stop offset="1" stop-color="#93C1F9"/>
</linearGradient>
<linearGradient id="paint23_linear" x1="62.3157" y1="254.867" x2="-9.0859" y2="73.0627" gradientUnits="userSpaceOnUse">
<stop/>
<stop offset="1" stop-color="white"/>
</linearGradient>
<linearGradient id="paint24_linear" x1="62.3157" y1="254.867" x2="-9.0859" y2="73.0627" gradientUnits="userSpaceOnUse">
<stop stop-color="#97C3F9"/>
<stop offset="1" stop-color="#93C1F9"/>
</linearGradient>
<linearGradient id="paint25_linear" x1="88.5201" y1="244.575" x2="17.1185" y2="62.7713" gradientUnits="userSpaceOnUse">
<stop/>
<stop offset="1" stop-color="white"/>
</linearGradient>
<linearGradient id="paint26_linear" x1="88.5201" y1="244.575" x2="17.1185" y2="62.7713" gradientUnits="userSpaceOnUse">
<stop stop-color="#97C3F9"/>
<stop offset="1" stop-color="#93C1F9"/>
</linearGradient>
<linearGradient id="paint27_linear" x1="114.724" y1="234.283" x2="43.3227" y2="52.4796" gradientUnits="userSpaceOnUse">
<stop/>
<stop offset="1" stop-color="white"/>
</linearGradient>
<linearGradient id="paint28_linear" x1="114.724" y1="234.283" x2="43.3227" y2="52.4796" gradientUnits="userSpaceOnUse">
<stop stop-color="#97C3F9"/>
<stop offset="1" stop-color="#93C1F9"/>
</linearGradient>
<linearGradient id="paint29_linear" x1="140.929" y1="223.992" x2="69.5271" y2="42.1881" gradientUnits="userSpaceOnUse">
<stop/>
<stop offset="1" stop-color="white"/>
</linearGradient>
<linearGradient id="paint30_linear" x1="140.929" y1="223.992" x2="69.5271" y2="42.1881" gradientUnits="userSpaceOnUse">
<stop stop-color="#97C3F9"/>
<stop offset="1" stop-color="#93C1F9"/>
</linearGradient>
<linearGradient id="paint31_linear" x1="27.169" y1="268.67" x2="-44.2327" y2="86.8662" gradientUnits="userSpaceOnUse">
<stop/>
<stop offset="1" stop-color="white"/>
</linearGradient>
<linearGradient id="paint32_linear" x1="27.169" y1="268.67" x2="-44.2327" y2="86.8662" gradientUnits="userSpaceOnUse">
<stop stop-color="#97C3F9"/>
<stop offset="1" stop-color="#93C1F9"/>
</linearGradient>
<linearGradient id="paint33_linear" x1="53.3734" y1="258.379" x2="-18.0283" y2="76.5747" gradientUnits="userSpaceOnUse">
<stop/>
<stop offset="1" stop-color="white"/>
</linearGradient>
<linearGradient id="paint34_linear" x1="53.3734" y1="258.379" x2="-18.0283" y2="76.5747" gradientUnits="userSpaceOnUse">
<stop stop-color="#97C3F9"/>
<stop offset="1" stop-color="#93C1F9"/>
</linearGradient>
<linearGradient id="paint35_linear" x1="79.5777" y1="248.087" x2="8.17609" y2="66.2833" gradientUnits="userSpaceOnUse">
<stop/>
<stop offset="1" stop-color="white"/>
</linearGradient>
<linearGradient id="paint36_linear" x1="79.5777" y1="248.087" x2="8.17609" y2="66.2833" gradientUnits="userSpaceOnUse">
<stop stop-color="#97C3F9"/>
<stop offset="1" stop-color="#93C1F9"/>
</linearGradient>
<linearGradient id="paint37_linear" x1="105.782" y1="237.796" x2="34.3804" y2="55.9917" gradientUnits="userSpaceOnUse">
<stop/>
<stop offset="1" stop-color="white"/>
</linearGradient>
<linearGradient id="paint38_linear" x1="105.782" y1="237.796" x2="34.3804" y2="55.9917" gradientUnits="userSpaceOnUse">
<stop stop-color="#97C3F9"/>
<stop offset="1" stop-color="#93C1F9"/>
</linearGradient>
<linearGradient id="paint39_linear" x1="131.986" y1="227.504" x2="60.5847" y2="45.7001" gradientUnits="userSpaceOnUse">
<stop/>
<stop offset="1" stop-color="white"/>
</linearGradient>
<linearGradient id="paint40_linear" x1="131.986" y1="227.504" x2="60.5847" y2="45.7001" gradientUnits="userSpaceOnUse">
<stop stop-color="#97C3F9"/>
<stop offset="1" stop-color="#93C1F9"/>
</linearGradient>
<linearGradient id="paint41_linear" x1="18.2266" y1="272.182" x2="-53.1751" y2="90.3783" gradientUnits="userSpaceOnUse">
<stop/>
<stop offset="1" stop-color="white"/>
</linearGradient>
<linearGradient id="paint42_linear" x1="18.2266" y1="272.182" x2="-53.1751" y2="90.3783" gradientUnits="userSpaceOnUse">
<stop stop-color="#97C3F9"/>
<stop offset="1" stop-color="#93C1F9"/>
</linearGradient>
<linearGradient id="paint43_linear" x1="44.431" y1="261.891" x2="-26.9706" y2="80.0868" gradientUnits="userSpaceOnUse">
<stop/>
<stop offset="1" stop-color="white"/>
</linearGradient>
<linearGradient id="paint44_linear" x1="44.431" y1="261.891" x2="-26.9706" y2="80.0868" gradientUnits="userSpaceOnUse">
<stop stop-color="#97C3F9"/>
<stop offset="1" stop-color="#93C1F9"/>
</linearGradient>
<linearGradient id="paint45_linear" x1="70.6353" y1="251.599" x2="-0.766251" y2="69.7955" gradientUnits="userSpaceOnUse">
<stop/>
<stop offset="1" stop-color="white"/>
</linearGradient>
<linearGradient id="paint46_linear" x1="70.6353" y1="251.599" x2="-0.766251" y2="69.7955" gradientUnits="userSpaceOnUse">
<stop stop-color="#97C3F9"/>
<stop offset="1" stop-color="#93C1F9"/>
</linearGradient>
<linearGradient id="paint47_linear" x1="96.8397" y1="241.308" x2="25.438" y2="59.5038" gradientUnits="userSpaceOnUse">
<stop/>
<stop offset="1" stop-color="white"/>
</linearGradient>
<linearGradient id="paint48_linear" x1="96.8397" y1="241.308" x2="25.438" y2="59.5038" gradientUnits="userSpaceOnUse">
<stop stop-color="#97C3F9"/>
<stop offset="1" stop-color="#93C1F9"/>
</linearGradient>
<linearGradient id="paint49_linear" x1="123.044" y1="231.016" x2="51.6424" y2="49.2123" gradientUnits="userSpaceOnUse">
<stop/>
<stop offset="1" stop-color="white"/>
</linearGradient>
<linearGradient id="paint50_linear" x1="123.044" y1="231.016" x2="51.6424" y2="49.2123" gradientUnits="userSpaceOnUse">
<stop stop-color="#97C3F9"/>
<stop offset="1" stop-color="#93C1F9"/>
</linearGradient>
<clipPath id="clip0">
<rect width="778.734" height="557.403" fill="white" transform="translate(1592.04 791.608) rotate(-159.843)"/>
</clipPath>
</defs>
</svg>
