<svg width="1600" height="773" viewBox="0 0 1600 773" fill="none" xmlns="http://www.w3.org/2000/svg">
<path d="M0 5.99999C0 2.68628 2.68629 0 6 0H1594C1597.31 0 1600 2.68629 1600 6V767C1600 770.314 1597.31 773 1594 773H6.00004C2.68633 773 0 770.314 0 767V5.99999Z" fill="url(#paint0_linear)"/>
<path d="M0 5.99999C0 2.68628 2.68629 0 6 0H1594C1597.31 0 1600 2.68629 1600 6V767C1600 770.314 1597.31 773 1594 773H6.00004C2.68633 773 0 770.314 0 767V5.99999Z" fill="url(#paint1_linear)"/>
<defs>
<linearGradient id="paint0_linear" x1="-10.7843" y1="2.60509" x2="-8.26709" y2="775.632" gradientUnits="userSpaceOnUse">
<stop stop-color="#F9F4FC"/>
<stop offset="1" stop-color="#FFF4E5" stop-opacity="0.01"/>
</linearGradient>
<linearGradient id="paint1_linear" x1="-306.655" y1="0" x2="-306.655" y2="1058.88" gradientUnits="userSpaceOnUse">
<stop stop-color="#FFF4E5" stop-opacity="0.35"/>
<stop offset="1" stop-color="#B57AD2" stop-opacity="0.95"/>
</linearGradient>
</defs>
</svg>
